<?xml version="1.0" standalone="no"?>
<!DOCTYPE svg PUBLIC "-//W3C//DTD SVG 20010904//EN"
 "http://www.w3.org/TR/2001/REC-SVG-20010904/DTD/svg10.dtd">
<svg version="1.0" xmlns="http://www.w3.org/2000/svg"
 width="311.000000pt" height="162.000000pt" viewBox="0 0 311.000000 162.000000"
 preserveAspectRatio="xMidYMid meet">

<g transform="translate(0.000000,162.000000) scale(0.100000,-0.100000)"
fill="#000000" stroke="none">
<path d="M0 1392 c0 -260 -8 -236 93 -263 27 -6 55 -18 62 -25 7 -7 28 -16 46
-19 19 -3 36 -10 39 -14 3 -5 38 -12 78 -16 39 -4 74 -11 77 -16 3 -5 28 -11
56 -15 33 -4 55 -13 62 -25 7 -11 23 -19 37 -19 14 0 30 -4 36 -9 24 -24 214
-41 214 -20 0 9 23 10 80 5 58 -5 80 -3 80 5 0 7 8 18 18 25 20 16 62 18 62 4
0 -5 8 -10 18 -10 24 0 83 -36 108 -67 15 -18 26 -23 36 -17 29 17 78 63 78
73 0 5 6 12 13 14 9 4 9 7 -1 15 -22 15 11 34 44 26 25 -7 26 -8 9 -15 -17 -7
-18 -8 -2 -8 15 -1 17 -12 17 -84 0 -54 5 -89 14 -102 15 -22 31 -204 27 -295
-5 -87 7 -53 14 40 4 47 8 86 10 88 1 2 10 -4 19 -13 9 -9 16 -13 16 -8 0 4 5
1 10 -7 9 -13 10 -13 10 1 0 8 -16 23 -35 32 -34 16 -35 19 -35 70 0 29 6 59
13 66 10 10 9 11 -5 6 -14 -6 -18 -2 -18 14 0 24 10 27 28 9 9 -9 12 -9 12 -1
0 7 -10 15 -21 18 -20 7 -21 12 -16 109 4 69 3 88 -3 61 -5 -22 -9 -61 -9 -87
-1 -27 -5 -48 -11 -48 -6 0 -8 39 -5 103 3 56 5 115 5 130 0 25 3 27 23 22 12
-4 32 -20 45 -36 13 -16 28 -29 34 -29 7 0 2 10 -10 23 -25 27 -29 42 -8 34 8
-3 27 -2 43 2 25 7 22 8 -27 15 -38 5 -79 22 -138 57 -46 27 -86 49 -88 49 -4
0 11 -20 60 -76 15 -19 25 -34 22 -34 -3 0 -37 20 -76 45 -38 25 -70 43 -70
41 0 -7 130 -96 140 -96 5 0 12 -5 15 -10 13 -22 -62 2 -142 45 -46 24 -83 42
-83 40 0 -2 20 -18 45 -36 32 -23 42 -35 33 -41 -31 -19 -57 -7 -99 46 l-42
53 -77 0 c-83 0 -137 18 -106 35 9 5 31 6 49 3 31 -7 31 -6 12 9 -19 16 -18
17 25 10 25 -3 49 -10 55 -15 11 -11 228 -12 221 -1 -2 4 3 8 12 9 9 0 44 6
77 11 33 6 93 13 134 17 53 4 78 11 87 23 11 14 10 20 -9 34 -19 15 -20 19 -7
28 8 5 18 10 21 10 12 0 -16 70 -28 70 -24 0 -13 30 14 41 24 9 31 7 50 -16
20 -22 23 -38 23 -105 0 -87 -5 -80 70 -93 14 -3 51 -12 83 -20 56 -16 196
-15 237 0 8 4 19 5 24 4 5 -1 27 5 49 14 42 17 131 13 142 -6 11 -16 -60 -43
-122 -45 -76 -2 -86 -8 -78 -45 5 -20 1 -37 -13 -57 -15 -21 -18 -32 -10 -47
9 -20 9 -20 -6 -1 -9 11 -16 16 -16 11 0 -5 -6 -1 -12 8 -18 23 -122 26 -163
5 -16 -8 -42 -18 -57 -22 -16 -4 -28 -13 -28 -22 0 -13 6 -15 28 -9 15 5 38 9
52 10 14 0 33 5 43 9 11 5 23 4 29 -2 8 -8 4 -9 -12 -5 -16 4 -21 3 -16 -5 3
-6 -3 -16 -15 -22 -11 -7 -18 -14 -15 -17 13 -13 -15 -43 -37 -39 -12 3 -25 5
-29 5 -14 2 -8 29 7 35 8 3 15 10 15 16 0 7 -6 8 -19 1 -16 -9 -19 -22 -18
-78 0 -38 2 -57 4 -44 10 51 18 52 196 36 51 -5 77 -4 77 3 0 5 36 13 80 17
83 7 111 25 40 25 -38 0 -40 2 -40 30 0 23 -4 30 -20 30 -11 0 -20 4 -20 10 0
16 37 30 79 30 34 0 41 3 41 20 0 13 7 20 19 20 11 0 23 5 26 10 3 6 16 8 28
6 12 -3 46 -7 74 -11 l53 -6 0 51 c0 39 4 53 20 62 16 10 20 24 20 70 0 50 3
58 19 58 10 0 21 7 25 15 3 8 12 12 21 9 12 -5 15 3 15 45 0 36 4 51 13 49 6
-1 23 5 37 14 22 15 25 23 22 63 l-4 45 -1274 0 -1274 0 0 -228z m2220 -156
c0 -2 -9 -6 -20 -9 -11 -3 -18 -1 -14 4 5 9 34 13 34 5z m-150 -71 c0 -8 -4
-15 -10 -15 -5 0 -10 7 -10 15 0 8 5 15 10 15 6 0 10 -7 10 -15z m-120 -79 c0
-3 -4 -8 -10 -11 -5 -3 -10 -1 -10 4 0 6 5 11 10 11 6 0 10 -2 10 -4z m-785
-16 c3 -6 -1 -7 -9 -4 -18 7 -21 14 -7 14 6 0 13 -4 16 -10z m865 0 c0 -5 -5
-10 -11 -10 -5 0 -7 5 -4 10 3 6 8 10 11 10 2 0 4 -4 4 -10z"/>
<path d="M1560 1446 c0 -9 5 -16 10 -16 6 0 10 4 10 9 0 6 -4 13 -10 16 -5 3
-10 -1 -10 -9z"/>
<path d="M1582 1330 c0 -19 2 -27 5 -17 2 9 2 25 0 35 -3 9 -5 1 -5 -18z"/>
<path d="M2115 1280 c-3 -5 1 -10 9 -10 8 0 18 5 21 10 3 6 -1 10 -9 10 -8 0
-18 -4 -21 -10z"/>
<path d="M1318 983 c7 -3 16 -2 19 1 4 3 -2 6 -13 5 -11 0 -14 -3 -6 -6z"/>
<path d="M1477 955 c9 -19 18 -33 21 -31 4 5 -26 66 -33 66 -3 0 3 -16 12 -35z"/>
<path d="M1455 930 c26 -118 79 -235 127 -275 23 -20 23 -20 6 0 -23 29 -86
157 -114 234 -14 36 -22 55 -19 41z"/>
<path d="M1620 672 c0 -4 4 -13 9 -20 7 -11 9 -11 14 1 3 9 -1 18 -9 21 -8 3
-14 2 -14 -2z"/>
<path d="M1708 643 c7 -3 16 -2 19 1 4 3 -2 6 -13 5 -11 0 -14 -3 -6 -6z"/>
<path d="M1490 621 c0 -8 41 -23 47 -17 2 1 -8 8 -22 14 -14 6 -25 8 -25 3z"/>
<path d="M1556 587 c3 -8 11 -14 19 -14 11 0 12 4 4 14 -6 7 -15 13 -20 13 -5
0 -6 -6 -3 -13z"/>
<path d="M1453 540 c0 -30 2 -43 4 -27 2 15 2 39 0 55 -2 15 -4 2 -4 -28z"/>
<path d="M1630 561 c0 -8 41 -23 47 -17 2 1 -8 8 -22 14 -14 6 -25 8 -25 3z"/>
<path d="M1473 505 c0 -33 2 -45 4 -27 2 18 2 45 0 60 -2 15 -4 0 -4 -33z"/>
<path d="M1404 345 c0 -60 1 -84 3 -52 2 32 2 81 0 110 -2 29 -3 3 -3 -58z"/>
<path d="M1533 315 c0 -38 2 -53 4 -32 2 20 2 52 0 70 -2 17 -4 1 -4 -38z"/>
<path d="M1363 203 c-13 -2 -23 -11 -23 -20 0 -9 -6 -21 -14 -27 -8 -7 -16
-40 -19 -83 l-6 -73 216 0 215 0 -4 40 c-3 35 -1 40 17 41 19 0 19 1 -2 16
-16 11 -23 25 -23 50 0 30 3 34 20 28 15 -5 20 -2 19 12 0 10 -3 13 -6 6 -3
-10 -8 -9 -20 2 -12 12 -45 15 -181 14 -92 -1 -177 -4 -189 -6z m104 -75 c-3
-8 -6 -5 -6 6 -1 11 2 17 5 13 3 -3 4 -12 1 -19z m177 7 c4 -13 -7 -15 -77
-13 l-82 2 73 3 c39 2 72 8 72 13 0 15 7 12 14 -5z"/>
<path d="M1740 145 c0 -8 5 -15 10 -15 6 0 10 7 10 15 0 8 -4 15 -10 15 -5 0
-10 -7 -10 -15z"/>
<path d="M1771 144 c0 -11 3 -14 6 -6 3 7 2 16 -1 19 -3 4 -6 -2 -5 -13z"/>
<path d="M1791 134 c0 -11 3 -14 6 -6 3 7 2 16 -1 19 -3 4 -6 -2 -5 -13z"/>
<path d="M1780 90 c0 -5 5 -10 11 -10 5 0 7 5 4 10 -3 6 -8 10 -11 10 -2 0 -4
-4 -4 -10z"/>
<path d="M1781 44 c0 -11 3 -14 6 -6 3 7 2 16 -1 19 -3 4 -6 -2 -5 -13z"/>
</g>
</svg>
