<?xml version="1.0" standalone="no"?>
<!DOCTYPE svg PUBLIC "-//W3C//DTD SVG 20010904//EN"
 "http://www.w3.org/TR/2001/REC-SVG-20010904/DTD/svg10.dtd">
<svg version="1.0" xmlns="http://www.w3.org/2000/svg"
 width="290.000000pt" height="174.000000pt" viewBox="0 0 290.000000 174.000000"
 preserveAspectRatio="xMidYMid meet">

<g transform="translate(0.000000,174.000000) scale(0.100000,-0.100000)"
fill="#000000" stroke="none">
<path d="M1611 1328 c18 -16 28 -28 22 -28 -7 0 -21 10 -32 22 -16 16 -23 18
-34 10 -8 -7 -16 -10 -18 -7 -3 2 -10 -5 -17 -15 -7 -12 -8 -20 -2 -20 5 0 10
4 10 9 0 20 41 22 68 3 17 -12 47 -20 84 -21 l56 -2 -32 34 c-28 30 -41 35
-85 38 l-53 4 33 -27z m62 5 c-7 -2 -19 -2 -25 0 -7 3 -2 5 12 5 14 0 19 -2
13 -5z"/>
<path d="M978 1263 c-10 -2 -18 -9 -18 -13 0 -5 -13 -16 -29 -24 -53 -28 -171
-167 -171 -202 0 -7 -3 -14 -8 -14 -4 0 -18 -10 -32 -23 -14 -13 -34 -28 -45
-35 -11 -6 -14 -12 -7 -12 21 0 13 -20 -9 -20 -11 0 -17 5 -14 10 3 6 0 10 -7
10 -9 0 -9 3 2 10 11 7 -3 10 -47 8 -52 -3 -62 -6 -58 -19 4 -11 -3 -20 -22
-27 -64 -24 -80 -26 -76 -12 4 13 -96 51 -125 48 -15 -2 -32 3 -38 11 -12 15
-94 6 -94 -10 0 -6 -5 -7 -10 -4 -16 10 -25 -26 -9 -37 9 -6 -15 -8 -73 -5
l-88 5 0 -173 c0 -157 2 -174 18 -178 16 -4 16 -5 0 -6 -10 0 -18 -5 -18 -11
0 -15 26 -12 40 5 7 8 21 15 32 15 11 0 27 7 36 16 15 15 14 16 -7 9 -20 -6
-22 -5 -12 14 6 11 24 28 41 37 16 10 27 21 24 26 -3 4 3 8 13 8 11 0 23 4 29
10 5 5 23 11 39 12 17 1 41 8 54 15 14 6 28 10 33 7 4 -3 4 6 -2 20 -11 30 2
42 21 19 10 -12 10 -14 2 -9 -7 4 -13 3 -13 -2 0 -6 7 -13 16 -16 22 -9 24 -8
18 8 -4 10 5 16 28 21 27 7 30 9 14 15 -15 5 -16 9 -7 14 7 5 18 3 24 -3 14
-14 57 -15 57 -1 0 6 10 10 23 10 20 1 20 2 5 11 -25 14 -23 39 3 39 13 0 18
-4 13 -12 -5 -8 0 -9 15 -5 15 3 24 0 28 -10 3 -8 17 -19 32 -25 15 -6 21 -12
13 -15 -7 -3 -19 1 -27 7 -12 10 -15 10 -15 -2 0 -11 -10 -14 -40 -12 -22 1
-38 -1 -35 -5 2 -5 16 -7 30 -6 14 2 23 -1 19 -6 -3 -5 -14 -9 -25 -9 -13 0
-18 -4 -13 -12 4 -7 3 -8 -4 -4 -6 4 -20 2 -31 -3 -14 -8 -20 -7 -25 4 -3 9
-17 15 -33 14 -27 -1 -27 -1 -4 -8 l24 -7 -24 -15 c-48 -31 -53 -33 -44 -19 6
10 4 12 -9 7 -10 -4 -22 -7 -27 -7 -6 0 -7 -6 -2 -12 15 -24 11 -38 -10 -39
-12 -1 -34 -2 -49 -3 -16 -1 -34 -8 -40 -15 -11 -11 -10 -13 5 -8 11 4 16 3
11 -4 -3 -6 -17 -8 -31 -4 -50 12 -103 17 -103 8 0 -7 23 -12 79 -14 19 -1 21
-3 10 -11 -11 -8 -10 -9 4 -4 11 3 16 2 12 -5 -4 -5 -16 -7 -27 -3 -12 4 -18
2 -15 -4 4 -5 -20 -20 -53 -33 -36 -14 -60 -30 -60 -39 0 -12 -2 -12 -9 -2 -7
11 -9 11 -14 -2 -4 -9 -13 -16 -22 -16 -9 0 -15 -9 -15 -21 0 -15 4 -19 16
-15 9 3 18 6 20 6 3 0 2 4 -1 10 -3 5 0 8 7 5 7 -3 29 11 49 30 20 19 39 31
43 28 12 -13 5 -21 -25 -32 -27 -9 -30 -13 -19 -26 13 -16 5 -20 -29 -16 -7 2
-10 -3 -6 -9 3 -6 3 -9 -2 -8 -4 1 -18 -6 -30 -17 -20 -17 -23 -29 -23 -97 0
-43 3 -78 6 -78 3 0 14 5 25 10 20 11 24 4 11 -18 -5 -7 -16 -10 -25 -6 -15 5
-17 -6 -17 -110 l0 -116 1063 0 1062 1 -27 22 c-16 13 -28 28 -28 35 0 6 -7 9
-16 5 -12 -4 -13 -7 -3 -14 20 -12 3 -22 -26 -15 -14 4 -25 14 -25 23 0 15 -1
15 -13 -1 -15 -20 -51 -11 -43 10 3 8 -1 14 -10 14 -11 0 -13 -6 -9 -21 5 -14
4 -19 -4 -15 -7 5 -9 1 -5 -8 4 -11 0 -16 -11 -16 -12 0 -15 5 -10 20 4 14 2
20 -8 20 -8 0 -17 7 -21 15 -3 8 -1 15 3 15 5 0 12 -6 14 -12 4 -8 6 -7 6 3 1
21 -23 42 -43 37 -14 -3 -14 -6 -2 -30 32 -60 1 -86 -47 -41 -38 35 -69 49
-60 27 3 -7 1 -14 -5 -14 -14 0 -22 25 -12 40 7 11 11 11 26 -1 11 -9 15 -9
10 -1 -5 8 -1 12 10 12 28 0 10 10 -24 14 -17 2 -29 -1 -26 -5 5 -9 -12 -12
-51 -10 l-20 1 20 -9 c19 -9 19 -10 -2 -10 -16 -1 -23 7 -28 30 -5 21 -10 27
-15 19 -6 -10 -9 -9 -13 1 -4 12 -6 12 -6 0 -1 -9 -12 -2 -30 16 -16 17 -35
33 -42 35 -8 3 -5 7 9 10 12 4 22 2 22 -3 0 -4 7 -6 15 -3 14 6 13 8 -2 20
-10 7 -14 14 -10 14 4 0 2 6 -5 14 -7 8 -17 11 -23 8 -5 -3 -4 2 4 11 10 13
11 17 1 17 -16 0 -50 38 -51 59 -1 9 -1 29 -1 44 1 21 -3 27 -14 23 -9 -3 -14
1 -15 12 -1 9 -2 24 -3 32 0 8 -9 14 -18 12 -13 -2 -18 4 -18 18 0 24 -40 82
-40 59 -1 -24 -30 22 -30 47 0 21 -30 89 -30 69 0 -5 -5 -3 -10 5 -5 8 -14 16
-20 16 -5 1 -14 2 -20 3 -5 0 -10 8 -10 16 0 8 -4 15 -10 15 -5 0 -10 7 -10
16 0 22 -27 48 -33 31 -4 -9 -6 -9 -6 1 -1 7 -5 11 -10 7 -5 -3 -17 2 -26 11
-9 9 -36 19 -60 22 -29 3 -45 10 -48 21 -4 13 -5 13 -6 -2 -1 -12 -5 -15 -13
-10 -18 10 -68 11 -68 0 0 -4 -5 -5 -11 -1 -8 5 -8 8 0 14 7 3 14 46 18 93 6
83 7 86 23 67 17 -20 18 -20 28 7 16 40 18 85 4 109 -8 16 -18 20 -44 16 -18
-2 -38 -11 -45 -19 -10 -13 -15 -13 -41 1 -16 8 -33 12 -36 8 -4 -3 -4 1 0 11
8 21 33 22 40 2 8 -21 21 -19 27 5 3 13 12 19 25 18 12 -2 20 2 19 7 -1 6 -7
9 -13 9 -6 -1 -9 9 -6 22 2 13 6 24 9 24 12 0 81 -41 94 -56 13 -16 12 -17
-16 -11 -27 6 -28 5 -7 -5 12 -6 22 -15 22 -20 0 -5 22 -8 49 -6 27 2 47 6 45
9 -7 12 67 21 80 10 9 -7 16 -7 24 1 9 9 18 4 37 -18 19 -21 24 -23 19 -9 -4
11 -12 23 -18 27 -6 4 1 8 17 8 30 0 34 11 13 37 -8 10 -23 29 -34 42 -16 20
-21 22 -40 12 -14 -8 -22 -8 -22 -1 0 5 -6 10 -14 10 -8 0 -18 10 -21 21 -5
16 -9 18 -15 9 -4 -7 -13 -9 -20 -5 -13 8 -157 15 -182 8z m190 -43 c7 -11 19
-20 27 -20 8 0 15 -5 15 -11 0 -5 -3 -9 -7 -7 -49 23 -63 33 -63 45 0 19 13
16 28 -7z m-56 -12 c-3 -14 0 -17 12 -12 9 3 16 1 16 -5 0 -6 -5 -11 -10 -11
-7 0 -7 -6 0 -20 8 -14 8 -20 0 -20 -6 0 -8 -4 -5 -10 3 -5 1 -10 -4 -10 -6 0
-10 8 -9 18 3 35 -2 53 -13 47 -6 -4 -8 -13 -5 -21 3 -8 1 -14 -4 -14 -6 0
-10 5 -10 10 0 6 -8 10 -17 10 -10 0 -25 5 -33 11 -12 8 -8 10 15 8 51 -2 57
0 51 19 -4 12 -1 19 7 19 9 0 12 -7 9 -19z m98 12 c12 -8 11 -10 -7 -10 -13 0
-23 5 -23 10 0 13 11 13 30 0z m-370 -136 c0 -2 -7 -4 -15 -4 -8 0 -15 4 -15
10 0 5 7 7 15 4 8 -4 15 -8 15 -10z m64 -15 c-4 -8 1 -9 15 -4 20 6 21 5 9
-14 -7 -12 -20 -21 -29 -21 -10 0 -19 -11 -23 -31 -3 -18 -10 -28 -16 -24 -6
4 -16 2 -23 -4 -17 -14 -52 -7 -52 10 0 8 10 14 25 14 33 0 55 22 52 51 -2 15
3 24 15 27 31 8 34 7 27 -4z m-61 -23 c4 -9 -2 -11 -19 -8 -13 2 -24 10 -24
17 0 16 37 8 43 -9z m-73 -81 c0 -8 -9 -15 -21 -15 -11 0 -29 -5 -39 -10 -13
-7 -21 -7 -25 0 -3 5 2 10 12 10 11 0 28 7 39 15 25 19 34 19 34 0z m-520 -44
c0 -11 89 -36 117 -33 11 2 24 -2 28 -7 3 -6 18 -12 33 -12 17 -1 21 -3 10 -6
-10 -2 -18 -10 -18 -16 0 -8 -3 -8 -9 1 -4 7 -24 15 -44 16 -20 2 -43 9 -52
16 -8 7 -27 10 -41 7 -16 -3 -28 0 -31 9 -2 7 -11 10 -18 7 -8 -2 -20 -1 -27
3 -9 6 -6 10 12 15 36 10 40 10 40 0z m380 -49 c0 -5 -7 -9 -15 -9 -8 0 -15 4
-15 9 0 4 7 8 15 8 8 0 15 -4 15 -8z m194 -1 c3 -5 -10 -12 -29 -15 -37 -7
-45 -20 -21 -33 10 -6 5 -12 -20 -25 -29 -15 -34 -15 -34 -3 0 8 7 15 15 15 9
0 15 9 15 22 0 20 -1 20 -18 5 -21 -19 -32 -22 -32 -7 0 6 6 10 14 10 8 0 16
7 20 15 3 8 12 12 20 9 8 -3 23 -1 33 5 22 13 30 13 37 2z m-139 -10 c3 -5 2
-12 -3 -15 -5 -3 -9 1 -9 9 0 17 3 19 12 6z m156 -14 c-10 -9 -11 -8 -5 6 3
10 9 15 12 12 3 -3 0 -11 -7 -18z m29 -7 c0 -5 -5 -10 -11 -10 -5 0 -7 5 -4
10 3 6 8 10 11 10 2 0 4 -4 4 -10z m-425 -40 c-3 -5 -10 -10 -16 -10 -5 0 -9
5 -9 10 0 6 7 10 16 10 8 0 12 -4 9 -10z m215 6 c0 -3 -4 -8 -10 -11 -5 -3
-10 -1 -10 4 0 6 5 11 10 11 6 0 10 -2 10 -4z m237 -18 c-3 -8 -6 -5 -6 6 -1
11 2 17 5 13 3 -3 4 -12 1 -19z m-222 -8 c-3 -5 -14 -10 -23 -9 -14 0 -13 2 3
9 27 11 27 11 20 0z m319 -29 c-2 -3 -12 3 -22 13 -16 17 -16 18 5 5 12 -7 20
-15 17 -18z m124 4 c-3 -3 -9 2 -12 12 -6 14 -5 15 5 6 7 -7 10 -15 7 -18z
m-418 1 c0 -2 -9 -6 -20 -9 -11 -3 -18 -1 -14 4 5 9 34 13 34 5z m230 -5 c0
-5 10 -7 23 -4 16 3 18 2 9 -5 -8 -5 -13 -13 -12 -18 1 -5 -4 -10 -12 -12 -10
-3 -10 -1 1 6 10 7 2 12 -30 17 -36 6 -40 9 -24 16 28 11 45 11 45 0z m-283
-23 c-3 -8 -6 -5 -6 6 -1 11 2 17 5 13 3 -3 4 -12 1 -19z m193 -3 c7 -8 9 -15
4 -15 -5 0 -1 -5 9 -11 23 -13 22 -24 -3 -26 -14 -1 -20 4 -20 19 0 14 -5 18
-15 14 -8 -3 -15 -1 -15 4 0 6 5 10 11 10 5 0 7 5 4 10 -10 16 11 12 25 -5z
m50 -6 c0 -4 8 -9 18 -12 9 -2 2 -4 -15 -4 -19 0 -33 5 -33 12 0 6 7 12 15 12
8 0 15 -4 15 -8z m155 1 c-3 -5 1 -10 9 -10 9 0 16 -4 16 -9 0 -5 -8 -8 -17
-6 -10 2 -24 4 -31 4 -10 1 -10 4 0 16 15 16 32 20 23 5z m155 -25 c0 -8 -4
-15 -10 -15 -5 0 -10 7 -10 15 0 8 5 15 10 15 6 0 10 -7 10 -15z m-686 -10 c3
-8 1 -15 -3 -15 -5 0 -11 7 -15 15 -3 8 -1 15 3 15 5 0 11 -7 15 -15z m-144
-25 c0 -5 -5 -10 -11 -10 -5 0 -7 5 -4 10 3 6 8 10 11 10 2 0 4 -4 4 -10z
m175 0 c-6 -10 5 -13 59 -14 45 -1 41 -21 -3 -21 -22 -1 -38 2 -35 6 2 4 -7 9
-21 11 -13 3 -26 0 -29 -6 -2 -6 -5 -3 -5 6 -1 9 5 19 12 21 20 9 29 8 22 -3z
m223 -6 c-13 -13 -20 -14 -34 -4 -16 10 -16 11 -2 6 10 -3 20 -1 23 4 4 6 11
10 18 10 7 0 5 -7 -5 -16z m-658 -3 c0 -11 -46 -41 -71 -46 -10 -2 -21 1 -25
6 -3 5 -2 9 3 8 26 -4 52 3 69 20 22 23 24 24 24 12z m820 -6 c11 -13 10 -14
-4 -9 -9 3 -16 10 -16 15 0 13 6 11 20 -6z m-375 -35 c10 -11 13 -20 7 -20 -6
0 -16 9 -22 20 -6 11 -9 20 -7 20 2 0 12 -9 22 -20z m164 6 c10 -12 8 -14 -13
-12 -14 2 -27 -3 -30 -10 -3 -8 -10 -14 -16 -14 -5 0 -2 9 7 19 9 11 23 17 31
13 10 -3 13 -1 8 6 -10 17 -1 15 13 -2z m70 -8 c-39 -25 -49 -29 -49 -16 0 7
10 18 23 24 25 12 46 6 26 -8z m121 -9 c0 -6 -4 -7 -10 -4 -5 3 -10 -1 -10 -9
0 -17 -23 -20 -55 -6 -21 8 -21 9 31 25 8 3 12 10 8 16 -4 8 0 8 15 0 11 -7
21 -16 21 -22z m140 27 c0 -11 -19 -15 -25 -6 -3 5 1 10 9 10 9 0 16 -2 16 -4z
m-773 -25 c0 -11 -5 -18 -9 -15 -4 3 -5 11 -1 19 7 21 12 19 10 -4z m133 14
c0 -2 -19 -14 -42 -25 -43 -20 -40 -9 4 15 25 14 38 18 38 10z m37 -1 c-3 -3
-12 -4 -19 -1 -8 3 -5 6 6 6 11 1 17 -2 13 -5z m63 -4 c-18 -12 -30 -13 -30
-2 0 4 10 9 22 9 18 2 20 0 8 -7z m634 -5 c-4 -8 -11 -15 -16 -15 -6 0 -5 6 2
15 7 8 14 15 16 15 2 0 1 -7 -2 -15z m-34 -5 c0 -5 -5 -10 -11 -10 -5 0 -7 -6
-3 -12 5 -10 4 -10 -6 -1 -7 6 -9 16 -6 22 9 14 26 14 26 1z m52 -12 c-7 -7
-12 -8 -12 -2 0 14 12 26 19 19 2 -3 -1 -11 -7 -17z m-732 7 c0 -2 -10 -9 -22
-15 -22 -11 -22 -10 -4 4 21 17 26 19 26 11z m-190 -30 c-19 -22 16 -26 40 -3
12 11 23 18 26 16 2 -3 -10 -17 -26 -33 -17 -16 -30 -23 -30 -17 0 7 -7 12
-16 12 -14 0 -14 -3 -4 -15 14 -16 10 -18 -14 -9 -9 3 -13 10 -10 15 3 5 1 9
-5 9 -5 0 -11 -6 -14 -12 -2 -8 -8 -9 -13 -4 -5 5 -3 11 5 14 7 2 22 15 34 28
20 24 47 23 27 -1z m807 19 c-3 -3 -12 -4 -19 -1 -8 3 -5 6 6 6 11 1 17 -2 13
-5z m-557 -14 c0 -5 -5 -10 -11 -10 -5 0 -7 5 -4 10 3 6 8 10 11 10 2 0 4 -4
4 -10z m107 -12 c-3 -8 -6 -5 -6 6 -1 11 2 17 5 13 3 -3 4 -12 1 -19z m333 12
c0 -5 -5 -10 -11 -10 -5 0 -7 5 -4 10 3 6 8 10 11 10 2 0 4 -4 4 -10z m-575
-26 c-33 -17 -35 -17 -35 -4 0 12 41 30 53 23 5 -3 -4 -11 -18 -19z m942 2 c0
-8 -6 -12 -15 -9 -11 5 -11 7 0 14 7 5 13 9 14 9 0 0 1 -6 1 -14z m-502 -16
c-3 -5 -15 -8 -25 -7 -32 5 -31 13 1 15 18 2 28 -2 24 -8z m-405 -8 c0 -5 -7
-9 -15 -9 -8 0 -15 4 -15 9 0 4 7 8 15 8 8 0 15 -4 15 -8z m103 -23 c21 0 23
-25 1 -33 -9 -3 -27 -6 -40 -6 -14 0 -34 -5 -45 -10 -16 -9 -19 -7 -19 12 0
27 35 49 65 41 11 -3 28 -5 38 -4z m-333 -19 c-8 -6 -22 -10 -30 -10 -8 0 -4
6 10 13 27 15 44 12 20 -3z m55 10 c3 -5 2 -10 -4 -10 -5 0 -13 5 -16 10 -3 6
-2 10 4 10 5 0 13 -4 16 -10z m37 -12 c-7 -7 -12 -8 -12 -2 0 14 12 26 19 19
2 -3 -1 -11 -7 -17z m415 8 c-4 -10 -1 -13 9 -9 17 6 64 -15 64 -29 0 -4 -13
-8 -30 -8 -16 0 -30 5 -30 10 0 6 -12 2 -27 -7 -26 -17 -27 -17 -20 0 3 9 2
17 -2 17 -5 0 -11 -7 -15 -15 -3 -8 -11 -15 -17 -15 -8 0 -7 5 2 17 11 13 11
15 1 9 -17 -10 -65 2 -57 14 3 6 -2 11 -12 11 -29 2 47 16 96 18 34 1 42 -2
38 -13z m-300 -21 c0 -17 -13 -20 -21 -6 -4 5 0 12 6 14 7 3 13 6 14 6 0 1 1
-6 1 -14z m-137 -5 c0 -5 -5 -10 -11 -10 -5 0 -7 5 -4 10 3 6 8 10 11 10 2 0
4 -4 4 -10z m74 -2 c-3 -4 -12 -8 -20 -8 -8 0 -14 4 -14 8 0 4 9 8 19 8 11 0
17 -4 15 -8z m586 -13 c5 3 25 2 43 -4 17 -6 43 -13 57 -15 14 -3 34 -12 45
-20 19 -14 18 -15 -12 -6 -24 6 -33 5 -33 -3 0 -7 -7 -3 -15 7 -13 17 -15 18
-15 3 0 -9 -4 -17 -10 -17 -5 0 -7 -7 -4 -15 4 -8 11 -12 17 -8 5 3 7 1 3 -5
-3 -6 3 -14 15 -17 11 -4 18 -9 16 -12 -3 -2 -14 0 -25 6 -14 7 -24 6 -40 -5
-12 -8 -22 -11 -22 -5 0 6 -8 10 -17 9 -46 -4 -63 2 -63 23 0 11 -4 18 -9 15
-5 -4 -11 -1 -13 6 -3 7 -13 2 -26 -12 -15 -16 -22 -19 -22 -9 0 12 -2 12 -10
-1 -13 -21 -22 -7 -15 23 7 25 29 37 72 37 12 0 27 9 33 21 9 16 14 18 25 9 8
-7 19 -9 25 -5z m-396 -16 c-3 -5 -10 -7 -15 -3 -5 3 -7 10 -3 15 3 5 10 7 15
3 5 -3 7 -10 3 -15z m-394 2 c0 -5 -6 -14 -14 -20 -12 -10 -13 -8 -9 8 5 21
23 30 23 12z m350 -13 c0 -4 -4 -8 -9 -8 -6 0 -12 4 -15 8 -3 5 1 9 9 9 8 0
15 -4 15 -9z m230 2 c0 -5 -5 -10 -11 -10 -5 0 -7 5 -4 10 3 6 8 10 11 10 2 0
4 -4 4 -10z m503 -9 c10 -12 9 -14 -5 -8 -10 3 -18 2 -18 -3 0 -6 5 -10 12
-10 6 0 8 -3 5 -7 -4 -3 -19 6 -33 20 l-27 27 27 -2 c15 -1 33 -9 39 -17z
m-940 -3 c-4 -7 -8 -16 -8 -20 0 -14 -15 -21 -15 -7 0 8 5 20 12 27 16 16 21
15 11 0z m1004 6 c-3 -3 -12 -4 -19 -1 -8 3 -5 6 6 6 11 1 17 -2 13 -5z
m-1187 -18 c0 -3 -4 -8 -10 -11 -5 -3 -10 -1 -10 4 0 6 5 11 10 11 6 0 10 -2
10 -4z m564 -12 c4 -12 2 -15 -9 -10 -11 4 -15 -1 -15 -19 0 -26 -7 -30 -26
-17 -21 14 -21 37 0 49 29 17 43 16 50 -3z m-239 -4 c-3 -5 -14 -10 -23 -9
-14 0 -13 2 3 9 27 11 27 11 20 0z m930 0 c3 -5 -2 -10 -12 -10 -11 0 -24 -5
-29 -10 -7 -7 -19 -8 -37 -1 -36 14 -34 25 3 18 16 -4 32 -2 35 3 8 13 32 13
40 0z m70 0 c30 -11 25 -30 -8 -30 -18 0 -19 2 -7 10 12 7 10 11 -10 19 -14 5
-20 10 -13 10 6 1 24 -3 38 -9z m-955 -15 c-15 -18 -24 -20 -14 -3 5 8 2 9
-10 5 -10 -4 -15 -3 -11 3 3 6 15 10 27 10 17 0 18 -2 8 -15z m611 2 c-13 -16
-5 -27 19 -27 9 0 25 -8 34 -19 16 -17 16 -19 -1 -25 -11 -5 -22 -1 -30 10 -7
10 -13 12 -13 6 0 -7 -4 -12 -10 -12 -5 0 -7 7 -4 15 4 8 1 15 -5 15 -12 0
-15 32 -4 43 12 13 25 7 14 -6z m-381 -1 c0 -3 -4 -8 -10 -11 -5 -3 -10 -1
-10 4 0 6 5 11 10 11 6 0 10 -2 10 -4z m569 -26 c7 0 9 -4 6 -10 -3 -5 -1 -10
5 -10 6 0 8 -5 4 -12 -5 -8 -11 -6 -20 6 -9 13 -13 14 -17 4 -6 -17 -13 -9
-21 27 -7 28 -7 29 12 12 10 -9 24 -17 31 -17z m-895 5 c-4 -11 -2 -13 9 -9 8
3 17 1 20 -3 7 -11 -38 -11 -49 0 -5 4 -2 12 6 17 20 13 20 12 14 -5z m-122
-27 c-9 -9 -15 -9 -24 1 -11 10 -10 11 5 6 10 -5 17 -2 17 6 0 7 3 9 7 6 4 -4
1 -13 -5 -19z m211 2 c3 -12 0 -20 -8 -20 -8 0 -11 8 -8 20 3 11 7 20 8 20 1
0 5 -9 8 -20z m152 -20 c4 -6 -1 -7 -11 -3 -13 5 -15 3 -10 -8 4 -8 0 -5 -8 5
-14 18 -21 15 -17 -6 0 -5 -9 -8 -21 -8 l-23 0 25 24 c25 23 49 22 65 -4z
m-395 -1 c0 -5 4 -7 10 -4 6 4 7 -1 3 -11 -5 -15 -7 -15 -15 0 -5 9 -13 14
-19 11 -5 -4 -9 -1 -9 4 0 6 7 11 15 11 8 0 15 -5 15 -11z m240 -19 c0 -5 -4
-10 -10 -10 -5 0 -10 -8 -10 -19 0 -11 -9 -21 -22 -24 -26 -7 -38 1 -19 12 7
5 13 12 13 17 0 5 4 8 9 7 5 -2 9 4 9 12 0 8 7 15 15 15 8 0 15 -4 15 -10z
m384 -6 c3 -8 2 -12 -4 -9 -6 3 -10 10 -10 16 0 14 7 11 14 -7z m-688 -9 c-11
-8 -22 -12 -25 -9 -6 6 19 24 34 24 6 -1 1 -7 -9 -15z m1024 5 c0 -10 -66 -8
-76 3 -4 4 11 7 34 7 23 0 42 -4 42 -10z m-980 -4 c0 -2 -7 -7 -16 -10 -8 -3
-12 -2 -9 4 6 10 25 14 25 6z m170 -5 c0 -6 -5 -13 -10 -16 -6 -4 -8 -11 -5
-16 3 -5 -1 -6 -9 -3 -12 5 -13 9 -3 25 13 20 27 25 27 10z m195 -1 c-3 -5
-16 -10 -28 -10 -18 0 -19 2 -7 10 20 13 43 13 35 0z m275 -27 c0 -10 -4 -14
-8 -8 -4 6 -11 13 -16 18 -5 4 -2 7 7 7 10 0 17 -8 17 -17z m-527 0 c6 -10
-13 -27 -33 -31 -8 -2 -21 -10 -27 -19 -7 -9 -15 -14 -18 -11 -7 7 52 68 65
68 5 0 11 -3 13 -7z m1170 -7 c3 3 4 -1 3 -10 -4 -26 -11 -26 -23 0 -10 21 -9
23 1 15 7 -6 15 -8 19 -5z m-63 -6 c0 -5 -7 -10 -15 -10 -8 0 -15 5 -15 10 0
6 7 10 15 10 8 0 15 -4 15 -10z m137 -25 c-14 -29 -29 -37 -48 -24 -12 7 -11
9 2 9 9 0 19 9 22 20 3 11 12 20 20 20 13 0 13 -4 4 -25z m-560 -31 c-3 -3
-12 -6 -20 -8 -8 -1 -22 -8 -31 -15 -19 -16 -21 -8 -3 11 8 7 24 14 37 15 12
1 20 0 17 -3z m-890 -70 c-3 -3 -12 -4 -19 -1 -8 3 -5 6 6 6 11 1 17 -2 13 -5z
m1640 -14 c1 -15 -4 -20 -20 -19 -12 0 -16 3 -9 6 6 2 12 11 12 19 0 22 16 17
17 -6z m-1572 -30 c-3 -5 -12 -10 -18 -10 -7 0 -6 4 3 10 19 12 23 12 15 0z"/>
<path d="M630 480 c-13 -8 -12 -10 3 -10 9 0 17 5 17 10 0 12 -1 12 -20 0z"/>
<path d="M846 433 c-16 -16 -4 -33 25 -33 17 0 28 4 24 10 -9 15 -41 30 -49
23z"/>
<path d="M840 370 c0 -11 4 -20 9 -20 5 0 7 9 4 20 -3 11 -7 20 -9 20 -2 0 -4
-9 -4 -20z"/>
<path d="M1436 1262 c-3 -5 1 -9 9 -9 8 0 12 4 9 9 -3 4 -7 8 -9 8 -2 0 -6 -4
-9 -8z"/>
<path d="M1488 1262 c-10 -2 -18 -10 -18 -18 0 -17 17 -19 23 -1 3 10 9 10 26
0 27 -17 31 -16 32 5 0 9 3 12 5 5 3 -7 12 -9 20 -6 8 3 14 0 14 -6 0 -8 5 -9
19 -1 33 17 51 12 51 -15 0 -14 -5 -25 -12 -25 -9 0 -9 -3 0 -12 7 -7 12 -23
12 -36 0 -13 4 -21 10 -17 6 4 17 2 24 -4 16 -14 106 -22 106 -9 0 5 5 6 10 3
6 -3 10 3 10 15 0 12 -4 19 -9 15 -5 -3 -12 3 -14 12 -3 11 -5 6 -6 -11 -1
-25 -3 -27 -17 -15 -9 7 -29 12 -44 11 -15 -2 -34 4 -44 13 -20 21 -21 36 -1
29 8 -3 43 -7 78 -8 62 -1 63 -1 65 27 2 28 2 28 -63 31 -19 0 -35 4 -35 7 0
3 -29 6 -65 5 -36 -1 -65 1 -65 4 0 7 -87 8 -112 2z"/>
<path d="M1310 1213 c0 -7 7 -13 15 -13 8 0 15 -7 15 -16 0 -8 5 -12 10 -9 6
3 10 2 10 -4 0 -6 10 -20 23 -32 l22 -22 -22 6 c-13 3 -26 0 -30 -5 -3 -7 -1
-8 5 -4 7 4 12 2 12 -3 0 -12 40 -15 40 -3 1 4 3 24 6 46 4 26 3 36 -5 32 -7
-5 -11 2 -11 18 0 22 -4 24 -45 24 -31 -1 -45 -5 -45 -15z m90 -46 c10 -4 8
-6 -7 -6 -16 -1 -23 5 -23 17 0 10 3 13 8 6 4 -6 14 -14 22 -17z"/>
<path d="M1435 1206 c16 -8 35 -11 43 -9 18 7 13 9 -33 16 l-40 6 30 -13z"/>
<path d="M1513 1203 c9 -2 23 -2 30 0 6 3 -1 5 -18 5 -16 0 -22 -2 -12 -5z"/>
<path d="M758 1166 c-25 -6 -50 -15 -55 -20 -5 -5 0 -6 10 -3 10 4 36 10 58
13 22 4 42 11 45 15 6 10 4 10 -58 -5z"/>
<path d="M505 1134 c-26 -13 -27 -14 -5 -9 14 3 36 8 49 12 17 4 22 2 17 -6
-4 -6 -16 -11 -27 -11 -18 0 -19 -2 -5 -15 17 -18 61 -21 50 -4 -5 8 3 10 27
7 19 -3 42 -1 52 4 10 5 24 5 35 -1 14 -8 19 -6 19 5 0 7 -5 15 -11 15 -6 1
-27 2 -46 3 -19 2 -55 6 -80 9 -31 5 -54 2 -75 -9z m112 -10 c-3 -3 -12 -4
-19 -1 -8 3 -5 6 6 6 11 1 17 -2 13 -5z"/>
<path d="M154 1108 c-12 -19 -54 -27 -103 -19 -38 6 -51 5 -51 -4 0 -7 8 -16
18 -20 16 -6 16 -7 -1 -20 -13 -9 -17 -23 -15 -42 4 -25 5 -26 13 -9 16 36 45
56 100 71 54 14 125 10 125 -6 0 -5 5 -9 10 -9 6 0 10 7 10 15 0 8 9 15 20 15
11 0 20 5 20 10 0 6 5 10 11 10 6 0 9 -8 6 -19 -4 -17 -3 -17 26 -3 27 13 28
16 11 25 -23 13 -193 17 -200 5z m-77 -44 c-3 -3 -12 -4 -19 -1 -8 3 -5 6 6 6
11 1 17 -2 13 -5z"/>
<path d="M1425 1109 c-4 -6 -4 -13 -1 -16 3 -4 6 -1 6 5 0 9 6 9 25 0 13 -6
22 -15 19 -19 -3 -5 0 -9 5 -9 15 0 14 19 -3 36 -17 17 -42 18 -51 3z"/>
<path d="M1496 1105 c4 -8 12 -15 20 -15 8 0 14 -4 14 -10 0 -5 7 -10 16 -10
10 0 14 6 11 14 -3 8 -1 17 6 19 7 2 2 2 -10 0 -13 -2 -23 1 -23 7 0 5 -9 10
-20 10 -13 0 -18 -5 -14 -15z"/>
<path d="M1830 1111 c0 -5 7 -11 14 -14 10 -4 13 -1 9 9 -6 15 -23 19 -23 5z"/>
<path d="M458 1103 c7 -3 16 -2 19 1 4 3 -2 6 -13 5 -11 0 -14 -3 -6 -6z"/>
<path d="M2113 1095 c-18 -8 -33 -19 -33 -26 0 -8 5 -7 16 2 9 8 22 14 28 15
6 0 19 2 29 2 19 2 24 22 5 22 -7 -1 -28 -7 -45 -15z"/>
<path d="M2205 1100 c3 -5 8 -10 11 -10 2 0 4 5 4 10 0 6 -5 10 -11 10 -5 0
-7 -4 -4 -10z"/>
<path d="M2608 1093 c-9 -12 -9 -16 3 -24 8 -5 12 -9 9 -10 -3 0 -18 -2 -35
-4 -16 -1 -39 -5 -50 -8 -11 -2 -32 4 -48 15 -15 11 -37 18 -50 16 -21 -4 -21
-5 6 -18 15 -7 27 -19 27 -26 0 -7 8 -10 20 -7 16 4 20 1 17 -17 -2 -13 -12
-29 -22 -36 -16 -12 -21 -11 -37 6 -21 22 -33 27 -22 8 6 -10 5 -10 -8 -1 -8
7 -18 10 -22 6 -3 -4 -12 2 -20 12 -9 13 -15 15 -20 6 -6 -9 -11 -9 -22 0 -8
6 -14 8 -14 5 0 -4 -7 0 -16 9 -9 9 -15 17 -13 19 38 29 53 33 82 25 17 -5 33
-7 35 -5 3 4 -92 36 -105 36 -1 0 0 -8 3 -17 5 -15 3 -15 -11 2 l-17 20 6 -20
c3 -11 1 -27 -4 -35 -8 -13 -10 -12 -10 3 0 14 -7 17 -35 14 -19 -3 -35 0 -35
5 0 5 -5 8 -11 6 -18 -6 -11 -23 13 -29 13 -3 31 -2 42 4 14 7 17 6 14 -5 -3
-9 -21 -13 -53 -12 -27 1 -53 -2 -59 -7 -78 -63 -74 -61 -128 -55 -29 2 -54 9
-56 15 -2 5 -11 7 -20 4 -9 -3 -14 -3 -10 2 12 13 -19 35 -54 36 -18 1 -25 3
-15 6 23 6 22 28 -3 30 -26 2 -28 -3 -31 -69 -2 -52 -4 -57 -28 -61 -14 -3
-33 0 -43 7 -24 17 -77 8 -91 -15 -7 -11 -15 -19 -20 -19 -4 0 -5 5 -1 12 5 7
0 9 -14 6 -13 -4 -23 0 -26 9 -4 10 -14 13 -27 10 -16 -4 -19 -2 -14 14 4 13
2 19 -9 19 -9 0 -16 -5 -16 -10 0 -6 -6 -6 -13 2 -8 7 -12 22 -10 33 3 20 3
20 -6 0 -5 -12 -5 -27 1 -38 5 -9 6 -21 4 -26 -3 -5 1 -12 10 -15 11 -4 15
-14 12 -31 -3 -14 -1 -25 4 -25 5 0 6 -4 3 -10 -3 -5 0 -10 7 -10 11 0 11 -2
0 -9 -10 -6 -10 -10 3 -21 13 -11 15 -10 10 1 -2 8 -1 20 4 28 11 17 30 7 65
-36 22 -27 25 -35 16 -58 -6 -15 -9 -30 -6 -32 2 -3 7 5 11 16 9 29 33 26 45
-4 5 -14 15 -25 21 -25 8 0 7 5 -2 17 -13 15 -12 15 8 4 18 -9 21 -17 16 -43
-4 -22 -3 -29 6 -24 6 4 9 12 6 17 -9 14 36 27 65 19 19 -5 25 -13 25 -33 -1
-15 3 -27 7 -27 4 0 8 9 8 20 0 27 20 34 77 25 33 -5 42 -9 32 -16 -9 -5 -2
-7 21 -3 54 7 95 -8 97 -37 2 -41 5 -45 12 -14 6 28 9 30 46 27 68 -5 75 -10
77 -50 l1 -37 4 33 c3 24 11 36 31 43 34 13 88 8 85 -8 -2 -9 4 -10 21 -3 19
7 26 5 30 -6 4 -11 1 -14 -12 -10 -16 5 -18 2 -14 -26 2 -18 9 -38 14 -45 5
-7 7 -17 3 -23 -4 -7 2 -9 19 -4 20 5 26 2 26 -10 0 -9 5 -16 11 -16 6 0 8 9
4 20 -4 11 -2 20 4 20 6 0 11 13 11 28 0 49 43 70 71 35 13 -15 12 -16 -8 -11
-13 4 -23 2 -23 -3 0 -5 7 -9 15 -9 8 0 17 -15 21 -37 l8 -38 11 40 c12 39 14
40 50 37 39 -3 109 -33 120 -52 4 -6 12 -7 18 -3 9 5 9 3 1 -8 -5 -8 -10 -21
-9 -29 1 -8 -2 -25 -7 -38 -5 -15 -4 -21 2 -17 6 3 10 1 10 -4 0 -6 -5 -11
-10 -11 -6 0 -5 -8 2 -20 11 -17 10 -22 0 -29 -11 -7 -10 -10 3 -15 23 -8 27
-8 20 4 -9 14 -9 82 0 108 9 29 17 28 81 -13 30 -19 56 -35 59 -35 2 0 4 124
4 275 0 233 -2 275 -15 275 -7 0 -14 5 -14 10 0 6 7 10 17 10 9 0 14 2 11 5
-3 3 -19 2 -36 -1 l-31 -6 2 -79 c2 -70 0 -79 -18 -83 -10 -3 -22 -1 -26 5 -3
6 -12 9 -20 8 -25 -5 -84 27 -98 53 -9 19 -19 24 -34 20 -12 -3 -18 -1 -14 5
3 5 2 23 -3 39 -7 24 -8 25 -9 7 -1 -25 -26 -31 -34 -9 -3 8 -14 13 -24 12
-26 -5 -36 4 -22 20 8 10 8 14 0 14 -6 0 -11 5 -11 10 0 6 6 9 13 8 6 -2 11 3
10 10 -2 6 6 12 17 12 11 0 20 -5 20 -11 0 -6 5 -7 13 -2 6 4 20 6 31 4 10 -1
15 2 12 7 -4 6 -2 14 4 17 7 4 7 11 2 18 -12 15 -11 47 0 47 5 0 7 -8 4 -17
-5 -16 3 -18 60 -21 66 -3 66 -3 51 18 -12 17 -27 22 -76 25 -44 2 -64 -1 -73
-12z m-373 -103 c3 -5 2 -10 -4 -10 -5 0 -13 5 -16 10 -3 6 -2 10 4 10 5 0 13
-4 16 -10z m-55 -20 c0 -5 11 -10 24 -10 14 0 28 -4 31 -10 10 -16 35 -12 29
5 -4 8 -1 15 4 15 16 0 24 -18 12 -25 -21 -13 -9 -26 22 -23 20 2 33 -2 36
-11 3 -8 0 -11 -5 -8 -6 4 -23 -5 -39 -20 -16 -15 -38 -29 -49 -30 -10 -2 -23
-9 -27 -16 -6 -9 -13 -6 -27 11 -11 12 -23 22 -28 22 -5 0 -19 7 -31 16 -19
13 -21 18 -11 31 10 12 10 17 -2 25 -11 8 -11 9 4 4 9 -3 17 -1 17 5 0 6 4 7
10 4 6 -3 7 1 4 9 -4 11 0 16 10 16 9 0 16 -4 16 -10z m247 -89 c3 -11 11 -22
19 -25 23 -9 16 -21 -13 -22 -16 0 -43 -4 -60 -8 -21 -5 -33 -4 -33 3 0 6 7 8
16 4 13 -5 15 -2 9 16 -3 12 -3 21 2 20 23 -4 35 2 29 16 -3 9 0 15 10 15 9 0
18 -9 21 -19z m-422 -9 c3 -7 1 -11 -3 -8 -5 3 -21 7 -36 10 -43 8 -44 17 -3
14 20 -2 39 -9 42 -16z m476 1 c3 1 2 -2 -2 -6 -7 -10 -39 2 -39 14 0 6 8 6
19 0 10 -6 20 -9 22 -8z m-593 -9 c14 -15 14 -16 -3 -13 -10 2 -20 10 -23 17
-5 17 6 15 26 -4z m169 -36 c-3 -7 -5 -2 -5 12 0 14 2 19 5 13 2 -7 2 -19 0
-25z m673 -35 c0 -10 -4 -14 -8 -8 -4 6 -11 13 -16 18 -5 4 -2 7 7 7 10 0 17
-8 17 -17z m-420 -57 c0 -2 -7 -7 -16 -10 -8 -3 -12 -2 -9 4 6 10 25 14 25 6z
m140 -92 c0 -8 -19 -13 -24 -6 -3 5 1 9 9 9 8 0 15 -2 15 -3z m30 -15 c0 -5
-4 -7 -10 -4 -5 3 -10 1 -10 -6 0 -7 -3 -10 -6 -6 -8 7 4 27 17 27 5 0 9 -5 9
-11z m-55 -79 c3 -5 1 -10 -4 -10 -6 0 -11 5 -11 10 0 6 2 10 4 10 3 0 8 -4
11 -10z"/>
<path d="M2140 916 c0 -4 7 -14 15 -22 8 -9 15 -11 15 -6 0 5 -7 15 -15 22 -8
7 -15 9 -15 6z"/>
<path d="M1600 1085 c0 -8 5 -15 10 -15 6 0 10 7 10 15 0 8 -4 15 -10 15 -5 0
-10 -7 -10 -15z"/>
<path d="M1681 1084 c0 -11 3 -14 6 -6 3 7 2 16 -1 19 -3 4 -6 -2 -5 -13z"/>
<path d="M1722 1080 c0 -14 2 -19 5 -12 2 6 2 18 0 25 -3 6 -5 1 -5 -13z"/>
<path d="M1762 1070 c0 -19 2 -27 5 -17 2 9 2 25 0 35 -3 9 -5 1 -5 -18z"/>
<path d="M1786 1085 c-9 -23 -8 -25 9 -25 17 0 19 9 6 28 -7 11 -10 10 -15 -3z"/>
<path d="M1880 1089 c0 -5 5 -7 10 -4 6 3 10 8 10 11 0 2 -4 4 -10 4 -5 0 -10
-5 -10 -11z"/>
<path d="M1208 1073 c7 -3 16 -2 19 1 4 3 -2 6 -13 5 -11 0 -14 -3 -6 -6z"/>
<path d="M1511 1064 c0 -11 3 -14 6 -6 3 7 2 16 -1 19 -3 4 -6 -2 -5 -13z"/>
<path d="M480 1060 c0 -5 5 -10 11 -10 5 0 7 5 4 10 -3 6 -8 10 -11 10 -2 0
-4 -4 -4 -10z"/>
<path d="M1983 1058 c-2 -5 3 -8 12 -8 9 0 14 -4 11 -9 -4 -5 5 -4 19 2 14 7
25 14 25 17 0 8 -61 6 -67 -2z"/>
<path d="M2057 1051 c-4 -17 -3 -21 5 -13 5 5 8 16 6 23 -3 8 -7 3 -11 -10z"/>
<path d="M1240 1051 c0 -14 21 -25 50 -28 24 -2 24 -2 -2 8 -16 6 -28 15 -28
20 0 5 -4 9 -10 9 -5 0 -10 -4 -10 -9z"/>
<path d="M1440 1051 c0 -6 5 -13 11 -17 6 -3 9 -14 6 -23 -2 -10 2 -17 12 -18
10 -1 17 7 17 23 1 15 -4 24 -12 24 -8 0 -14 5 -14 10 0 6 -4 10 -10 10 -5 0
-10 -4 -10 -9z"/>
<path d="M1331 1034 c0 -11 3 -14 6 -6 3 7 2 16 -1 19 -3 4 -6 -2 -5 -13z"/>
<path d="M1782 1020 c0 -19 2 -27 5 -17 2 9 2 25 0 35 -3 9 -5 1 -5 -18z"/>
<path d="M2325 1040 c-8 -13 5 -13 25 0 13 8 13 10 -2 10 -9 0 -20 -4 -23 -10z"/>
<path d="M2377 1029 c7 -7 15 -10 18 -7 3 3 -2 9 -12 12 -14 6 -15 5 -6 -5z"/>
<path d="M2668 1033 c7 -3 16 -2 19 1 4 3 -2 6 -13 5 -11 0 -14 -3 -6 -6z"/>
<path d="M2708 1033 c7 -3 16 -2 19 1 4 3 -2 6 -13 5 -11 0 -14 -3 -6 -6z"/>
<path d="M2784 1028 c-3 -4 4 -8 15 -8 12 0 23 0 26 0 3 0 4 3 3 7 -4 10 -38
11 -44 1z"/>
<path d="M300 1000 c0 -5 5 -10 10 -10 6 0 10 5 10 10 0 6 -4 10 -10 10 -5 0
-10 -4 -10 -10z"/>
<path d="M1237 1004 c-3 -5 1 -15 9 -22 16 -14 18 -5 5 17 -5 7 -11 9 -14 5z"/>
<path d="M1411 974 c0 -11 3 -14 6 -6 3 7 2 16 -1 19 -3 4 -6 -2 -5 -13z"/>
<path d="M1595 980 c3 -5 8 -10 11 -10 2 0 4 5 4 10 0 6 -5 10 -11 10 -5 0 -7
-4 -4 -10z"/>
<path d="M100 930 c0 -5 5 -10 10 -10 6 0 10 5 10 10 0 6 -4 10 -10 10 -5 0
-10 -4 -10 -10z"/>
<path d="M1280 920 c0 -11 2 -20 4 -20 2 0 6 9 9 20 3 11 1 20 -4 20 -5 0 -9
-9 -9 -20z"/>
<path d="M58 913 c6 -2 18 -2 25 0 6 3 1 5 -13 5 -14 0 -19 -2 -12 -5z"/>
<path d="M1220 884 c0 -8 5 -12 10 -9 6 4 8 11 5 16 -9 14 -15 11 -15 -7z"/>
<path d="M1321 874 c0 -11 3 -14 6 -6 3 7 2 16 -1 19 -3 4 -6 -2 -5 -13z"/>
<path d="M1492 850 c0 -14 2 -19 5 -12 2 6 2 18 0 25 -3 6 -5 1 -5 -13z"/>
<path d="M1350 841 c0 -6 4 -13 10 -16 6 -3 7 1 4 9 -7 18 -14 21 -14 7z"/>
<path d="M1580 841 c0 -6 4 -13 10 -16 6 -3 7 1 4 9 -7 18 -14 21 -14 7z"/>
<path d="M1591 793 c-1 -6 -4 -20 -7 -30 -5 -17 -5 -17 6 0 6 10 9 23 6 30 -3
9 -5 9 -5 0z"/>
<path d="M1618 783 c7 -3 16 -2 19 1 4 3 -2 6 -13 5 -11 0 -14 -3 -6 -6z"/>
<path d="M1395 770 c3 -5 8 -10 11 -10 2 0 4 5 4 10 0 6 -5 10 -11 10 -5 0 -7
-4 -4 -10z"/>
<path d="M452 743 c6 -7 14 -10 19 -7 15 9 10 20 -10 20 -15 0 -17 -3 -9 -13z"/>
<path d="M1316 735 c-3 -8 -1 -15 4 -15 6 0 10 7 10 15 0 8 -2 15 -4 15 -2 0
-6 -7 -10 -15z"/>
<path d="M1670 740 c0 -5 5 -10 11 -10 5 0 7 5 4 10 -3 6 -8 10 -11 10 -2 0
-4 -4 -4 -10z"/>
<path d="M1430 736 c0 -2 8 -10 18 -17 15 -13 16 -12 3 4 -13 16 -21 21 -21
13z"/>
<path d="M1581 724 c0 -11 3 -14 6 -6 3 7 2 16 -1 19 -3 4 -6 -2 -5 -13z"/>
<path d="M1470 680 c20 -13 33 -13 25 0 -3 6 -14 10 -23 10 -15 0 -15 -2 -2
-10z"/>
<path d="M1680 666 c0 -8 4 -17 9 -20 5 -4 7 3 4 14 -6 23 -13 26 -13 6z"/>
<path d="M235 662 c9 -9 65 -11 65 -2 0 4 -16 8 -36 8 -19 0 -33 -3 -29 -6z"/>
<path d="M1510 661 c0 -6 5 -13 10 -16 6 -4 8 -11 5 -16 -4 -5 0 -9 7 -9 8 0
6 -5 -4 -11 -24 -13 -23 -31 2 -47 12 -7 18 -17 15 -22 -3 -6 1 -10 10 -10 10
0 13 5 9 11 -5 8 1 10 19 5 14 -3 29 -2 32 4 3 5 0 10 -7 11 -7 0 -4 4 7 9 19
8 19 9 -2 9 -21 1 -22 5 -18 41 4 33 2 40 -12 40 -15 0 -16 -2 -3 -10 12 -8 9
-10 -12 -10 -18 0 -28 5 -28 15 0 8 -7 15 -15 15 -8 0 -15 -4 -15 -9z"/>
<path d="M1610 625 c0 -8 4 -15 9 -15 5 0 11 7 15 15 3 9 0 15 -9 15 -8 0 -15
-7 -15 -15z"/>
<path d="M1656 631 c-4 -6 3 -15 16 -22 16 -9 23 -9 26 -1 2 8 7 8 16 -1 8 -6
11 -17 9 -24 -3 -8 3 -10 18 -6 17 5 20 3 14 -7 -5 -9 -4 -11 4 -6 6 4 9 12 6
17 -4 5 6 8 21 7 14 -2 29 -8 31 -15 8 -19 35 -16 31 4 -2 9 -16 20 -33 25
-36 9 -95 20 -115 20 -8 1 -20 5 -27 10 -7 5 -14 5 -17 -1z"/>
<path d="M2140 619 c0 -5 5 -7 10 -4 6 3 10 8 10 11 0 2 -4 4 -10 4 -5 0 -10
-5 -10 -11z"/>
<path d="M1943 598 c2 -12 9 -24 15 -26 6 -2 9 5 7 15 -2 10 -4 21 -4 26 -1 4
-5 7 -11 7 -5 0 -8 -10 -7 -22z"/>
<path d="M130 586 c0 -2 7 -6 15 -10 8 -3 15 -1 15 4 0 6 -7 10 -15 10 -8 0
-15 -2 -15 -4z"/>
<path d="M1863 573 c-3 -10 -8 -21 -10 -25 -2 -5 0 -8 6 -8 5 0 12 10 14 23
l4 22 8 -23 c4 -12 17 -24 29 -26 45 -7 86 -5 86 6 0 6 9 3 20 -7 21 -19 38
-25 78 -27 12 0 22 -4 22 -9 0 -5 15 -7 33 -6 30 3 81 -21 99 -48 5 -6 8 -6 8
2 0 7 -8 17 -17 22 -17 10 -17 10 -1 11 11 0 21 -12 27 -32 5 -18 10 -25 10
-15 1 17 31 25 31 8 0 -5 12 -11 28 -13 19 -2 27 -8 25 -21 0 -12 4 -16 12
-13 8 3 15 2 17 -2 2 -4 30 -21 63 -39 33 -17 61 -35 62 -40 5 -13 -35 -14
-43 -1 -5 7 -2 8 7 3 11 -6 11 -5 2 5 -16 18 -38 3 -22 -16 9 -11 8 -14 -4
-14 -9 0 -18 8 -20 18 -4 16 -5 16 -6 0 -1 -21 -27 -24 -34 -5 -4 9 -6 9 -6
-1 -1 -15 23 -42 37 -42 6 0 13 6 15 13 4 9 6 9 6 0 1 -15 31 -18 31 -3 0 5 7
7 15 4 8 -4 15 -1 15 6 0 9 3 10 13 1 8 -6 24 -9 38 -6 23 4 23 3 5 -10 -10
-8 -24 -17 -30 -20 -8 -4 -8 -6 0 -10 32 -16 43 -34 48 -75 3 -25 5 -46 5 -47
1 -2 9 -3 19 -4 10 0 12 -3 5 -6 -19 -7 -16 -23 5 -23 10 0 27 -7 38 -15 15
-12 16 -16 5 -24 -8 -5 -10 -14 -5 -22 10 -17 -24 6 -43 30 -11 13 -13 13 -13
-1 0 -9 -3 -23 -6 -32 -5 -14 10 -16 137 -15 79 1 131 4 114 6 -44 7 -53 21
-20 33 31 12 48 4 25 -10 -12 -8 -10 -10 8 -10 12 0 22 -4 22 -10 0 -5 5 -10
10 -10 6 0 10 23 10 50 0 45 -2 50 -22 51 -13 0 -18 3 -11 5 13 6 6 34 -9 34
-5 0 -6 -4 -3 -10 4 -6 -5 -9 -19 -8 -15 1 -26 7 -26 13 0 5 -30 26 -68 45
-37 19 -80 47 -95 62 -16 15 -46 41 -67 58 -62 51 -95 83 -95 93 0 6 -9 11
-19 13 -11 1 -32 12 -47 23 -16 12 -30 21 -33 21 -2 0 -38 16 -78 35 -63 29
-81 34 -122 29 -45 -6 -47 -5 -43 17 2 13 2 19 0 12 -3 -8 -14 -9 -36 -2 -18
5 -44 9 -59 9 -15 0 -33 6 -40 14 -11 12 -17 12 -40 0 -24 -13 -28 -13 -28 0
0 13 -28 26 -58 26 -7 0 -15 -8 -19 -17z m737 -332 c13 -25 13 -31 -1 -31 -5
0 -7 5 -4 10 6 9 -8 14 -27 11 -10 -1 -10 13 -1 22 11 12 22 8 33 -12z m48
-31 c3 -7 0 -10 -6 -6 -6 3 -12 0 -15 -6 -3 -7 -4 -3 -4 10 1 23 18 25 25 2z
m28 -19 c-4 -5 0 -11 6 -14 22 -7 4 -17 -20 -10 -21 5 -21 6 -5 19 21 16 26
17 19 5z m67 -37 c-7 -3 -10 -11 -7 -18 3 -8 -2 -16 -11 -20 -11 -4 -14 -2 -8
7 4 6 8 15 9 20 1 4 2 9 3 12 0 3 7 5 14 4 9 0 9 -2 0 -5z m-116 -10 c-3 -3
-12 -4 -19 -1 -8 3 -5 6 6 6 11 1 17 -2 13 -5z m163 -34 c0 -5 -4 -10 -9 -10
-6 0 -13 5 -16 10 -3 6 1 10 9 10 9 0 16 -4 16 -10z m-50 -9 c0 -5 -7 -12 -16
-15 -14 -5 -15 -4 -4 9 14 17 20 19 20 6z m105 -1 c3 -6 -1 -7 -9 -4 -18 7
-21 14 -7 14 6 0 13 -4 16 -10z m-185 -4 c0 -3 -4 -8 -10 -11 -5 -3 -10 -1
-10 4 0 6 5 11 10 11 6 0 10 -2 10 -4z m130 -21 c0 -3 -9 -5 -20 -5 -11 0 -20
7 -20 15 0 13 4 14 20 5 11 -6 20 -13 20 -15z m-3 -21 c-3 -3 -12 -4 -19 -1
-8 3 -5 6 6 6 11 1 17 -2 13 -5z"/>
<path d="M1672 572 c-9 -6 -6 -12 13 -20 15 -7 25 -8 25 -2 0 6 -7 10 -16 10
-8 0 -12 5 -9 10 7 12 4 12 -13 2z"/>
<path d="M1765 540 c-3 -5 -1 -10 4 -10 6 0 11 5 11 10 0 6 -2 10 -4 10 -3 0
-8 -4 -11 -10z"/>
<path d="M2277 530 c3 -11 7 -20 9 -20 2 0 4 9 4 20 0 11 -4 20 -9 20 -5 0 -7
-9 -4 -20z"/>
<path d="M2606 523 c8 -34 14 -42 14 -20 0 8 3 22 6 31 4 11 1 16 -10 16 -13
0 -15 -6 -10 -27z"/>
<path d="M2636 524 c-9 -23 -7 -36 3 -30 12 8 21 46 11 46 -4 0 -11 -7 -14
-16z"/>
<path d="M1933 503 c21 -5 58 -39 51 -46 -3 -2 2 -7 10 -10 11 -4 13 -1 9 10
-4 11 -2 14 5 9 7 -4 12 -2 12 3 0 6 -7 11 -15 11 -8 0 -15 7 -15 15 0 11 -10
15 -37 14 -21 -1 -30 -3 -20 -6z"/>
<path d="M2683 495 c0 -7 6 -11 14 -8 7 3 13 6 13 8 0 2 -6 5 -13 8 -8 3 -14
-1 -14 -8z"/>
<path d="M2145 470 c-3 -5 1 -10 10 -10 9 0 13 5 10 10 -3 6 -8 10 -10 10 -2
0 -7 -4 -10 -10z"/>
<path d="M2535 461 c-3 -5 -2 -12 3 -15 5 -3 9 1 9 9 0 17 -3 19 -12 6z"/>
<path d="M2594 454 c-10 -8 -13 -12 -5 -8 9 4 12 2 9 -7 -3 -8 -11 -13 -17
-11 -7 1 -10 -2 -6 -8 3 -5 15 -10 26 -10 10 0 19 -6 19 -12 1 -9 5 -8 13 3 7
9 19 14 27 12 13 -4 13 -3 1 5 -8 6 -20 8 -26 6 -16 -6 -27 33 -11 40 7 3 7 5
0 5 -5 1 -19 -6 -30 -15z"/>
<path d="M2787 439 c12 -12 25 -20 28 -17 3 3 -7 13 -22 23 l-28 17 22 -23z"/>
<path d="M1838 443 c7 -3 16 -2 19 1 4 3 -2 6 -13 5 -11 0 -14 -3 -6 -6z"/>
<path d="M2070 440 c-9 -6 -10 -10 -3 -10 6 0 15 5 18 10 8 12 4 12 -15 0z"/>
<path d="M2218 443 c7 -3 16 -2 19 1 4 3 -2 6 -13 5 -11 0 -14 -3 -6 -6z"/>
<path d="M1856 418 c5 -8 2 -9 -10 -5 -10 4 -15 3 -11 -3 8 -12 45 -13 45 -1
0 5 -7 12 -16 15 -10 4 -13 2 -8 -6z"/>
<path d="M2806 397 c3 -10 9 -15 12 -12 3 3 0 11 -7 18 -10 9 -11 8 -5 -6z"/>
<path d="M2840 400 c20 -13 33 -13 25 0 -3 6 -14 10 -23 10 -15 0 -15 -2 -2
-10z"/>
<path d="M2686 385 c-3 -8 -1 -17 3 -20 5 -3 11 2 15 10 3 8 1 17 -3 20 -5 3
-11 -2 -15 -10z"/>
<path d="M1581 380 c-8 -4 -12 -17 -8 -28 2 -12 0 -23 -7 -26 -7 -3 -7 -5 2
-5 6 -1 12 -8 12 -16 0 -8 5 -15 10 -15 14 0 13 47 -2 56 -8 5 -7 9 5 13 9 4
13 11 9 18 -5 7 -13 9 -21 3z"/>
<path d="M2075 373 c-11 -7 -12 -13 -6 -18 6 -3 11 -1 11 4 0 6 8 11 18 11 9
0 23 4 31 9 10 7 7 9 -12 8 -15 -1 -34 -7 -42 -14z"/>
<path d="M2316 378 c3 -5 10 -6 15 -3 13 9 11 12 -6 12 -8 0 -12 -4 -9 -9z"/>
<path d="M2886 377 c3 -10 9 -15 12 -12 3 3 0 11 -7 18 -10 9 -11 8 -5 -6z"/>
<path d="M2176 367 c3 -10 9 -15 12 -12 3 3 0 11 -7 18 -10 9 -11 8 -5 -6z"/>
<path d="M2235 371 c3 -5 -1 -11 -7 -14 -7 -2 -10 -7 -7 -11 8 -8 39 3 39 14
0 4 -7 11 -16 14 -8 3 -13 2 -9 -3z"/>
<path d="M2838 371 c15 -9 6 -61 -10 -61 -6 0 -8 6 -5 13 3 8 1 20 -4 28 -7
11 -9 10 -9 -4 0 -10 -3 -16 -7 -14 -5 3 -8 -8 -9 -24 -1 -16 3 -30 7 -30 5
-1 12 -2 17 -3 4 0 17 -11 30 -24 12 -12 27 -20 33 -16 6 3 3 11 -8 19 -17 13
-16 14 7 9 24 -4 24 -4 3 5 -25 11 -30 26 -13 36 8 5 7 12 -2 23 -10 12 -10
16 -1 19 16 6 -9 33 -29 33 -11 0 -11 -2 0 -9z m19 -63 c-3 -8 -6 -5 -6 6 -1
11 2 17 5 13 3 -3 4 -12 1 -19z m-7 -23 c8 -9 9 -15 2 -15 -6 0 -14 5 -17 10
-4 6 -11 7 -17 4 -7 -4 -8 -2 -4 4 10 16 21 15 36 -3z"/>
<path d="M2137 363 c-21 -20 14 -74 41 -65 7 2 15 -3 18 -12 8 -22 23 -20 17
2 -2 10 -13 19 -24 19 -30 3 -52 24 -39 37 5 5 10 14 10 18 0 10 -14 11 -23 1z"/>
<path d="M2410 338 c0 -6 -14 -8 -37 -4 -32 5 -34 4 -14 -4 24 -10 91 -4 91 9
0 4 -9 7 -20 8 -11 1 -20 -3 -20 -9z"/>
<path d="M1804 326 c-4 -9 0 -24 7 -33 10 -12 10 -15 2 -9 -9 5 -13 0 -14 -16
-1 -23 -1 -23 -9 2 l-8 25 -1 -26 c-1 -14 4 -30 10 -36 8 -8 5 -13 -9 -18 -20
-6 -20 -7 -4 -26 17 -19 48 -27 37 -9 -3 6 -3 15 1 21 12 20 16 127 4 134 -5
3 -13 -1 -16 -9z"/>
<path d="M2185 330 c3 -5 8 -10 11 -10 2 0 4 5 4 10 0 6 -5 10 -11 10 -5 0 -7
-4 -4 -10z"/>
<path d="M1888 291 c0 -20 -1 -53 -2 -73 0 -21 -4 -38 -9 -38 -5 0 -4 -7 3
-15 10 -12 9 -15 -6 -15 -16 0 -15 -3 6 -17 14 -10 28 -17 33 -15 4 1 7 -3 7
-8 0 -6 4 -10 10 -10 6 0 10 34 9 83 0 45 4 95 10 110 15 38 16 37 -24 35 -33
-1 -35 -3 -37 -37z"/>
<path d="M2230 320 c0 -5 5 -10 10 -10 6 0 10 5 10 10 0 6 -4 10 -10 10 -5 0
-10 -4 -10 -10z"/>
<path d="M2293 283 c-1 -19 1 -22 8 -12 11 17 12 39 2 39 -5 0 -9 -12 -10 -27z"/>
<path d="M1660 271 c0 -17 2 -31 4 -31 8 0 13 51 5 56 -5 3 -9 -9 -9 -25z"/>
<path d="M2260 270 c0 -5 5 -10 10 -10 6 0 10 5 10 10 0 6 -4 10 -10 10 -5 0
-10 -4 -10 -10z"/>
<path d="M1570 255 c6 -8 9 -19 5 -25 -4 -6 5 -10 20 -10 l27 0 -23 25 c-25
26 -50 35 -29 10z"/>
<path d="M2381 250 c-1 -34 13 -54 33 -47 9 4 16 2 16 -4 0 -6 7 -9 15 -5 8 3
15 0 15 -5 0 -7 -11 -9 -27 -6 -24 4 -25 4 -10 -7 9 -7 13 -16 9 -20 -4 -4 7
-5 23 -1 23 5 26 4 15 -4 -8 -6 -10 -11 -4 -11 19 0 24 12 13 32 -8 14 -6 23
7 36 17 16 18 16 11 -2 -5 -13 -3 -17 7 -13 10 4 12 0 9 -14 -4 -13 0 -19 11
-19 14 0 18 6 15 26 0 4 5 11 13 15 10 7 10 9 0 9 -7 0 -22 9 -34 20 -16 15
-34 20 -72 19 -49 -2 -49 -2 -13 -8 35 -6 48 -23 19 -27 -6 -1 -10 2 -6 7 8
13 -20 11 -34 -3 -12 -12 -16 -7 -25 37 -4 16 -5 15 -6 -5z"/>
<path d="M2510 260 c0 -5 5 -10 10 -10 6 0 10 5 10 10 0 6 -4 10 -10 10 -5 0
-10 -4 -10 -10z"/>
<path d="M2284 239 c-3 -6 -2 -15 3 -20 5 -5 9 -1 10 11 2 22 -2 25 -13 9z"/>
<path d="M1630 212 c0 -10 7 -19 15 -19 8 0 15 2 15 4 0 3 -7 11 -15 19 -13
14 -15 13 -15 -4z"/>
<path d="M2248 183 c6 -2 18 -2 25 0 6 3 1 5 -13 5 -14 0 -19 -2 -12 -5z"/>
<path d="M1711 163 c7 -10 15 -20 16 -22 2 -2 3 3 3 11 0 9 -7 19 -16 22 -15
6 -15 4 -3 -11z"/>
<path d="M1740 155 c0 -8 5 -15 10 -15 6 0 10 7 10 15 0 8 -4 15 -10 15 -5 0
-10 -7 -10 -15z"/>
<path d="M2305 150 c-13 -6 -15 -9 -5 -9 8 0 22 4 30 9 18 12 2 12 -25 0z"/>
<path d="M2218 143 c7 -3 16 -2 19 1 4 3 -2 6 -13 5 -11 0 -14 -3 -6 -6z"/>
<path d="M2505 140 c3 -5 11 -10 16 -10 6 0 7 5 4 10 -3 6 -11 10 -16 10 -6 0
-7 -4 -4 -10z"/>
<path d="M2401 129 c0 -9 6 -22 14 -29 8 -7 15 -21 15 -31 0 -22 15 -25 27 -5
4 7 15 16 23 19 12 4 11 6 -2 6 -21 1 -24 17 -5 24 15 5 8 13 -22 22 -15 4
-21 3 -17 -3 3 -5 -1 -12 -8 -15 -9 -4 -17 1 -19 11 -4 15 -5 15 -6 1z"/>
<path d="M1800 100 c13 -9 13 -11 0 -20 -8 -5 -10 -10 -5 -10 6 0 17 5 25 10
13 9 13 11 0 20 -8 5 -19 10 -25 10 -5 0 -3 -5 5 -10z"/>
<path d="M2368 93 c6 -2 18 -2 25 0 6 3 1 5 -13 5 -14 0 -19 -2 -12 -5z"/>
<path d="M2364 68 c3 -17 38 -17 44 0 2 6 -1 12 -8 12 -6 0 -8 -4 -5 -10 3 -5
0 -10 -9 -10 -8 0 -17 5 -19 10 -3 6 -4 5 -3 -2z"/>
<path d="M2228 60 c18 -8 21 -15 16 -37 -4 -22 -3 -25 5 -13 23 32 6 61 -32
59 -7 0 -2 -4 11 -9z"/>
<path d="M2472 51 c-23 -19 -30 -51 -11 -51 6 0 9 7 5 15 -6 18 5 20 21 4 9
-9 10 -6 6 11 -4 13 0 25 8 31 8 5 9 9 3 9 -6 0 -21 -8 -32 -19z"/>
<path d="M2270 44 c0 -8 5 -12 10 -9 6 3 10 10 10 16 0 5 -4 9 -10 9 -5 0 -10
-7 -10 -16z"/>
<path d="M2299 32 c-3 -20 -2 -29 4 -23 5 5 7 19 5 32 -3 20 -5 19 -9 -9z"/>
<path d="M2572 55 c5 -5 -2 -15 -13 -23 -20 -14 -20 -16 -4 -24 9 -6 19 -8 21
-5 11 11 12 47 1 53 -7 4 -9 4 -5 -1z"/>
<path d="M2373 33 c9 -2 25 -2 35 0 9 3 1 5 -18 5 -19 0 -27 -2 -17 -5z"/>
<path d="M2130 20 c8 -5 20 -10 25 -10 6 0 3 5 -5 10 -8 5 -19 10 -25 10 -5 0
-3 -5 5 -10z"/>
<path d="M2175 10 c-3 -5 1 -10 9 -10 9 0 16 5 16 10 0 6 -4 10 -9 10 -6 0
-13 -4 -16 -10z"/>
</g>
</svg>
