<?xml version="1.0" standalone="no"?>
<!DOCTYPE svg PUBLIC "-//W3C//DTD SVG 20010904//EN"
 "http://www.w3.org/TR/2001/REC-SVG-20010904/DTD/svg10.dtd">
<svg version="1.0" xmlns="http://www.w3.org/2000/svg"
 width="259.000000pt" height="194.000000pt" viewBox="0 0 259.000000 194.000000"
 preserveAspectRatio="xMidYMid meet">

<g transform="translate(0.000000,194.000000) scale(0.100000,-0.100000)"
fill="#000000" stroke="none">
<path d="M2 1895 c0 -25 4 -45 9 -45 5 0 9 -7 9 -15 0 -12 5 -13 18 -7 9 5 31
7 47 6 l30 -3 -25 15 -25 15 25 -5 c14 -3 33 -6 43 -6 14 0 17 -5 13 -22 -3
-13 -3 -17 0 -10 3 6 10 10 15 6 5 -3 9 -1 9 3 0 13 40 14 64 2 20 -10 21 -10
2 5 -14 12 -16 16 -5 16 24 0 40 -16 33 -33 -7 -20 7 -22 25 -4 7 6 11 8 10 2
-4 -19 13 -44 26 -39 10 4 12 -1 8 -15 -3 -13 -1 -21 6 -21 7 0 9 5 6 10 -8
13 18 13 32 -1 15 -15 58 -7 58 10 0 8 -9 15 -19 17 -45 6 -66 15 -61 24 3 6
-2 10 -12 10 -15 0 -16 2 -3 10 13 8 12 10 -2 10 -10 0 -19 -1 -20 -2 -2 -1
-30 13 -62 31 -42 24 -57 29 -53 17 4 -10 1 -16 -9 -16 -8 0 -13 4 -9 9 3 5 0
13 -6 17 -8 4 -7 9 2 15 12 7 12 10 0 21 -8 8 -11 8 -7 1 11 -19 -111 -30
-130 -11 -3 4 5 6 19 5 14 -1 25 2 24 7 -1 5 -21 10 -44 12 l-42 3 1 -44z m53
-13 c-3 -3 -11 0 -18 7 -9 10 -8 11 6 5 10 -3 15 -9 12 -12z"/>
<path d="M205 1930 c-3 -5 1 -10 10 -10 9 0 13 5 10 10 -3 6 -8 10 -10 10 -2
0 -7 -4 -10 -10z"/>
<path d="M276 1925 c4 -8 12 -15 19 -15 8 0 17 -5 21 -12 4 -7 3 -8 -4 -4 -7
4 -12 1 -12 -9 0 -8 10 -19 23 -24 26 -10 38 -4 17 10 -11 7 -9 8 10 5 14 -2
33 1 44 6 13 7 16 7 11 -2 -4 -7 -1 -11 6 -9 8 1 23 1 34 0 18 -1 19 -2 3 -12
-24 -13 -23 -26 2 -34 11 -3 20 -13 20 -21 0 -8 7 -14 15 -14 8 0 15 8 15 17
0 9 -3 13 -7 10 -9 -9 -32 25 -26 39 3 8 13 3 28 -12 13 -13 35 -26 50 -30 15
-4 24 -12 21 -19 -7 -18 14 -35 44 -34 23 0 23 1 5 9 -21 9 -21 9 8 15 12 2
17 -3 17 -22 0 -13 7 -31 15 -39 13 -14 15 -14 15 0 0 20 36 21 43 2 4 -11 1
-13 -11 -9 -15 6 -14 4 2 -15 15 -17 22 -19 33 -10 8 6 10 14 4 17 -5 4 -3 14
6 26 11 14 14 15 10 3 -6 -17 15 -40 46 -51 21 -8 22 3 3 29 -8 10 -18 15 -22
11 -5 -4 -2 -13 6 -18 13 -9 13 -10 0 -6 -8 2 -15 11 -15 20 0 9 -6 22 -13 29
-6 6 -12 8 -12 3 0 -4 -9 0 -19 9 -12 11 -17 25 -14 34 5 14 3 15 -7 5 -12
-11 -10 -18 8 -43 13 -16 19 -30 15 -30 -14 1 -58 40 -45 40 10 0 10 5 2 20
-6 11 -15 18 -21 15 -5 -4 -7 -10 -4 -15 3 -5 1 -11 -5 -15 -5 -3 -10 0 -10 8
0 8 -13 20 -30 26 -16 5 -30 16 -30 23 0 9 3 9 8 2 11 -17 50 -23 56 -9 2 7
-2 16 -10 19 -8 3 -12 1 -9 -4 3 -6 -1 -7 -9 -4 -9 3 -14 10 -11 14 3 5 -4 6
-15 3 -11 -3 -20 0 -20 6 0 6 -15 18 -32 27 -21 10 -28 11 -20 3 6 -7 12 -17
12 -22 0 -14 -43 -3 -48 12 -3 9 0 11 9 6 8 -5 11 -4 6 1 -5 5 -13 10 -18 10
-5 1 -12 2 -15 3 -4 0 -1 8 6 16 10 13 9 15 -11 15 -13 0 -19 -4 -14 -8 6 -4
11 -16 13 -27 l4 -20 -17 20 c-12 15 -15 16 -12 4 4 -13 1 -15 -14 -12 -16 5
-17 8 -7 21 10 12 6 11 -15 -3 -15 -10 -30 -15 -34 -11 -3 3 -1 6 6 6 7 0 9 5
6 10 -4 6 -1 9 6 8 6 -2 13 3 15 10 1 7 0 8 -3 2 -3 -7 -10 -7 -21 2 -10 9
-13 9 -9 1 5 -8 0 -11 -13 -10 -11 1 -20 4 -20 7 0 3 -16 6 -35 7 -27 2 -33 0
-29 -12z m289 -65 c3 -5 1 -10 -4 -10 -6 0 -11 5 -11 10 0 6 2 10 4 10 3 0 8
-4 11 -10z"/>
<path d="M603 1925 c0 -8 6 -15 14 -15 7 0 13 -6 13 -14 0 -8 7 -17 16 -20 8
-3 12 -11 9 -16 -4 -6 -1 -9 7 -8 7 2 12 -3 10 -10 -1 -8 2 -11 8 -7 6 4 25
-8 44 -27 18 -18 46 -40 62 -48 69 -36 123 -78 108 -84 -8 -3 -12 -2 -9 4 3 6
-1 10 -9 10 -8 0 -18 -5 -21 -11 -4 -5 -17 -9 -28 -8 -37 2 -47 -1 -47 -14 0
-19 -48 -39 -72 -31 -13 4 -18 2 -14 -4 3 -5 -2 -16 -11 -23 -15 -12 -16 -11
-11 9 6 22 -6 31 -17 12 -11 -17 -23 -11 -18 9 3 13 -2 20 -19 25 -17 4 -20 8
-9 15 9 6 10 11 2 15 -6 4 -9 12 -6 17 3 5 -2 6 -11 2 -11 -4 -15 -3 -10 5 3
6 1 14 -5 18 -8 4 -9 3 -5 -4 4 -7 3 -12 -2 -12 -13 0 -69 30 -57 30 6 0 1 6
-9 12 -15 8 -21 8 -24 0 -2 -7 -9 -9 -14 -6 -7 5 -8 2 -4 -5 5 -7 14 -10 22
-7 8 3 17 -1 20 -9 4 -8 10 -12 15 -9 5 3 12 -1 15 -10 3 -8 14 -13 24 -11 10
2 25 -4 32 -13 11 -13 11 -15 -4 -9 -10 3 -20 2 -23 -4 -4 -5 -3 -9 2 -8 13 4
63 -23 63 -33 0 -5 -4 -6 -10 -3 -6 3 -7 -1 -4 -9 4 -11 0 -16 -15 -16 -12 0
-21 4 -21 9 0 11 -68 28 -96 23 -16 -2 -20 -8 -17 -23 5 -17 0 -19 -51 -19
-43 0 -56 4 -56 15 0 9 -6 12 -17 8 -11 -4 -12 -8 -5 -11 7 -2 12 -10 12 -18
0 -8 6 -11 15 -8 8 4 15 1 15 -4 0 -6 12 -13 28 -15 17 -2 10 -5 -20 -6 -38
-1 -46 -4 -43 -18 2 -10 4 -19 5 -20 2 -2 3 -7 4 -11 4 -25 41 -46 79 -43 35
2 45 -3 76 -36 45 -46 87 -83 77 -65 -4 6 -2 12 3 12 6 0 11 -7 11 -15 0 -26
-43 -16 -80 19 -34 33 -103 55 -115 36 -3 -4 -14 -6 -25 -3 -11 3 -20 0 -20
-6 0 -7 19 -10 55 -8 37 2 54 0 52 -7 -2 -6 -12 -10 -21 -8 -10 2 -24 -2 -31
-8 -8 -7 -19 -9 -25 -5 -5 3 -10 -1 -10 -9 0 -8 -8 -19 -17 -25 -17 -9 -17
-10 -1 -16 25 -10 71 -2 76 14 3 10 -2 13 -22 9 -14 -3 -26 -1 -26 3 0 10 48
11 70 1 9 -4 16 -24 18 -52 2 -25 8 -49 14 -55 7 -7 8 -2 4 15 -7 24 -6 24 8
6 14 -17 19 -47 20 -107 0 -9 6 -16 14 -15 21 1 37 -28 27 -50 -4 -11 -7 -27
-6 -37 1 -10 -4 -17 -13 -17 -21 0 -20 -7 4 -38 17 -21 21 -38 19 -89 l-2 -63
-121 -1 c-123 0 -206 -5 -212 -12 -3 -2 7 -15 21 -29 33 -33 31 -81 -5 -111
-14 -12 -35 -36 -48 -54 l-22 -32 35 -12 c36 -13 43 -23 25 -34 -6 -4 -8 -11
-4 -16 3 -6 -2 -17 -12 -24 -18 -13 -18 -15 4 -31 24 -16 24 -18 19 -163 -4
-112 -2 -134 5 -96 5 28 10 62 10 78 0 15 3 27 7 27 3 0 5 37 4 82 -2 46 1
112 5 148 6 57 10 65 32 70 14 4 31 2 39 -4 11 -8 15 -8 19 2 3 9 8 10 16 3
14 -12 41 3 32 18 -4 6 -28 9 -59 6 -32 -2 -63 1 -82 10 -29 13 -29 14 -7 20
12 4 22 11 22 16 0 5 14 9 31 9 18 0 28 4 24 10 -4 6 -12 10 -18 9 -26 -3 -37
2 -37 16 0 13 21 15 133 15 72 0 162 3 200 7 64 6 67 5 67 -16 0 -19 -5 -21
-70 -21 -38 0 -70 -3 -70 -7 0 -5 22 -6 50 -5 66 5 203 -18 175 -29 -19 -7
-19 -8 3 -8 12 -1 22 3 22 9 0 5 3 9 8 9 23 -4 42 3 42 14 0 18 56 20 83 3 29
-18 85 -28 92 -16 4 6 17 7 29 4 16 -4 25 0 30 11 5 14 1 17 -24 13 l-30 -5
32 29 c33 28 33 28 143 22 109 -5 218 -30 196 -44 -8 -4 -9 -21 -5 -47 5 -34
11 -42 32 -46 16 -3 32 2 45 14 12 10 17 19 11 19 -5 0 -2 5 6 11 11 8 3 9
-31 4 -38 -5 -48 -3 -53 10 -10 26 -8 28 29 22 20 -3 33 -2 30 3 -3 4 1 11 7
14 7 4 -3 4 -22 2 l-35 -5 33 16 c17 9 32 23 32 30 0 8 12 13 30 13 21 0 28
-4 24 -14 -3 -8 0 -17 6 -21 9 -6 9 -10 -1 -16 -10 -6 -10 -9 -2 -9 29 0 58
-103 32 -112 -8 -3 -7 -13 3 -33 23 -46 28 -99 28 -301 1 -198 7 -227 43 -222
19 3 22 8 19 41 -2 20 1 37 5 37 5 0 8 16 9 35 0 19 -2 35 -6 35 -7 0 -10 66
-13 272 -1 87 -6 158 -10 158 -5 0 -2 7 7 15 10 10 24 13 39 9 14 -3 28 -1 31
5 5 7 -7 11 -33 11 -23 0 -41 5 -41 10 0 6 -7 10 -16 10 -14 0 -14 2 -3 16 7
9 12 29 11 44 -3 24 1 28 27 32 23 3 31 1 31 -11 0 -12 3 -12 12 -3 7 7 27 12
44 12 34 0 51 -24 46 -61 -2 -9 6 -19 18 -22 20 -5 29 -27 10 -27 -5 0 -10 -7
-10 -15 0 -8 6 -15 12 -15 7 0 2 -7 -10 -16 -41 -28 -25 -61 26 -55 6 1 12 -6
13 -16 0 -10 5 -79 10 -153 5 -74 9 -173 8 -220 -1 -103 11 -140 44 -140 22 0
23 3 21 53 -4 83 -13 178 -19 187 -3 5 -1 11 4 15 6 3 8 12 4 20 -3 8 0 15 7
15 9 0 8 5 -3 18 -12 13 -17 51 -23 159 -6 127 -5 143 10 149 9 3 22 1 30 -5
10 -8 16 -8 25 3 9 11 7 15 -14 20 -14 4 -25 10 -25 15 0 4 -16 7 -35 4 -27
-3 -35 0 -35 12 0 9 5 13 10 10 6 -3 10 -1 10 4 0 6 18 14 40 17 52 8 52 23 0
19 -33 -2 -40 1 -40 16 0 24 10 26 204 28 140 2 168 0 159 -11 -6 -7 -18 -35
-26 -63 -14 -42 -17 -47 -23 -27 -6 21 -11 22 -110 22 -97 0 -104 -1 -104 -20
0 -18 7 -20 86 -20 74 0 85 -2 75 -14 -10 -12 -8 -19 8 -35 28 -28 27 -31 -13
-19 -44 14 -98 3 -122 -23 l-19 -21 40 6 c22 3 63 2 90 -3 47 -8 45 -9 -40
-10 -59 -1 -95 3 -103 11 -9 9 -12 6 -12 -16 l0 -28 63 6 c79 9 117 0 117 -25
0 -17 -8 -19 -60 -19 l-60 0 0 -30 c0 -28 3 -30 34 -30 43 0 48 -8 35 -51 -6
-19 -13 -102 -15 -185 l-5 -150 113 -24 c73 -15 161 -24 251 -27 l137 -4 0
693 c0 539 -3 697 -12 706 -10 10 -10 15 -1 20 7 4 10 17 7 29 -5 17 -16 23
-54 28 -27 4 -53 4 -59 1 -20 -13 -20 13 0 35 11 13 18 18 14 11 -4 -7 5 -16
22 -23 35 -14 83 -18 83 -7 0 4 -6 8 -12 8 -8 0 -9 3 -3 8 16 11 15 60 -2 66
-11 5 -13 1 -8 -15 5 -16 3 -20 -6 -17 -8 3 -13 13 -11 22 3 16 -14 16 -66 0
-18 -5 -65 14 -82 35 -22 27 -76 43 -89 27 -6 -7 -8 -16 -4 -19 3 -4 2 -7 -4
-7 -6 0 -17 8 -24 17 -8 10 -9 14 -2 10 16 -10 24 5 12 23 -6 10 -9 11 -9 3 0
-7 -5 -13 -11 -13 -6 0 -8 7 -5 16 5 14 4 15 -8 4 -12 -10 -18 -9 -29 2 -7 7
-12 18 -10 24 2 6 -8 14 -22 16 -14 3 -25 2 -25 -3 0 -4 -14 -7 -30 -7 -19 1
-29 6 -26 13 2 7 -8 12 -28 12 -17 0 -42 3 -56 6 -22 6 -22 5 3 -5 15 -7 27
-18 27 -26 0 -7 5 -10 10 -7 6 3 19 4 29 0 27 -8 16 -49 -11 -42 -11 3 -21 0
-25 -9 -3 -8 -11 -14 -19 -14 -19 0 -18 -10 4 -27 16 -13 16 -14 -2 -11 -10 2
-29 17 -42 34 l-24 31 21 19 c12 11 19 13 17 5 -2 -7 7 -17 20 -22 27 -10 28
-5 2 21 -12 12 -25 18 -31 15 -5 -4 -17 -1 -26 7 -14 11 -16 11 -9 -2 4 -8 0
-6 -9 5 -9 11 -20 20 -25 20 -5 0 -18 8 -30 17 -11 10 -20 14 -20 8 0 -5 6
-13 14 -17 8 -4 14 -17 13 -28 -2 -16 5 -21 31 -23 28 -3 31 -6 21 -18 -6 -8
-17 -14 -23 -14 -6 0 -4 5 4 10 11 8 8 10 -15 8 -16 -1 -75 15 -130 34 -129
47 -153 57 -136 57 8 1 12 4 8 7 -3 3 3 14 14 25 15 15 24 17 39 9 11 -6 18
-16 16 -23 -1 -6 -1 -9 1 -4 3 4 10 4 15 1 7 -4 8 -2 4 4 -4 7 -3 12 3 12 7 0
7 8 1 25 -6 16 -6 25 0 25 6 0 10 -9 10 -20 0 -11 5 -20 11 -20 6 0 9 8 7 18
-4 15 2 17 46 16 28 0 56 -2 61 -4 6 -1 18 -2 27 -1 25 3 58 -17 58 -35 0 -16
19 -15 62 1 9 4 15 0 15 -10 0 -11 -7 -14 -21 -10 -19 5 -19 5 -3 -5 13 -9 22
-9 32 0 9 8 15 8 20 0 4 -6 15 -8 25 -5 10 3 22 0 26 -6 5 -8 3 -9 -7 -4 -12
8 -12 6 0 -9 11 -13 16 -14 23 -4 8 10 11 10 15 1 2 -7 11 -13 18 -13 8 0 29
-6 47 -14 47 -20 138 -40 172 -37 40 2 66 -8 66 -26 0 -12 3 -13 14 -4 10 8
21 8 40 1 57 -21 56 -23 56 145 l0 155 -993 0 c-877 0 -994 -2 -994 -15z m737
-101 c0 -3 -4 -3 -9 0 -4 3 -20 10 -35 16 -15 5 -24 15 -21 20 6 9 65 -24 65
-36z m334 25 c60 -13 71 -32 19 -35 -16 -1 -39 -7 -51 -13 -32 -17 -37 -13
-11 10 l24 21 -25 -8 c-14 -4 -32 -7 -40 -6 -8 1 -46 5 -85 9 l-70 7 60 6 c37
4 65 3 74 -4 11 -8 13 -8 8 0 -4 7 3 10 21 7 21 -4 24 -2 12 6 -19 14 -6 14
64 0z m-349 -31 c14 -6 25 -17 25 -25 0 -11 -5 -11 -30 2 -16 8 -39 15 -52 16
-22 0 -22 1 -3 9 27 12 30 12 60 -2z m212 -12 c-10 -8 -28 -11 -40 -8 -22 6
-22 6 3 13 43 12 58 10 37 -5z m146 -17 c-6 -6 -17 -8 -24 -3 -9 5 -8 9 7 14
23 9 31 3 17 -11z m-250 -16 c-14 -3 -20 -9 -16 -19 3 -9 -1 -14 -13 -14 -16
0 -17 2 -4 10 8 5 11 10 7 10 -5 0 -5 5 -2 10 3 6 16 9 28 9 l22 -2 -22 -4z
m102 -3 c3 -6 -1 -7 -9 -4 -18 7 -21 14 -7 14 6 0 13 -4 16 -10z m-222 -7 c-7
-2 -19 -2 -25 0 -7 3 -2 5 12 5 14 0 19 -2 13 -5z m157 -3 c0 -5 -5 -10 -11
-10 -5 0 -7 5 -4 10 3 6 8 10 11 10 2 0 4 -4 4 -10z m-23 -35 c25 1 30 -2 21
-12 -6 -7 -9 -13 -7 -14 33 -6 58 -6 58 -1 -3 22 3 22 22 -2 19 -25 20 -27 3
-43 -16 -17 -16 -18 -1 -21 9 -2 17 -8 17 -13 0 -6 -6 -7 -12 -4 -7 4 -5 0 5
-8 9 -8 17 -24 17 -37 0 -17 -4 -21 -17 -16 -16 5 -16 4 1 -9 11 -8 20 -29 21
-50 2 -30 -1 -35 -19 -34 -38 1 -56 13 -46 29 8 12 10 12 10 1 0 -11 3 -11 15
-1 12 10 15 10 15 -4 0 -9 5 -16 11 -16 7 0 6 8 -4 23 -8 12 -22 21 -30 21
-12 -1 -14 3 -6 23 10 27 -15 83 -37 83 -7 0 -14 6 -17 14 -4 9 -15 12 -33 8
-24 -4 -26 -2 -22 16 5 19 3 20 -13 11 -11 -5 -24 -7 -29 -4 -5 3 -12 1 -15
-5 -4 -6 -26 -10 -51 -9 -32 2 -41 6 -34 15 7 8 3 16 -15 28 -30 20 -32 36 -5
36 11 0 20 -6 20 -14 0 -9 7 -12 20 -9 12 3 20 2 19 -3 -1 -5 -1 -18 0 -28 1
-18 2 -18 19 -3 10 10 21 14 25 11 3 -3 10 4 17 15 7 14 7 21 0 21 -5 0 -10
-4 -10 -10 0 -5 -4 -10 -10 -10 -5 0 -10 8 -10 19 0 16 5 17 38 12 20 -3 51
-6 69 -6z m-134 -2 c-7 -2 -19 -2 -25 0 -7 3 -2 5 12 5 14 0 19 -2 13 -5z
m-326 -20 c2 -6 -3 -13 -12 -16 -10 -5 -15 0 -15 14 0 21 21 22 27 2z m248
-33 c1 -11 -1 -20 -4 -21 -3 0 -13 -2 -21 -4 -44 -9 -55 -9 -59 0 -4 11 70 57
78 49 3 -2 5 -13 6 -24z m405 0 c8 -5 11 -10 5 -10 -5 0 -17 5 -25 10 -8 5
-10 10 -5 10 6 0 17 -5 25 -10z m548 3 c-10 -2 -28 -2 -40 0 -13 2 -5 4 17 4
22 1 32 -1 23 -4z m-1362 -28 c-11 -8 -25 -15 -30 -15 -6 1 0 7 14 15 32 19
40 18 16 0z m134 5 c0 -6 -21 -20 -47 -31 -98 -41 -142 -63 -133 -69 5 -3 -9
-7 -32 -7 l-42 -2 70 32 c38 17 92 44 119 59 55 30 65 33 65 18z m796 -20 c43
-16 72 -29 64 -29 -8 -1 -49 12 -90 29 -97 38 -78 39 26 0z m457 17 c3 -8 -3
-13 -14 -13 -11 0 -19 4 -19 9 0 6 -5 6 -12 0 -12 -8 -19 -9 -45 -4 -5 1 -1 6
7 11 22 14 77 12 83 -3z m-536 -21 c29 -10 55 -21 57 -25 3 -4 -25 -8 -62 -9
l-67 -3 -1 31 c-1 19 3 29 10 27 6 -2 35 -12 63 -21z m440 -2 c-3 -3 -12 -4
-19 -1 -8 3 -5 6 6 6 11 1 17 -2 13 -5z m-1591 -19 c4 -8 10 -15 15 -15 4 0 6
7 3 15 -5 11 -2 13 11 9 9 -4 21 -18 26 -31 5 -13 14 -21 19 -18 6 4 5 -5 -2
-20 -6 -14 -17 -24 -24 -21 -8 3 -16 1 -19 -4 -6 -10 -1 -12 49 -14 47 -2 45
-26 -2 -26 -40 0 -69 20 -57 40 3 5 0 10 -8 10 -7 0 -24 12 -38 26 -24 26 -24
26 -1 15 12 -6 22 -16 22 -20 0 -11 31 -19 48 -14 20 7 14 19 -10 20 -13 1
-28 9 -34 18 -6 8 -19 15 -28 15 -19 0 -22 16 -3 23 21 9 27 7 33 -8z m426
-20 c4 -33 2 -35 -25 -35 -15 0 -36 -4 -45 -9 -10 -5 -33 -6 -52 -2 l-35 7 35
19 c47 26 103 53 111 54 4 1 9 -15 11 -34z m1268 25 c8 -5 11 -10 5 -10 -5 0
-17 5 -25 10 -8 5 -10 10 -5 10 6 0 17 -5 25 -10z m-1410 -4 c0 -2 -7 -7 -16
-10 -8 -3 -12 -2 -9 4 6 10 25 14 25 6z m611 -20 c27 -13 29 -15 9 -11 -14 2
-39 0 -55 -5 -27 -9 -27 -9 8 -4 26 3 37 2 32 -5 -4 -7 0 -8 11 -4 13 5 15 3
9 -7 -6 -10 -4 -12 10 -6 14 5 16 4 7 -7 -7 -8 -9 -17 -6 -20 4 -3 -7 -1 -24
5 -17 7 -28 16 -25 22 3 5 1 6 -4 3 -17 -11 -73 4 -73 19 0 7 14 15 33 17 l32
4 -37 1 c-30 2 -37 -2 -40 -19 -3 -19 -4 -19 -23 -4 -17 14 -17 16 -2 11 9 -3
17 -1 17 4 0 6 -7 10 -15 10 -8 0 -15 4 -15 9 0 15 113 4 151 -13z m865 13 c3
-6 17 -9 31 -6 13 2 21 2 18 -1 -2 -3 -1 -10 4 -16 4 -6 10 -18 14 -27 4 -12
0 -15 -19 -11 -15 3 -23 10 -22 20 2 10 -8 18 -29 24 -37 10 -53 28 -24 28 11
0 23 -5 27 -11z m90 -4 c-3 -8 3 -19 12 -25 15 -10 15 -10 -3 -8 -21 3 -35 48
-15 48 7 0 10 -7 6 -15z m-1119 -1 c-3 -3 -12 -4 -19 -1 -8 3 -5 6 6 6 11 1
17 -2 13 -5z m-219 -55 c-10 -7 -10 -9 2 -9 12 0 56 -78 47 -86 -1 -1 -17 -5
-34 -9 -26 -5 -33 -3 -33 8 0 9 -3 22 -6 31 -4 11 -1 16 10 16 9 0 16 5 16 10
0 6 -5 10 -10 10 -20 0 -22 31 -4 51 17 19 19 20 22 4 2 -10 -2 -21 -10 -26z
m222 31 c0 -5 -7 -7 -15 -4 -8 4 -15 8 -15 10 0 2 7 4 15 4 8 0 15 -4 15 -10z
m968 3 c-10 -2 -26 -2 -35 0 -10 3 -2 5 17 5 19 0 27 -2 18 -5z m-325 -10
c-13 -2 -33 -2 -45 0 -13 2 -3 4 22 4 25 0 35 -2 23 -4z m542 -21 c-2 -9 -4
-19 -5 -22 -1 -3 -2 -8 -1 -12 2 -12 -17 -10 -24 2 -3 6 -1 10 5 10 8 0 10 9
6 25 -5 18 -3 23 8 19 8 -3 13 -13 11 -22z m-1978 12 c-3 -3 -12 -4 -19 -1 -8
3 -5 6 6 6 11 1 17 -2 13 -5z m1316 -1 c-18 -2 -48 -2 -65 0 -18 2 -4 4 32 4
36 0 50 -2 33 -4z m-1143 -13 c0 -5 -5 -10 -11 -10 -5 0 -7 5 -4 10 3 6 8 10
11 10 2 0 4 -4 4 -10z m1615 -4 c10 -7 28 -11 39 -9 19 4 19 3 3 -7 -9 -6 -26
-9 -36 -5 -10 3 -31 1 -46 -5 -22 -8 -33 -7 -51 5 -21 13 -23 13 -18 0 4 -10
0 -15 -10 -15 -25 0 -20 38 7 43 47 9 94 6 112 -7z m-1817 -3 c-10 -2 -26 -2
-35 0 -10 3 -2 5 17 5 19 0 27 -2 18 -5z m520 0 c-10 -2 -28 -2 -40 0 -13 2
-5 4 17 4 22 1 32 -1 23 -4z m952 -17 c0 -27 -32 -41 -61 -25 -22 11 -32 12
-25 0 3 -5 -6 -11 -19 -14 -14 -2 -28 -1 -30 3 -3 4 -14 10 -25 13 -11 3 -18
1 -14 -4 3 -5 -5 -9 -18 -10 -22 0 -22 -1 -3 -9 11 -5 15 -9 8 -9 -7 -1 -29 8
-49 20 -25 13 -35 16 -31 7 3 -9 -3 -14 -14 -15 -14 -1 -19 5 -19 23 0 13 3
25 8 25 4 1 31 3 61 5 29 2 55 5 57 6 2 2 42 5 89 6 84 2 85 2 85 -22z m-505
-4 c18 -11 17 -12 -7 -6 -15 3 -60 10 -100 14 l-73 9 80 -3 c44 -1 89 -8 100
-14z m998 -3 c5 -19 3 -21 -26 -15 -17 4 -36 11 -42 18 -7 8 -1 9 23 5 18 -4
32 -2 32 3 0 17 7 11 13 -11z m-376 5 c-3 -3 -12 -4 -19 -1 -8 3 -5 6 6 6 11
1 17 -2 13 -5z m-1240 -10 c-3 -3 -12 -4 -19 -1 -8 3 -5 6 6 6 11 1 17 -2 13
-5z m146 -1 c-18 -2 -48 -2 -65 0 -18 2 -4 4 32 4 36 0 50 -2 33 -4z m479 -21
c21 -9 41 -25 44 -36 4 -12 12 -25 18 -29 7 -5 2 -7 -11 -4 -15 3 -20 1 -16
-9 3 -8 12 -14 21 -14 13 0 10 -7 -11 -26 -24 -22 -27 -31 -23 -67 3 -23 8
-124 12 -225 8 -207 7 -204 90 -205 46 -1 51 -11 9 -19 -13 -3 -26 -1 -28 5
-2 7 -36 6 -100 -2 -103 -13 -315 -12 -323 1 -3 5 1 8 9 8 29 0 36 46 40 250
2 136 8 215 16 235 l13 30 9 -24 c7 -16 6 -27 -1 -31 -18 -11 10 -60 34 -60
16 0 18 2 7 9 -17 11 25 21 101 26 47 3 73 18 62 37 -3 4 3 8 13 8 12 0 14 3
6 8 -7 4 -10 19 -8 33 4 24 2 26 -33 25 -59 -1 -158 5 -147 9 6 2 31 6 57 10
37 5 46 9 41 21 -4 10 -8 12 -13 5 -4 -8 -16 -8 -40 0 -24 9 -38 9 -51 1 -13
-8 -20 -8 -29 3 -9 11 -5 17 22 29 59 27 143 27 210 -2z m-921 -9 c12 -16 12
-17 -1 -7 -8 6 -22 14 -30 17 -13 5 -12 6 1 6 9 1 23 -7 30 -16z m457 -10 c2
-16 -2 -23 -13 -23 -15 0 -15 -1 -1 -16 18 -17 22 -39 6 -29 -15 9 -12 -8 5
-31 14 -19 14 -19 15 1 1 19 1 19 14 3 7 -10 19 -18 26 -18 10 0 10 -3 0 -15
-10 -12 -15 -13 -21 -4 -4 7 -13 10 -21 7 -15 -6 -10 -101 11 -208 16 -79 18
-110 9 -110 -4 0 -8 5 -8 12 0 6 -2 9 -5 6 -3 -3 1 -25 9 -49 8 -23 13 -46 10
-50 -2 -4 0 -10 6 -14 5 -3 10 -23 10 -44 l0 -37 -102 0 c-57 0 -112 -1 -123
-2 -31 -5 -186 5 -192 12 -4 3 3 6 14 6 29 0 48 27 50 69 1 20 5 110 9 201 6
133 10 169 24 187 10 12 20 20 24 18 3 -3 4 -2 1 2 -4 4 -20 12 -37 18 -37 12
-47 31 -21 39 20 6 134 15 224 18 41 1 54 5 45 12 -12 12 -226 16 -226 4 0 -4
-7 -5 -15 -2 -8 4 -15 17 -15 31 0 13 4 22 9 19 4 -3 28 -2 52 2 24 5 85 8
134 8 85 -1 90 -2 93 -23z m970 -7 c-3 -14 -1 -31 3 -38 5 -8 9 -9 9 -2 0 6
11 12 24 12 18 0 22 -5 18 -20 -5 -20 -40 -40 -55 -31 -5 3 -4 -3 1 -13 6 -11
15 -97 22 -193 6 -95 14 -187 17 -202 5 -25 3 -29 -18 -29 -17 0 -7 -9 36 -30
l60 -30 -75 -2 c-115 -2 -207 -15 -216 -29 -10 -16 -37 -10 -30 7 5 14 -2 15
-56 12 -67 -3 -85 10 -43 32 l26 14 -7 218 c-6 191 -5 218 9 223 13 5 15 23 7
45 -1 3 -1 14 0 25 2 16 0 17 -14 6 -9 -7 -13 -17 -10 -22 7 -13 -19 -7 -28 6
-11 15 -10 27 2 20 6 -3 10 -2 10 3 0 6 54 13 120 17 66 4 118 10 116 14 -2 3
14 7 36 8 38 3 40 1 36 -21z m318 9 c-3 -8 0 -15 6 -15 27 0 -14 -26 -45 -28
-28 -2 -36 2 -46 25 -12 27 -13 27 -27 8 -8 -10 -14 -14 -14 -9 0 22 27 34 78
34 44 0 53 -3 48 -15z m64 0 c4 3 10 -4 13 -15 3 -13 0 -20 -9 -20 -9 0 -3
-11 16 -30 38 -37 50 -38 45 -2 -2 15 -2 22 1 15 3 -7 12 -9 20 -6 8 3 14 0
14 -6 0 -6 8 -11 18 -11 16 -1 16 -1 0 -10 -10 -6 -14 -18 -11 -30 5 -17 11
-19 39 -14 27 5 34 3 34 -10 0 -9 -4 -16 -10 -16 -5 0 -10 4 -10 9 0 5 -9 7
-20 4 -11 -3 -20 -12 -20 -19 0 -14 11 -18 40 -15 13 2 13 1 0 -8 -8 -6 -37
-11 -65 -12 -47 -1 -48 -2 -17 -9 40 -9 46 -15 39 -34 -4 -10 -13 -13 -24 -10
-12 4 -14 3 -6 -3 10 -7 10 -13 -1 -29 -12 -15 -17 -17 -27 -6 -15 14 -89 16
-89 2 0 -5 3 -9 8 -9 26 4 62 -3 57 -11 -3 -5 1 -10 10 -10 13 0 14 -4 5 -20
-7 -13 -21 -20 -40 -20 -17 0 -30 -4 -30 -10 0 -5 10 -10 22 -10 20 0 20 -1 4
-19 -15 -16 -17 -34 -14 -95 4 -87 5 -86 -102 -85 -45 0 -59 3 -45 9 11 5 16
9 10 10 -5 0 -3 6 7 13 16 13 27 83 16 102 -8 14 -32 354 -25 361 10 10 71 10
92 0 18 -8 19 -8 6 8 -12 14 -12 16 3 10 12 -5 15 -2 10 10 -3 9 -1 16 6 16 6
0 9 4 6 9 -4 5 -3 17 1 27 4 11 8 13 11 6 2 -7 7 -10 12 -7z m188 -8 c6 -5 12
-12 12 -18 0 -16 -27 -10 -51 11 l-24 20 25 -3 c14 -1 31 -6 38 -10z m-1943
-37 c10 -11 16 -20 13 -20 -3 0 -13 9 -23 20 -10 11 -16 20 -13 20 3 0 13 -9
23 -20z m1968 -7 c-7 -2 -19 -2 -25 0 -7 3 -2 5 12 5 14 0 19 -2 13 -5z
m-1476 -9 c-3 -3 -12 -4 -19 -1 -8 3 -5 6 6 6 11 1 17 -2 13 -5z m1461 -17
c15 6 15 4 -2 -15 -11 -12 -24 -22 -30 -22 -6 0 -4 5 4 10 13 9 13 12 -2 24
-10 7 -15 16 -11 20 4 4 11 0 15 -8 5 -9 16 -13 26 -9z m-1979 -31 c9 -11 9
-16 0 -21 -10 -7 -28 10 -29 28 0 12 17 8 29 -7z m844 -8 c3 -10 -17 -13 -82
-14 -81 -1 -84 -1 -51 12 46 17 126 18 133 2z m-286 -504 c-3 -3 -12 -4 -19
-1 -8 3 -5 6 6 6 11 1 17 -2 13 -5z m-151 -78 c3 -7 19 -17 37 -20 24 -5 28
-9 19 -18 -9 -9 -15 -9 -24 0 -7 7 -36 12 -65 12 -48 0 -53 2 -44 18 12 22 69
28 77 8z m-163 -22 c-6 -16 -39 -28 -53 -19 -6 4 -6 12 2 24 13 21 60 17 51
-5z"/>
<path d="M1458 1673 c-22 -5 -24 -20 -3 -20 8 0 16 6 19 14 3 7 4 12 3 12 -1
-1 -10 -3 -19 -6z"/>
<path d="M1194 1239 c-3 -5 2 -9 10 -9 13 0 16 -12 16 -56 l0 -56 38 4 37 3 3
-66 c3 -61 5 -66 22 -62 11 3 20 1 20 -5 0 -6 -27 -13 -62 -15 l-63 -3 63 -2
c46 -2 62 -6 62 -16 0 -8 4 -17 9 -20 5 -4 8 2 6 11 -2 10 -6 80 -9 155 -5
123 -3 137 12 141 9 3 -22 5 -71 5 -48 -1 -90 -5 -93 -9z"/>
<path d="M1374 1065 c0 -93 2 -133 3 -88 2 45 2 122 0 170 -1 48 -3 12 -3 -82z"/>
<path d="M895 1391 c-3 -5 -1 -12 5 -16 5 -3 10 1 10 9 0 18 -6 21 -15 7z"/>
<path d="M720 1375 c-7 -8 -10 -16 -6 -16 3 -1 11 -3 16 -4 6 -1 35 -3 65 -4
50 -1 55 -3 46 -18 -7 -13 -4 -20 12 -28 15 -7 23 -22 25 -43 l3 -32 -80 0
c-51 0 -81 -4 -81 -11 0 -7 26 -9 74 -7 l75 3 -5 -140 c-3 -77 -6 -150 -8
-163 -2 -13 1 -21 8 -19 12 4 12 3 20 239 6 194 6 198 21 213 6 5 8 9 6 8 -2
-1 -16 6 -31 17 -35 25 -141 28 -160 5z"/>
<path d="M670 1370 c0 -5 5 -10 11 -10 5 0 7 5 4 10 -3 6 -8 10 -11 10 -2 0
-4 -4 -4 -10z"/>
<path d="M733 1193 c13 -3 17 -15 17 -49 0 -44 0 -44 35 -44 l35 0 0 -84 0
-85 -42 -4 c-41 -3 -41 -4 10 -5 l52 -2 1 48 c0 26 4 89 7 140 l7 92 -70 -1
c-38 -1 -62 -3 -52 -6z"/>
<path d="M1888 1463 c7 -3 16 -2 19 1 4 3 -2 6 -13 5 -11 0 -14 -3 -6 -6z"/>
<path d="M1785 1439 c-16 -5 -52 -7 -78 -5 -40 4 -48 2 -43 -11 3 -8 6 -19 6
-25 0 -6 24 -9 65 -6 36 2 65 0 65 -4 0 -4 -4 -8 -10 -8 -5 0 -10 -7 -10 -15
0 -9 9 -15 23 -15 29 0 47 -18 47 -46 0 -28 -17 -34 -101 -34 -43 0 -69 -4
-69 -11 0 -7 26 -9 85 -4 60 5 85 4 85 -4 0 -7 -30 -11 -87 -12 -49 -1 -81 -3
-72 -6 11 -3 19 -20 23 -48 6 -38 11 -44 34 -47 18 -2 28 -9 29 -23 13 -129
14 -135 36 -137 12 -1 -3 -4 -33 -8 l-55 -7 59 -1 59 -2 -6 135 c-4 76 -3 135
2 135 11 0 20 -93 23 -227 1 -57 4 -103 6 -103 2 0 11 7 19 16 14 14 15 35 4
202 -7 103 -13 200 -15 215 -2 18 2 31 11 34 12 5 12 7 1 14 -10 7 -10 9 0 9
6 0 12 5 12 10 0 6 -3 9 -7 8 -16 -4 -51 13 -57 27 -6 17 -9 17 -51 4z"/>
<path d="M1870 1435 c0 -8 5 -15 10 -15 6 0 10 7 10 15 0 8 -4 15 -10 15 -5 0
-10 -7 -10 -15z"/>
<path d="M2197 1464 c-4 -4 -7 -14 -7 -23 0 -11 3 -12 11 -4 6 6 10 16 7 23
-2 6 -7 8 -11 4z"/>
<path d="M2264 1344 c-18 -15 -17 -15 11 -8 17 4 38 6 49 6 25 -1 14 8 -16 13
-13 3 -33 -2 -44 -11z"/>
<path d="M2352 1334 c-12 -8 -27 -12 -32 -9 -6 3 -10 2 -10 -4 0 -6 -6 -8 -14
-5 -8 3 -17 0 -21 -7 -6 -9 2 -10 30 -5 25 5 35 4 30 -3 -4 -7 4 -11 18 -11
14 0 27 7 31 15 5 13 2 14 -15 4 -20 -10 -20 -10 -4 15 20 30 18 32 -13 10z"/>
<path d="M2275 1280 c3 -5 13 -10 21 -10 8 0 14 5 14 10 0 6 -9 10 -21 10 -11
0 -17 -4 -14 -10z"/>
<path d="M575 1890 c10 -11 23 -20 28 -20 6 0 0 9 -13 20 -13 11 -25 20 -28
20 -3 0 3 -9 13 -20z"/>
<path d="M360 1862 c0 -14 27 -28 37 -18 4 3 1 12 -5 18 -9 9 -12 9 -12 -2 0
-13 -2 -13 -10 0 -7 10 -10 11 -10 2z"/>
<path d="M427 1806 c-3 -8 1 -17 9 -20 9 -4 14 1 14 14 0 23 -15 27 -23 6z"/>
<path d="M517 1804 c3 -7 9 -14 14 -14 14 0 10 17 -5 23 -10 4 -13 1 -9 -9z"/>
<path d="M1855 1780 c5 -9 1 -11 -16 -6 -13 3 -19 3 -13 0 7 -3 9 -14 6 -26
-3 -14 -1 -19 6 -14 6 3 13 2 17 -4 12 -20 22 -10 21 22 -1 17 -8 34 -15 36
-9 3 -11 0 -6 -8z"/>
<path d="M1787 1773 c-10 -10 -8 -33 3 -33 5 0 6 7 3 17 -4 11 -3 14 5 9 7 -4
12 -2 12 3 0 12 -13 14 -23 4z"/>
<path d="M1910 1771 c0 -6 9 -8 19 -6 13 2 18 -1 15 -10 -7 -18 15 -30 29 -15
9 10 9 11 -1 6 -7 -4 -12 -4 -11 1 4 23 -3 33 -26 33 -14 0 -25 -4 -25 -9z"/>
<path d="M1982 1751 c8 -14 14 -16 24 -7 9 9 8 12 -5 18 -27 11 -32 9 -19 -11z"/>
<path d="M218 1753 c7 -3 16 -2 19 1 4 3 -2 6 -13 5 -11 0 -14 -3 -6 -6z"/>
<path d="M2070 1729 c0 -5 5 -7 10 -4 6 3 10 8 10 11 0 2 -4 4 -10 4 -5 0 -10
-5 -10 -11z"/>
<path d="M240 1720 c0 -5 -6 -8 -12 -6 -7 1 -10 1 -5 -1 4 -3 4 -9 1 -15 -3
-5 3 -4 15 4 22 14 28 28 11 28 -5 0 -10 -4 -10 -10z"/>
<path d="M440 1720 c0 -5 7 -10 16 -10 8 0 12 5 9 10 -3 6 -10 10 -16 10 -5 0
-9 -4 -9 -10z"/>
<path d="M498 1692 c9 -10 19 -17 21 -16 6 5 -20 34 -30 34 -5 0 -1 -8 9 -18z"/>
<path d="M2074 1668 c-4 -6 -3 -8 4 -4 5 3 13 0 15 -6 3 -8 6 -6 6 5 1 19 -14
23 -25 5z"/>
<path d="M650 1655 c33 -19 49 -19 24 0 -10 8 -26 14 -34 14 -9 0 -4 -6 10
-14z"/>
<path d="M5 1650 c-3 -5 -1 -10 4 -10 6 0 11 5 11 10 0 6 -2 10 -4 10 -3 0 -8
-4 -11 -10z"/>
<path d="M170 1620 c8 -5 20 -10 25 -10 6 0 3 5 -5 10 -8 5 -19 10 -25 10 -5
0 -3 -5 5 -10z"/>
<path d="M0 1603 c0 -8 5 -13 12 -11 18 6 21 25 3 25 -8 0 -15 -7 -15 -14z"/>
<path d="M2420 1609 c0 -6 9 -9 20 -6 11 3 18 1 14 -4 -3 -5 1 -9 9 -9 7 0 14
7 14 15 0 10 -10 15 -29 15 -15 0 -28 -5 -28 -11z"/>
<path d="M55 1600 c-8 -13 9 -20 24 -11 10 6 9 10 -3 14 -8 3 -18 2 -21 -3z"/>
<path d="M237 1590 c-3 -11 0 -23 5 -27 7 -4 8 -1 3 7 -6 10 -4 12 10 6 16 -6
16 -4 4 11 -7 10 -14 19 -15 21 -1 1 -4 -6 -7 -18z"/>
<path d="M267 1599 c7 -7 15 -10 18 -7 3 3 -2 9 -12 12 -14 6 -15 5 -6 -5z"/>
<path d="M2490 1590 c0 -5 7 -7 15 -4 8 4 15 8 15 10 0 2 -7 4 -15 4 -8 0 -15
-4 -15 -10z"/>
<path d="M107 1583 c-3 -5 0 -12 7 -18 15 -14 46 -15 46 -2 0 5 8 3 18 -6 22
-20 37 -11 17 9 -8 8 -25 13 -40 10 -14 -3 -25 0 -25 5 0 11 -17 12 -23 2z"/>
<path d="M280 1570 c0 -5 10 -10 23 -10 18 0 19 2 7 10 -19 13 -30 13 -30 0z"/>
<path d="M233 1533 c9 -2 17 -8 17 -13 0 -4 8 -11 17 -14 15 -6 15 -4 -2 14
-10 11 -25 19 -34 19 -13 -1 -13 -2 2 -6z"/>
<path d="M4 1439 c-3 -6 -1 -16 5 -22 8 -8 11 -8 11 2 0 7 5 9 13 5 8 -5 8 -2
-2 9 -16 20 -18 20 -27 6z"/>
<path d="M30 1400 c0 -5 5 -10 11 -10 5 0 7 5 4 10 -3 6 -8 10 -11 10 -2 0 -4
-4 -4 -10z"/>
<path d="M99 1394 c32 -13 36 -13 50 3 15 15 15 16 -1 4 -12 -9 -22 -10 -37
-2 -11 6 -26 11 -33 11 -7 -1 2 -7 21 -16z"/>
<path d="M180 1400 c-12 -8 -10 -10 10 -8 16 2 25 -2 25 -12 0 -10 8 -14 25
-12 33 5 37 10 14 17 -10 4 -27 11 -36 16 -21 11 -20 11 -38 -1z"/>
<path d="M320 1373 c0 -6 -10 -10 -22 -9 -18 1 -23 -4 -23 -24 0 -21 5 -25 28
-26 16 -1 33 -7 38 -15 6 -9 9 -10 9 -2 0 15 -34 34 -52 30 -7 -2 -10 -2 -5 0
4 3 7 12 7 21 0 13 2 14 9 4 6 -11 10 -10 15 4 3 9 4 19 1 22 -3 3 -5 1 -5 -5z"/>
<path d="M0 1311 c0 -19 55 -50 67 -38 8 9 -17 37 -33 37 -8 0 -14 5 -14 10 0
6 -4 10 -10 10 -5 0 -10 -8 -10 -19z"/>
<path d="M208 1323 c6 -2 18 -2 25 0 6 3 1 5 -13 5 -14 0 -19 -2 -12 -5z"/>
<path d="M100 1300 c-17 -17 -19 -24 -9 -36 6 -8 18 -14 26 -14 8 0 12 -4 8
-10 -4 -6 -15 -6 -31 0 -34 13 -94 13 -94 0 0 -6 8 -14 18 -17 9 -4 33 -19 52
-35 37 -30 60 -36 60 -15 1 7 6 5 14 -5 7 -10 16 -18 19 -18 9 0 -5 44 -21 63
-22 25 -10 21 24 -8 30 -26 44 -31 44 -16 0 16 41 20 47 5 3 -8 9 -14 15 -14
5 0 6 5 3 10 -11 18 12 10 30 -10 14 -16 16 -23 7 -32 -7 -7 -12 -21 -12 -32
0 -10 -3 -16 -7 -13 -3 4 -13 -3 -21 -15 -14 -20 -14 -23 6 -36 31 -20 30 -69
0 -75 -22 -4 -22 -4 -2 -6 19 -1 21 -6 16 -51 -4 -44 -2 -50 12 -44 9 3 16 13
16 20 0 8 7 81 15 162 11 98 13 148 6 150 -6 2 -21 12 -33 22 -18 15 -20 19
-7 20 25 0 40 23 27 40 -8 12 -9 11 -4 -4 5 -15 2 -17 -14 -13 -11 3 -23 0
-26 -5 -4 -7 -10 -5 -16 5 -7 14 -12 14 -35 2 -15 -8 -30 -12 -35 -9 -4 3 -8
0 -8 -5 0 -23 -16 -9 -25 21 -12 40 -36 47 -65 18z m160 -45 c0 -8 -2 -15 -4
-15 -2 0 -6 7 -10 15 -3 8 -1 15 4 15 6 0 10 -7 10 -15z"/>
<path d="M67 1164 c-8 -8 3 -34 15 -34 7 0 6 5 -1 13 -6 8 -8 17 -4 20 3 4 4
7 1 7 -2 0 -7 -3 -11 -6z"/>
<path d="M20 1110 c0 -5 5 -10 11 -10 5 0 7 5 4 10 -3 6 -8 10 -11 10 -2 0 -4
-4 -4 -10z"/>
<path d="M64 1112 c-9 -5 -8 -10 1 -19 11 -10 13 -9 12 7 -1 11 -1 20 -2 20 0
0 -5 -4 -11 -8z"/>
<path d="M130 1070 c0 -5 5 -10 11 -10 5 0 7 5 4 10 -3 6 -8 10 -11 10 -2 0
-4 -4 -4 -10z"/>
<path d="M0 996 c0 -2 7 -6 15 -10 8 -3 15 -1 15 4 0 6 -7 10 -15 10 -8 0 -15
-2 -15 -4z"/>
<path d="M125 990 c3 -5 8 -10 11 -10 2 0 4 5 4 10 0 6 -5 10 -11 10 -5 0 -7
-4 -4 -10z"/>
<path d="M218 963 c7 -3 16 -2 19 1 4 3 -2 6 -13 5 -11 0 -14 -3 -6 -6z"/>
<path d="M198 933 c6 -2 18 -2 25 0 6 3 1 5 -13 5 -14 0 -19 -2 -12 -5z"/>
<path d="M1718 733 c7 -3 16 -2 19 1 4 3 -2 6 -13 5 -11 0 -14 -3 -6 -6z"/>
<path d="M400 720 c0 -5 11 -10 24 -10 14 0 28 5 31 10 4 6 -7 10 -24 10 -17
0 -31 -4 -31 -10z"/>
<path d="M1141 726 c2 -2 20 -6 39 -10 25 -4 31 -3 20 4 -14 9 -69 15 -59 6z"/>
<path d="M1365 720 c3 -5 8 -10 11 -10 2 0 4 5 4 10 0 6 -5 10 -11 10 -5 0 -7
-4 -4 -10z"/>
<path d="M1258 713 c7 -3 16 -2 19 1 4 3 -2 6 -13 5 -11 0 -14 -3 -6 -6z"/>
<path d="M115 701 c-6 -11 13 -26 22 -17 4 3 1 6 -6 6 -7 0 -9 5 -6 10 3 6 4
10 1 10 -3 0 -7 -4 -11 -9z"/>
<path d="M1031 682 c-5 -9 -12 -16 -15 -14 -35 15 -34 -29 0 -63 l27 -27 -7
-250 c-5 -160 -4 -248 2 -244 5 3 10 40 11 83 1 48 6 80 14 85 8 5 8 8 1 8
-16 0 -16 356 -1 373 18 19 16 43 -4 55 -15 9 -20 8 -28 -6z"/>
<path d="M1256 691 c-4 -6 -12 -9 -17 -5 -5 3 -9 2 -8 -3 5 -30 -5 -41 -56
-57 -59 -18 -68 -26 -59 -50 7 -18 35 -21 51 -5 8 8 13 8 17 0 10 -16 69 -13
102 4 28 14 25 15 -61 15 -52 0 -84 4 -77 9 7 4 23 6 35 4 12 -2 44 3 71 11
36 11 53 12 63 4 7 -6 27 -8 44 -4 27 5 30 4 24 -14 -6 -20 4 -25 45 -22 13 1
15 -30 13 -236 -3 -219 3 -279 23 -259 9 9 12 247 3 247 -4 0 -6 63 -4 140 1
123 -1 140 -14 138 -9 -1 -31 6 -48 15 -25 13 -33 14 -33 5 0 -9 -3 -10 -8 -2
-4 6 -20 16 -37 22 -28 10 -28 10 -6 11 31 1 19 14 -17 19 -15 2 -30 8 -33 14
-4 7 -9 7 -13 -1z m94 -67 c0 -2 -7 -4 -15 -4 -8 0 -15 4 -15 10 0 5 7 7 15 4
8 -4 15 -8 15 -10z"/>
<path d="M1358 693 c7 -3 16 -2 19 1 4 3 -2 6 -13 5 -11 0 -14 -3 -6 -6z"/>
<path d="M422 670 c11 -17 24 -20 88 -20 63 -1 72 -3 58 -13 -22 -17 -7 -42
24 -42 15 0 25 7 28 20 6 21 50 35 50 16 0 -16 26 -13 40 4 7 9 11 17 9 19 -9
9 -109 13 -109 5 0 -18 -22 -9 -27 11 -5 18 -14 20 -89 20 -82 0 -84 -1 -72
-20z"/>
<path d="M814 650 c-4 -16 -12 -34 -20 -41 -13 -10 -8 -43 5 -35 4 3 13 1 21
-4 12 -7 14 -38 12 -157 -1 -81 -5 -182 -8 -224 -4 -51 -2 -79 5 -83 7 -5 12
2 13 16 1 13 3 32 4 43 1 11 2 73 3 137 1 113 2 117 24 121 l22 4 -22 2 c-22
1 -23 5 -23 75 0 134 13 158 70 130 24 -13 34 -13 45 -4 8 7 15 17 15 22 0 6
-8 4 -17 -3 -11 -10 -14 -10 -9 -1 4 7 1 12 -8 12 -9 0 -16 4 -16 10 0 6 -9 6
-22 1 -13 -5 -32 -5 -43 0 -35 14 -45 10 -51 -21z"/>
<path d="M1520 660 c0 -16 17 -20 28 -7 8 10 6 13 -9 14 -10 1 -19 -2 -19 -7z"/>
<path d="M1124 638 c12 -7 21 -7 28 0 6 6 0 10 -18 10 -23 0 -24 -2 -10 -10z"/>
<path d="M2045 640 c-4 -7 8 -8 37 -4 57 9 61 14 10 14 -22 0 -44 -5 -47 -10z"/>
<path d="M480 605 c0 -8 -6 -15 -13 -15 -25 0 -70 -47 -63 -65 5 -14 20 -16
106 -14 88 2 100 5 100 20 0 24 -42 55 -87 64 -32 6 -35 9 -18 15 19 8 19 9
-2 9 -14 1 -23 -5 -23 -14z m85 -57 c11 -1 -16 -4 -60 -8 -44 -3 -84 -4 -90
-1 -15 9 55 20 95 15 19 -2 44 -5 55 -6z"/>
<path d="M1270 551 c0 -5 -15 -11 -32 -13 l-33 -3 -6 -175 c-4 -122 -3 -179 5
-187 10 -11 175 -21 185 -12 2 2 1 31 -2 64 -4 33 -9 115 -13 183 l-6 122 28
0 c17 0 24 4 19 9 -14 13 -145 24 -145 12z"/>
<path d="M2033 513 c20 -2 54 -2 75 0 20 2 3 4 -38 4 -41 0 -58 -2 -37 -4z"/>
<path d="M603 430 c0 -41 2 -58 4 -37 2 20 2 54 0 75 -2 20 -4 3 -4 -38z"/>
<path d="M468 479 c-27 -15 -11 -36 39 -50 l46 -12 -6 -84 c-2 -46 -1 -83 4
-83 5 0 9 33 10 73 0 39 2 89 4 110 3 31 1 37 -15 37 -10 0 -22 5 -25 10 -8
13 -35 12 -57 -1z"/>
<path d="M593 270 c0 -41 2 -58 4 -37 2 20 2 54 0 75 -2 20 -4 3 -4 -38z"/>
<path d="M583 130 c0 -30 2 -43 4 -28 2 16 2 40 0 55 -2 16 -4 3 -4 -27z"/>
<path d="M1965 140 c3 -5 8 -10 11 -10 2 0 4 5 4 10 0 6 -5 10 -11 10 -5 0 -7
-4 -4 -10z"/>
<path d="M1210 114 c0 -8 5 -12 10 -9 6 3 10 10 10 16 0 5 -4 9 -10 9 -5 0
-10 -7 -10 -16z"/>
<path d="M10 65 c0 -9 6 -12 15 -9 8 4 15 7 15 9 0 2 -7 5 -15 9 -9 3 -15 0
-15 -9z"/>
<path d="M827 72 c-3 -4 -1 -16 4 -27 4 -11 8 -14 8 -7 1 7 6 10 11 7 6 -3 10
0 10 8 0 16 -27 31 -33 19z"/>
<path d="M330 10 c0 -5 10 -10 23 -10 18 0 19 2 7 10 -19 13 -30 13 -30 0z"/>
</g>
</svg>
