<?xml version="1.0" standalone="no"?>
<!DOCTYPE svg PUBLIC "-//W3C//DTD SVG 20010904//EN"
 "http://www.w3.org/TR/2001/REC-SVG-20010904/DTD/svg10.dtd">
<svg version="1.0" xmlns="http://www.w3.org/2000/svg"
 width="276.000000pt" height="182.000000pt" viewBox="0 0 276.000000 182.000000"
 preserveAspectRatio="xMidYMid meet">

<g transform="translate(0.000000,182.000000) scale(0.100000,-0.100000)"
fill="#000000" stroke="none">
<path d="M0 910 l0 -910 1380 0 1380 0 0 356 0 355 -22 -7 c-13 -4 -36 -8 -53
-9 -16 0 -40 -6 -52 -13 -29 -16 -84 -15 -108 2 -12 8 -41 13 -70 12 -44 -1
-54 2 -96 39 -25 22 -85 74 -133 115 -49 41 -98 84 -110 95 -12 11 -48 43 -80
70 -32 28 -72 62 -89 78 -17 15 -37 27 -45 27 -16 0 -33 42 -21 54 10 11 0 96
-14 114 -11 14 -6 15 73 13 30 0 49 2 43 5 -26 11 -12 22 35 27 26 2 62 9 80
15 17 6 32 7 32 2 0 -4 -11 -11 -25 -14 -42 -11 -28 -26 25 -26 38 0 50 -4 50
-15 0 -15 4 -16 75 -21 22 -1 41 -7 43 -13 2 -6 16 -11 30 -12 24 0 25 -1 7
-9 -17 -7 -17 -9 -2 -9 10 -1 17 -9 17 -20 0 -27 59 -35 152 -22 40 5 82 9 93
8 11 -1 53 2 93 7 l72 8 0 304 0 304 -1380 0 -1380 0 0 -910z m2404 892 c3 -5
-8 -6 -25 -4 -16 2 -29 6 -29 8 0 8 49 4 54 -4z m-960 -95 c-2 -14 7 -17 42
-17 24 0 44 -4 44 -9 0 -5 -12 -8 -27 -6 -16 1 -31 -2 -36 -9 -5 -8 -10 -6
-18 7 -5 9 -18 17 -27 17 -15 1 -14 2 3 12 19 11 19 11 0 20 -20 8 -20 8 0 5
12 -2 19 -10 19 -20z m509 -14 c-7 -2 -19 -2 -25 0 -7 3 -2 5 12 5 14 0 19 -2
13 -5z m-144 -13 c18 -5 32 -5 35 1 2 5 3 4 2 -3 -2 -7 -18 -13 -38 -14 -19
-1 -41 -5 -48 -9 -7 -5 -11 -4 -8 1 4 5 -32 10 -80 12 -48 2 -91 7 -96 12 -12
12 192 12 233 0z m-329 -40 c0 -4 10 -11 23 -15 40 -13 -38 -24 -86 -12 -75
18 -76 33 -2 34 36 0 65 -3 65 -7z m-594 -22 c-1 -18 -7 -23 -30 -24 -27 -1
-28 0 -11 12 10 8 15 14 9 15 -5 0 0 4 11 9 11 5 21 9 21 9 1 1 1 -9 0 -21z
m912 4 c9 9 16 8 29 -5 16 -16 15 -17 -27 -18 -25 0 -39 -3 -31 -6 10 -4 8 -9
-10 -20 l-24 -14 25 7 c14 4 28 11 31 17 4 5 34 10 68 11 33 0 61 4 61 8 0 3
10 3 23 0 20 -5 19 -6 -11 -14 -20 -5 -30 -13 -26 -20 5 -7 -1 -9 -20 -4 -15
4 -26 2 -26 -4 0 -10 38 -23 56 -19 24 4 25 -3 1 -21 -14 -11 -37 -20 -52 -20
-14 0 -35 -5 -46 -10 -15 -8 -19 -7 -19 3 0 8 14 17 31 21 37 7 34 32 -4 28
-14 -1 -28 2 -32 8 -10 16 -28 12 -21 -6 4 -10 2 -14 -6 -11 -7 2 -21 0 -31
-5 -10 -5 -28 -6 -40 -2 l-22 7 23 8 c20 7 21 12 12 30 -16 29 -5 49 25 49 14
0 25 6 25 13 1 7 6 5 14 -5 10 -13 15 -15 24 -6z m-842 -22 c0 -15 -6 -20 -20
-18 -39 6 -31 27 14 37 3 0 6 -8 6 -19z m84 10 c0 -5 -2 -10 -4 -10 -3 0 -8 5
-11 10 -3 6 -1 10 4 10 6 0 11 -4 11 -10z m457 -26 c-3 -3 -12 -4 -19 -1 -8 3
-5 6 6 6 11 1 17 -2 13 -5z m-299 -21 c-2 -10 -13 -19 -26 -21 -26 -4 -28 6
-4 24 24 18 34 17 30 -3z m475 10 c-7 -2 -19 -2 -25 0 -7 3 -2 5 12 5 14 0 19
-2 13 -5z m-798 -23 c-3 -5 -13 -10 -21 -10 -8 0 -12 5 -9 10 3 6 13 10 21 10
8 0 12 -4 9 -10z m140 -10 c3 -5 -1 -10 -9 -10 -8 0 -18 5 -21 10 -3 6 1 10 9
10 8 0 18 -4 21 -10z m105 -9 c0 -12 -29 -41 -41 -41 -5 0 -9 5 -9 10 0 6 7
10 15 10 8 0 15 7 15 15 0 8 5 15 10 15 6 0 10 -4 10 -9z m995 -12 c-4 -5 -13
-9 -21 -9 -12 0 -12 2 -2 14 14 15 32 11 23 -5z m-472 -6 c-5 -13 -2 -15 14
-11 12 3 26 2 33 -2 7 -4 -3 -10 -25 -14 -27 -5 -40 -4 -46 6 -7 11 -9 11 -9
0 0 -7 -5 -10 -11 -6 -8 5 -6 10 5 16 9 5 14 13 11 19 -4 5 3 9 14 9 15 0 19
-4 14 -17z m-923 3 c0 -3 -4 -8 -10 -11 -5 -3 -10 -1 -10 4 0 6 5 11 10 11 6
0 10 -2 10 -4z m440 -6 c0 -5 -4 -10 -10 -10 -5 0 -10 5 -10 10 0 6 5 10 10
10 6 0 10 -4 10 -10z m950 -20 c0 -5 -4 -10 -10 -10 -5 0 -10 5 -10 10 0 6 5
10 10 10 6 0 10 -4 10 -10z m-996 -21 c-3 -5 5 -9 18 -9 16 0 19 -3 10 -8 -16
-11 -74 -3 -66 9 3 5 -1 9 -10 9 -8 0 -16 -4 -18 -8 -1 -4 -16 -5 -33 -1 -27
6 -28 7 -5 8 14 1 31 5 38 9 16 11 74 3 66 -9z m-429 -9 c3 -5 1 -10 -4 -10
-6 0 -11 5 -11 10 0 6 2 10 4 10 3 0 8 -4 11 -10z m112 4 c-3 -3 -12 -4 -19
-1 -8 3 -5 6 6 6 11 1 17 -2 13 -5z m493 -4 c0 -5 -6 -10 -14 -10 -8 0 -18 5
-21 10 -3 6 3 10 14 10 12 0 21 -4 21 -10z m190 0 c0 -5 -7 -10 -15 -10 -8 0
-15 5 -15 10 0 6 7 10 15 10 8 0 15 -4 15 -10z m143 -9 c-6 -23 -37 -33 -66
-21 -12 5 -20 9 -17 10 3 0 23 7 45 15 22 8 41 14 42 15 0 0 -1 -9 -4 -19z
m425 -6 c2 -25 -11 -34 -23 -16 -3 5 -17 -1 -32 -15 -25 -23 -71 -35 -58 -15
3 5 -4 12 -15 16 -32 10 -23 21 20 22 22 1 50 9 62 17 31 22 43 20 46 -9z
m-1478 -5 c8 -5 11 -10 5 -10 -5 0 -17 5 -25 10 -8 5 -10 10 -5 10 6 0 17 -5
25 -10z m1100 0 c0 -5 -9 -10 -21 -10 -11 0 -17 5 -14 10 3 6 13 10 21 10 8 0
14 -4 14 -10z m-175 -10 c-3 -5 -17 -10 -31 -10 -13 0 -24 5 -24 10 0 6 14 10
31 10 17 0 28 -4 24 -10z m-115 -10 c8 -5 11 -10 5 -10 -5 0 -17 5 -25 10 -8
5 -10 10 -5 10 6 0 17 -5 25 -10z m480 -41 c-21 -28 -50 -30 -50 -3 0 8 -7 14
-15 14 -8 0 -15 4 -15 9 0 6 22 10 50 9 l50 0 -20 -29z m-85 8 c20 -15 13 -39
-9 -31 -15 6 -29 44 -17 44 4 0 15 -6 26 -13z m152 -13 c2 -7 -6 -10 -21 -7
-14 3 -23 10 -20 15 8 12 36 6 41 -8z m-1112 -22 c-3 -3 -11 0 -18 7 -9 10 -8
11 6 5 10 -3 15 -9 12 -12z m65 8 c0 -5 -2 -10 -4 -10 -3 0 -8 5 -11 10 -3 6
-1 10 4 10 6 0 11 -4 11 -10z m840 -10 c0 -5 -2 -10 -4 -10 -3 0 -8 5 -11 10
-3 6 -1 10 4 10 6 0 11 -4 11 -10z m-1027 -14 c11 -8 14 -17 8 -20 -5 -4 -12
-2 -16 4 -3 5 -15 10 -25 10 -10 0 -22 5 -25 10 -9 15 37 11 58 -4z m55 3
c-11 -6 -24 -6 -34 -1 -12 7 -8 9 18 10 26 1 30 -1 16 -9z m718 -4 c-27 -21
-53 -20 -36 0 7 8 22 15 34 15 21 -1 21 -1 2 -15z m774 -6 c0 -5 -4 -9 -10 -9
-5 0 -10 7 -10 16 0 8 5 12 10 9 6 -3 10 -10 10 -16z m-963 5 c-3 -3 -12 -4
-19 -1 -8 3 -5 6 6 6 11 1 17 -2 13 -5z m117 -3 c13 -5 16 -10 9 -14 -7 -4
-14 -3 -18 3 -4 6 -13 5 -25 -2 -21 -13 -36 -6 -25 11 7 12 31 13 59 2z m226
5 c0 -3 -4 -8 -10 -11 -5 -3 -10 -1 -10 4 0 6 5 11 10 11 6 0 10 -2 10 -4z
m100 -29 c0 -10 -26 -18 -82 -26 -46 -6 -93 -14 -105 -17 -17 -5 -23 -2 -23
11 0 12 5 15 16 11 9 -3 21 -3 27 1 13 9 110 30 145 32 12 0 22 -5 22 -12z
m-985 -17 c-18 -8 -18 -9 5 -10 l25 -1 -23 -12 c-12 -7 -19 -16 -16 -20 4 -4
0 -7 -9 -7 -10 0 -14 6 -11 14 4 11 -6 14 -46 14 -61 1 -81 12 -24 13 21 1 50
5 64 9 34 11 60 11 35 0z m230 -1 c11 -16 1 -19 -13 -3 -7 8 -8 14 -3 14 5 0
13 -5 16 -11z m-418 -5 c-3 -3 -12 -4 -19 -1 -8 3 -5 6 6 6 11 1 17 -2 13 -5z
m340 -28 c-4 -10 -17 -15 -34 -15 l-28 2 28 4 c23 4 27 8 21 26 -5 17 -4 19 6
10 7 -6 10 -19 7 -27z m463 24 c0 -5 -7 -10 -15 -10 -8 0 -15 5 -15 10 0 6 7
10 15 10 8 0 15 -4 15 -10z m175 -30 c17 -6 17 -7 2 -13 -9 -3 -22 0 -29 7 -9
9 -23 11 -51 4 -21 -4 -52 -10 -70 -12 -18 -2 -36 -4 -40 -5 -5 0 -1 -8 8 -17
11 -12 26 -15 50 -11 28 5 35 2 40 -14 7 -21 55 -27 55 -6 0 9 2 9 8 -1 10
-15 72 -5 72 11 0 8 4 7 11 0 16 -16 39 -5 39 17 0 24 6 27 58 35 31 4 42 3
43 -7 0 -7 2 -26 3 -41 1 -16 -2 -31 -6 -33 -5 -3 -8 -2 -7 3 5 27 -2 35 -23
28 -13 -4 -32 -6 -44 -6 -14 0 -26 -11 -37 -34 -9 -19 -22 -35 -28 -35 -6 0
-8 -7 -5 -17 4 -10 4 -14 0 -10 -11 11 -33 -13 -27 -29 4 -10 -2 -17 -16 -21
-14 -3 -20 -11 -17 -20 8 -19 -35 -34 -71 -23 l-28 8 32 1 c36 1 74 43 72 83
-1 22 -1 22 -10 -4 -11 -27 -74 -72 -89 -63 -5 3 -11 1 -15 -5 -4 -6 -11 -8
-16 -5 -5 4 -9 -2 -9 -13 0 -15 6 -18 31 -14 17 2 41 -1 54 -8 20 -11 22 -16
12 -31 -7 -11 -18 -19 -26 -19 -8 0 -11 -7 -8 -19 3 -13 -5 -24 -25 -35 -24
-14 -27 -20 -17 -32 9 -12 9 -13 -3 -9 -10 4 -17 -1 -21 -14 -3 -12 -1 -21 4
-21 12 0 -31 -71 -48 -77 -7 -3 -13 -14 -13 -25 0 -11 -5 -16 -10 -13 -6 4
-18 1 -26 -6 -17 -14 -59 -90 -56 -101 1 -4 -7 -10 -18 -13 -11 -4 -18 -11
-14 -16 3 -5 -8 -28 -25 -51 -17 -23 -31 -36 -31 -29 0 7 -4 10 -9 6 -6 -3
-14 2 -19 11 -6 10 -14 14 -22 9 -9 -6 -9 -9 1 -16 12 -8 11 -11 -1 -19 -12
-8 -13 -12 -2 -19 11 -7 11 -9 -2 -14 -11 -4 -16 -1 -17 11 -1 16 -2 16 -6 -1
-4 -15 -18 -17 -108 -17 l-103 0 2 29 c0 16 4 27 8 25 3 -2 9 0 13 6 4 6 11 7
17 4 7 -4 8 -2 4 4 -8 14 33 74 45 66 5 -3 6 2 3 10 -5 13 0 15 27 10 27 -4
31 -3 19 6 -13 9 -12 11 5 9 38 -3 68 1 61 8 -10 10 -48 11 -74 2 -22 -9 -22
-7 8 31 17 22 38 40 46 40 7 0 11 6 9 13 -6 14 48 100 58 92 4 -3 5 -2 2 1 -2
4 5 19 15 35 16 21 26 27 48 23 25 -4 26 -3 9 10 -15 12 -17 18 -7 36 9 16 15
19 23 11 6 -6 18 -11 27 -10 8 0 4 5 -10 10 l-25 10 23 19 c13 10 22 23 21 27
-4 16 43 32 67 22 19 -6 26 -4 34 10 7 14 6 20 -5 25 -8 3 -12 14 -10 26 3 18
2 20 -10 10 -18 -15 -20 1 -3 18 7 7 9 12 6 12 -6 0 -195 -249 -256 -336 -17
-25 -27 -31 -49 -28 -24 3 -25 3 -5 -4 l23 -7 -29 -39 c-27 -37 -62 -56 -62
-35 0 5 6 9 14 9 8 0 18 6 22 13 4 6 4 9 -1 5 -4 -4 -14 -3 -22 3 -10 9 -13 8
-13 0 0 -7 -4 -10 -9 -6 -5 3 -13 0 -17 -6 -4 -7 -3 -9 3 -6 6 4 13 -3 16 -14
3 -12 10 -18 16 -14 17 10 13 -3 -11 -35 -11 -16 -26 -26 -31 -23 -6 4 -7 1
-3 -6 11 -17 -22 -51 -49 -51 -13 0 -25 -6 -28 -14 -3 -8 -15 -12 -30 -9 -16
3 -26 -1 -30 -11 -4 -9 -1 -16 6 -16 7 -1 2 -6 -10 -13 -20 -11 -62 -12 -307
-8 -38 0 -67 4 -63 7 3 4 25 6 48 6 35 -1 40 2 36 17 -2 10 2 29 9 42 7 13 13
18 14 12 0 -7 5 -13 11 -13 5 0 8 4 5 9 -3 5 3 19 13 32 10 13 16 30 14 37 -3
8 7 12 31 12 19 0 38 4 41 10 3 6 16 11 28 11 16 1 17 3 5 6 -21 5 -12 33 11
33 13 1 13 2 -3 11 -13 8 -29 8 -57 -1 -29 -10 -42 -10 -52 -2 -17 15 -74 19
-106 8 -16 -6 -21 -5 -17 3 4 6 0 11 -8 11 -9 0 -16 5 -16 11 0 5 4 7 10 4 6
-3 7 1 4 9 -9 23 -35 21 -27 -1 5 -15 3 -16 -8 -5 -7 6 -20 12 -28 12 -11 0
-10 -4 5 -15 19 -15 19 -16 -1 -14 -11 1 -38 -6 -59 -15 -21 -10 -47 -15 -57
-13 -10 3 -20 0 -21 -5 -3 -7 -11 -7 -25 1 -28 14 -76 14 -91 -1 -9 -9 -13 -7
-18 5 -3 9 -12 17 -20 17 -8 0 -14 5 -14 11 0 5 5 7 10 4 6 -3 10 0 10 9 0 10
8 13 31 9 18 -2 35 0 38 6 4 6 51 13 104 16 85 6 206 32 153 34 -11 1 -16 6
-13 15 7 16 -24 32 -78 41 -22 3 -52 11 -68 17 -28 11 -36 27 -14 29 6 0 -3 5
-20 10 -36 10 -45 29 -14 29 11 0 23 5 27 11 5 8 -2 10 -23 7 -25 -3 -29 -1
-25 14 5 21 -17 45 -52 54 -14 3 -26 10 -26 16 0 5 10 6 23 2 12 -4 30 -7 40
-6 9 0 17 -6 17 -15 0 -11 6 -14 22 -8 13 4 66 9 118 12 52 3 97 9 100 12 8
12 87 40 94 34 3 -3 22 -7 43 -9 21 -1 46 -5 56 -9 10 -4 17 -3 17 4 0 6 10
11 22 11 12 0 18 3 15 7 -4 3 1 12 10 18 15 11 15 13 -3 18 -10 3 -36 8 -56
12 -38 6 -49 19 -25 29 6 3 -1 2 -17 -1 -20 -4 -27 -2 -22 5 4 7 -2 13 -16 16
-111 23 -128 29 -128 44 0 12 3 13 8 5 5 -8 38 -12 102 -11 52 1 105 -2 118
-6 14 -5 22 -3 22 5 0 9 3 9 14 0 10 -9 20 -9 34 -2 10 5 28 7 40 4 13 -3 22
-1 22 6 0 6 10 10 23 10 18 -1 18 -2 4 -6 -18 -5 -18 -5 0 -18 17 -13 17 -14
-7 -24 -25 -10 -25 -10 6 -9 26 2 30 5 26 25 -5 27 22 42 47 26 10 -6 36 -8
64 -3 26 4 47 4 47 1 0 -3 20 -6 45 -6 30 0 44 4 41 11 -4 10 80 24 169 28 11
1 19 7 18 14 -3 13 7 15 31 6 9 -3 13 -11 10 -18 -3 -6 1 -3 9 7 11 14 16 15
20 5 4 -9 6 -9 6 2 1 20 49 40 126 54 50 9 61 9 66 -3 3 -8 14 -17 24 -21z
m-1045 10 c-19 -12 -30 -12 -30 -1 0 10 31 20 40 14 2 -2 -2 -8 -10 -13z
m-184 1 c-3 -5 3 -11 14 -14 11 -3 23 -1 26 4 3 5 24 8 47 8 23 -1 32 -4 20
-6 -13 -2 -23 -11 -23 -20 0 -13 -10 -15 -72 -9 -40 4 -77 12 -82 17 -6 5 -19
10 -30 11 -17 1 22 8 92 16 7 1 11 -2 8 -7z m521 3 c-3 -3 -12 -4 -19 -1 -8 3
-5 6 6 6 11 1 17 -2 13 -5z m813 -4 c-8 -5 -19 -10 -25 -10 -5 0 -3 5 5 10 8
5 20 10 25 10 6 0 3 -5 -5 -10z m-60 -10 c0 -5 -5 -10 -11 -10 -5 0 -7 5 -4
10 3 6 8 10 11 10 2 0 4 -4 4 -10z m-423 -6 c-3 -3 -12 -4 -19 -1 -8 3 -5 6 6
6 11 1 17 -2 13 -5z m-717 -24 c0 -5 -4 -10 -9 -10 -6 0 -13 5 -16 10 -3 6 1
10 9 10 9 0 16 -4 16 -10z m470 0 c0 -5 -4 -10 -10 -10 -5 0 -10 -7 -10 -15 0
-17 -11 -20 -25 -6 -6 5 -21 11 -35 14 -16 3 -10 5 18 6 23 0 42 6 42 11 0 6
5 10 10 10 6 0 10 -4 10 -10z m-260 -10 c0 -5 -2 -10 -4 -10 -3 0 -8 5 -11 10
-3 6 -1 10 4 10 6 0 11 -4 11 -10z m85 0 c-3 -5 -15 -10 -26 -10 -11 0 -17 5
-14 10 3 6 15 10 26 10 11 0 17 -4 14 -10z m294 -16 c2 -2 -12 -4 -32 -4 -20
0 -38 4 -42 9 -5 9 64 4 74 -5z m-332 -20 c-3 -3 -12 -4 -19 -1 -8 3 -5 6 6 6
11 1 17 -2 13 -5z m993 -14 c0 -5 -5 -10 -11 -10 -5 0 -7 5 -4 10 3 6 8 10 11
10 2 0 4 -4 4 -10z m82 -34 c4 -6 8 -22 8 -34 0 -14 7 -26 18 -29 10 -2 19
-15 20 -29 1 -14 -2 -23 -6 -20 -4 2 -16 -2 -27 -11 -19 -14 -19 -14 10 -13
52 3 65 0 65 -16 0 -8 -4 -12 -10 -9 -5 3 -2 -8 8 -24 9 -17 24 -31 32 -31 12
0 15 -9 12 -40 -4 -37 -2 -40 21 -40 14 0 29 -5 33 -12 5 -7 2 -9 -8 -5 -12 4
-17 -2 -20 -23 -4 -29 11 -46 40 -41 6 1 12 -3 12 -9 0 -5 7 -10 15 -10 23 0
18 -16 -6 -17 -27 -2 -37 -12 -22 -21 8 -5 9 -13 3 -22 -15 -24 -12 -33 10
-27 28 7 105 -14 88 -24 -19 -12 -30 -11 -22 3 4 7 3 8 -4 4 -26 -16 17 -98
45 -89 7 3 20 0 30 -6 13 -8 -12 -10 -95 -11 -73 0 -111 -4 -107 -10 3 -5 -3
-10 -14 -10 -12 0 -21 5 -21 10 0 12 -32 10 -40 -2 -3 -4 -20 -8 -38 -10 -31
-2 -56 -28 -27 -28 9 0 12 -6 9 -15 -4 -9 -19 -15 -36 -15 -17 0 -27 -4 -23
-10 3 -5 19 -10 34 -10 21 0 31 6 36 23 l8 22 4 -23 c4 -20 10 -22 59 -21 30
1 54 6 54 11 0 5 5 6 10 3 6 -3 13 1 16 9 3 9 10 16 16 16 5 0 6 -5 2 -11 -5
-9 4 -10 32 -5 37 7 38 6 19 -8 -18 -14 -12 -15 77 -16 53 0 99 -4 102 -8 2
-4 -49 -7 -115 -7 -91 0 -118 3 -114 13 2 6 0 12 -5 12 -6 0 -10 -4 -10 -10 0
-6 -103 -9 -292 -9 -161 1 -281 4 -265 6 22 4 27 9 27 32 0 26 3 28 35 25 19
-1 35 2 35 7 0 5 -9 9 -21 9 -13 0 -18 4 -13 13 6 10 4 10 -7 0 -18 -18 -49
-16 -49 2 0 9 10 15 26 15 19 0 28 7 35 30 11 30 29 41 29 18 0 -8 3 -9 8 -3
4 6 18 16 32 22 22 10 18 11 -27 7 -54 -4 -72 9 -29 20 15 4 26 14 28 29 2 16
9 21 25 19 12 -2 24 2 28 8 4 6 -7 10 -29 10 -39 0 -48 15 -16 25 13 4 20 15
20 31 0 18 5 24 21 24 12 0 17 4 13 11 -3 6 -15 9 -25 6 -12 -3 -19 0 -19 9 0
8 9 14 20 14 11 0 20 7 20 15 0 8 6 15 14 15 7 0 16 9 19 21 5 18 2 20 -20 14
-30 -7 -28 16 3 25 11 3 19 12 19 20 -1 8 11 20 25 27 l25 12 -32 1 c-18 0
-33 5 -33 10 0 6 9 10 21 10 18 0 21 5 17 35 -3 28 0 36 16 41 24 8 46 28 46
43 0 16 11 13 24 -5 9 -11 17 -13 36 -5 14 5 21 10 16 10 -5 1 -3 8 4 16 10
13 9 15 -9 15 -12 0 -21 -6 -21 -15 0 -17 -16 -20 -25 -5 -10 17 -45 12 -39
-5 4 -9 0 -15 -10 -15 -28 0 -17 34 17 51 34 17 87 15 99 -5z m-455 -118 c2
-22 -4 -23 -22 -4 -15 15 -12 23 8 23 7 0 14 -9 14 -19z m653 -212 c0 -2 -7
-6 -15 -10 -8 -3 -15 -1 -15 4 0 6 7 10 15 10 8 0 15 -2 15 -4z m-3 -32 c-3
-3 -12 -4 -19 -1 -8 3 -5 6 6 6 11 1 17 -2 13 -5z m125 -262 c-12 -8 -72 -4
-72 4 0 2 19 4 43 4 25 0 37 -4 29 -8z m-264 -24 c15 -15 16 -38 2 -38 -5 0
-10 7 -10 15 0 8 -4 15 -10 15 -5 0 -10 5 -10 10 0 14 13 13 28 -2z m-1363
-28 c3 -5 1 -10 -4 -10 -6 0 -11 5 -11 10 0 6 2 10 4 10 3 0 8 -4 11 -10z
m1425 0 c0 -5 -7 -10 -15 -10 -8 0 -15 5 -15 10 0 6 7 10 15 10 8 0 15 -4 15
-10z m-582 -65 c10 -10 -757 -4 -787 6 -15 5 141 7 377 5 222 -3 407 -7 410
-11z m209 -12 c-20 -2 -52 -2 -70 0 -17 2 0 4 38 4 39 0 53 -2 32 -4z"/>
<path d="M1220 1190 c-21 -7 -21 -8 -5 -9 11 0 27 4 35 9 18 11 5 11 -30 0z"/>
<path d="M1297 1169 c7 -7 15 -10 18 -7 3 3 -2 9 -12 12 -14 6 -15 5 -6 -5z"/>
<path d="M1214 1158 c-10 -15 -1 -16 36 -3 l35 13 -33 -1 c-18 0 -35 -4 -38
-9z"/>
<path d="M825 1150 c3 -5 8 -10 11 -10 2 0 4 5 4 10 0 6 -5 10 -11 10 -5 0 -7
-4 -4 -10z"/>
<path d="M1345 1132 c-22 -16 -34 -49 -22 -61 6 -6 16 -11 22 -11 5 0 3 5 -5
10 -13 8 -13 13 3 40 19 31 19 35 2 22z"/>
<path d="M1234 1107 c-3 -10 -4 -21 -1 -24 10 -10 45 8 49 25 7 26 -40 25 -48
-1z"/>
<path d="M1178 1049 c-10 -5 -18 -17 -18 -24 0 -8 -5 -14 -11 -12 -6 1 -14 -4
-16 -10 -12 -32 34 2 61 45 9 14 6 15 -16 1z"/>
<path d="M1210 1035 c-10 -12 -10 -15 3 -15 8 0 17 7 21 15 3 8 2 15 -3 15 -5
0 -14 -7 -21 -15z"/>
<path d="M1334 1025 c2 -5 10 -8 17 -6 8 2 22 4 32 5 9 0 17 4 17 8 0 4 -16 6
-35 5 -19 -1 -33 -6 -31 -12z"/>
<path d="M690 1010 c0 -5 7 -10 15 -10 8 0 15 5 15 10 0 6 -7 10 -15 10 -8 0
-15 -4 -15 -10z"/>
<path d="M744 978 c-7 -10 45 -9 71 1 14 6 7 8 -23 7 -24 0 -46 -4 -48 -8z"/>
<path d="M1049 953 c-15 -15 -40 -27 -59 -28 -17 -2 -37 -8 -43 -15 -9 -10 -8
-11 8 -6 11 3 36 6 55 8 33 2 98 48 68 48 -9 0 -9 3 2 10 8 5 11 10 5 9 -5 0
-22 -11 -36 -26z"/>
<path d="M1363 945 c-8 -19 -8 -25 0 -25 16 0 45 20 30 20 -6 0 -13 7 -15 15
-2 10 -7 7 -15 -10z"/>
<path d="M1085 930 c-3 -5 1 -10 9 -10 9 0 16 5 16 10 0 6 -4 10 -9 10 -6 0
-13 -4 -16 -10z"/>
<path d="M1236 911 c-4 -5 3 -7 14 -4 23 6 26 13 6 13 -8 0 -17 -4 -20 -9z"/>
<path d="M908 903 c7 -3 16 -2 19 1 4 3 -2 6 -13 5 -11 0 -14 -3 -6 -6z"/>
<path d="M1123 883 c0 -9 4 -10 14 -2 7 6 13 12 13 14 0 1 -6 2 -13 2 -8 0
-14 -6 -14 -14z"/>
<path d="M970 873 c0 -7 -3 -12 -7 -12 -20 3 -34 -2 -28 -11 3 -5 1 -10 -6
-10 -7 0 -9 -3 -5 -7 4 -5 13 -1 19 8 7 9 17 17 22 18 6 2 21 9 35 17 l25 13
-27 -2 c-16 -1 -28 -7 -28 -14z"/>
<path d="M1046 874 c-3 -7 2 -10 15 -7 22 6 26 20 4 20 -8 0 -16 -6 -19 -13z"/>
<path d="M1320 873 c0 -5 14 -8 30 -8 17 0 30 3 30 8 0 4 -13 7 -30 7 -16 0
-30 -3 -30 -7z"/>
<path d="M1290 860 c0 -5 5 -10 10 -10 6 0 10 5 10 10 0 6 -4 10 -10 10 -5 0
-10 -4 -10 -10z"/>
<path d="M1265 847 c-4 -10 -5 -21 -1 -24 10 -10 18 4 13 24 -4 17 -4 17 -12
0z"/>
<path d="M1210 843 c8 -3 18 -11 22 -17 9 -14 22 -1 13 13 -3 6 -16 11 -28 10
-15 0 -17 -2 -7 -6z"/>
<path d="M1060 810 c-6 -11 -9 -20 -8 -20 2 0 11 9 21 20 9 11 13 20 7 20 -5
0 -14 -9 -20 -20z"/>
<path d="M988 813 c7 -3 16 -2 19 1 4 3 -2 6 -13 5 -11 0 -14 -3 -6 -6z"/>
<path d="M883 795 c-9 -24 0 -25 26 -4 23 19 23 19 2 19 -12 0 -24 -7 -28 -15z"/>
<path d="M1267 795 c3 -8 9 -12 14 -9 12 7 11 11 -5 17 -10 4 -13 1 -9 -8z"/>
<path d="M1315 800 c-3 -5 1 -10 9 -10 9 0 16 5 16 10 0 6 -4 10 -9 10 -6 0
-13 -4 -16 -10z"/>
<path d="M1120 786 c0 -2 7 -7 16 -10 8 -3 12 -2 9 4 -6 10 -25 14 -25 6z"/>
<path d="M1252 761 c2 -7 7 -12 11 -12 12 1 9 15 -3 20 -7 2 -11 -2 -8 -8z"/>
<path d="M1293 760 c2 -8 -5 -23 -16 -33 -11 -9 -17 -20 -13 -24 3 -4 16 2 27
14 17 17 19 24 10 39 -7 11 -10 13 -8 4z"/>
<path d="M1105 740 c-3 -5 1 -10 10 -10 9 0 13 5 10 10 -3 6 -8 10 -10 10 -2
0 -7 -4 -10 -10z"/>
<path d="M782 724 c-15 -16 -16 -34 -2 -34 6 0 10 6 10 14 0 8 8 16 18 18 14
3 14 5 2 10 -8 3 -21 -1 -28 -8z"/>
<path d="M1010 730 c0 -5 5 -10 11 -10 5 0 7 5 4 10 -3 6 -8 10 -11 10 -2 0
-4 -4 -4 -10z"/>
<path d="M877 711 c-3 -14 -1 -18 9 -14 8 3 12 9 9 13 -3 5 1 11 7 13 8 4 7 6
-3 6 -9 1 -19 -8 -22 -18z"/>
<path d="M1156 717 c3 -10 9 -15 12 -12 3 3 0 11 -7 18 -10 9 -11 8 -5 -6z"/>
<path d="M1120 705 c0 -9 6 -12 15 -9 8 4 15 7 15 9 0 2 -7 5 -15 9 -9 3 -15
0 -15 -9z"/>
<path d="M1210 710 c-13 -8 -12 -10 3 -10 9 0 17 5 17 10 0 12 -1 12 -20 0z"/>
<path d="M726 695 c-9 -23 -8 -24 14 -18 12 3 19 10 17 16 -6 18 -24 19 -31 2z"/>
<path d="M161 684 c0 -11 3 -14 6 -6 3 7 2 16 -1 19 -3 4 -6 -2 -5 -13z"/>
<path d="M195 690 c3 -5 8 -10 11 -10 2 0 4 5 4 10 0 6 -5 10 -11 10 -5 0 -7
-4 -4 -10z"/>
<path d="M80 659 c0 -5 5 -7 10 -4 6 3 10 8 10 11 0 2 -4 4 -10 4 -5 0 -10 -5
-10 -11z"/>
<path d="M680 644 c0 -7 -3 -20 -7 -30 -5 -13 -1 -12 16 5 15 15 30 21 43 17
14 -3 18 -2 11 5 -16 16 -63 18 -63 3z"/>
<path d="M1200 645 c0 -8 2 -15 4 -15 2 0 6 7 10 15 3 8 1 15 -4 15 -6 0 -10
-7 -10 -15z"/>
<path d="M815 643 c11 -3 23 -10 26 -15 3 -5 9 -3 12 6 5 13 0 16 -26 15 -21
-1 -25 -3 -12 -6z"/>
<path d="M1176 615 c-3 -8 -1 -15 4 -15 6 0 10 7 10 15 0 8 -2 15 -4 15 -2 0
-6 -7 -10 -15z"/>
<path d="M617 567 c-3 -8 1 -14 8 -14 7 0 11 6 8 14 -3 7 -6 13 -8 13 -2 0 -5
-6 -8 -13z"/>
<path d="M863 573 c-21 -8 -15 -22 7 -16 11 3 20 9 20 14 0 10 -8 10 -27 2z"/>
<path d="M580 551 c0 -25 6 -27 13 -6 4 8 2 17 -3 20 -6 4 -10 -3 -10 -14z"/>
<path d="M1086 528 c3 -4 11 -5 19 -1 21 7 19 12 -4 10 -11 0 -18 -5 -15 -9z"/>
<path d="M543 489 c10 -6 14 -15 10 -22 -4 -7 0 -6 10 2 25 20 21 31 -10 31
-24 -1 -26 -2 -10 -11z"/>
<path d="M508 473 c6 -2 10 -9 6 -14 -9 -15 2 -10 16 6 10 13 9 15 -11 14 -13
0 -18 -3 -11 -6z"/>
<path d="M481 454 c0 -11 3 -14 6 -6 3 7 2 16 -1 19 -3 4 -6 -2 -5 -13z"/>
<path d="M1740 1023 c0 -11 3 -14 8 -7 4 6 14 14 22 17 10 4 8 6 -7 6 -16 1
-23 -5 -23 -16z"/>
<path d="M1668 1023 c7 -3 16 -2 19 1 4 3 -2 6 -13 5 -11 0 -14 -3 -6 -6z"/>
<path d="M1755 946 c0 -19 3 -21 18 -12 9 6 17 14 17 19 0 4 4 6 9 2 5 -3 12
-1 16 5 3 5 -3 10 -14 10 -12 0 -21 -5 -21 -11 0 -8 -4 -8 -12 -1 -10 8 -13 5
-13 -12z"/>
<path d="M1627 929 l-27 -30 26 4 c15 2 33 12 40 22 8 10 14 13 14 7 0 -7 12
-12 27 -12 25 0 26 0 8 20 -25 28 -55 25 -88 -11z"/>
<path d="M1675 870 c-3 -5 3 -10 14 -10 11 0 23 5 26 10 3 6 -3 10 -14 10 -11
0 -23 -4 -26 -10z"/>
<path d="M1798 873 c7 -3 16 -2 19 1 4 3 -2 6 -13 5 -11 0 -14 -3 -6 -6z"/>
<path d="M1771 854 c0 -11 3 -14 6 -6 3 7 2 16 -1 19 -3 4 -6 -2 -5 -13z"/>
<path d="M1841 854 c0 -11 3 -14 6 -6 3 7 2 16 -1 19 -3 4 -6 -2 -5 -13z"/>
<path d="M1651 844 c0 -11 3 -14 6 -6 3 7 2 16 -1 19 -3 4 -6 -2 -5 -13z"/>
<path d="M1896 805 c-3 -8 -1 -15 4 -15 6 0 10 7 10 15 0 8 -2 15 -4 15 -2 0
-6 -7 -10 -15z"/>
<path d="M1796 774 c-4 -15 -4 -29 -1 -32 3 -3 8 4 12 16 3 12 10 22 15 22 5
0 6 5 3 10 -11 17 -23 11 -29 -16z"/>
<path d="M1840 790 c0 -5 7 -10 15 -10 8 0 15 5 15 10 0 6 -7 10 -15 10 -8 0
-15 -4 -15 -10z"/>
<path d="M1630 756 c0 -9 5 -16 10 -16 6 0 10 4 10 9 0 6 -4 13 -10 16 -5 3
-10 -1 -10 -9z"/>
<path d="M1570 740 c0 -5 5 -10 11 -10 5 0 7 5 4 10 -3 6 -8 10 -11 10 -2 0
-4 -4 -4 -10z"/>
<path d="M1878 703 c-45 -4 -48 -6 -47 -31 1 -23 2 -24 7 -7 8 23 29 26 41 6
12 -19 51 -4 51 20 0 10 -1 18 -2 17 -2 -1 -24 -3 -50 -5z"/>
<path d="M1628 683 c7 -3 16 -2 19 1 4 3 -2 6 -13 5 -11 0 -14 -3 -6 -6z"/>
<path d="M1682 673 c2 -9 11 -17 21 -19 9 -1 14 2 11 8 -4 6 0 14 7 19 10 6 6
9 -14 9 -21 0 -28 -4 -25 -17z"/>
<path d="M1890 608 c-48 -13 -19 -29 35 -18 23 4 30 8 17 9 -13 0 -20 6 -17
11 3 6 5 10 3 9 -2 0 -19 -5 -38 -11z"/>
<path d="M1644 602 c-7 -4 -8 -15 -3 -27 7 -18 8 -18 8 -2 1 10 6 15 11 12 6
-3 10 1 10 9 0 17 -9 20 -26 8z"/>
<path d="M1978 603 c7 -3 16 -2 19 1 4 3 -2 6 -13 5 -11 0 -14 -3 -6 -6z"/>
<path d="M1558 593 c7 -3 16 -2 19 1 4 3 -2 6 -13 5 -11 0 -14 -3 -6 -6z"/>
<path d="M1974 558 c-3 -4 -4 -8 -2 -9 34 -8 48 -7 48 4 0 14 -38 18 -46 5z"/>
<path d="M1500 485 c0 -8 4 -15 8 -15 5 0 9 7 9 15 0 8 -4 15 -9 15 -4 0 -8
-7 -8 -15z"/>
<path d="M1658 492 c-18 -2 -28 -11 -32 -28 -4 -13 -13 -24 -22 -24 -8 0 -13
-4 -9 -10 7 -12 35 -1 35 14 0 23 22 36 43 25 15 -9 18 -8 12 2 -6 9 -3 11 9
6 10 -4 27 -1 38 7 20 14 19 15 -13 13 -19 -1 -46 -3 -61 -5z"/>
<path d="M1490 431 c0 -6 9 -9 20 -8 11 1 20 5 20 9 0 4 -9 8 -20 8 -11 0 -20
-4 -20 -9z"/>
<path d="M1910 1220 c-11 -7 -12 -12 -4 -20 8 -8 24 -9 55 -2 l44 10 -43 1
c-26 1 -41 5 -37 11 8 12 4 12 -15 0z"/>
<path d="M2330 1180 c8 -5 24 -10 34 -10 26 0 18 6 -19 14 -22 5 -26 4 -15 -4z"/>
<path d="M2458 1125 c-3 -4 -40 -7 -81 -9 -55 -1 -79 -6 -91 -19 -10 -9 -29
-17 -44 -17 -21 0 -24 -2 -12 -10 8 -5 26 -10 40 -10 19 0 22 -2 11 -9 -12 -8
-10 -12 12 -22 20 -9 41 -9 89 -1 250 46 334 58 339 51 3 -5 14 -2 25 7 18 14
14 15 -43 11 -35 -3 -63 -1 -63 4 0 5 -11 9 -24 9 -14 0 -27 4 -30 8 -6 10
-119 16 -128 7z m-31 -31 c-3 -3 -12 -4 -19 -1 -8 3 -5 6 6 6 11 1 17 -2 13
-5z"/>
<path d="M2691 1021 c-10 -6 -5 -11 19 -16 19 -4 36 -3 43 4 8 8 7 11 -5 11
-9 0 -22 2 -30 5 -7 3 -19 1 -27 -4z"/>
</g>
</svg>
