<?xml version="1.0" standalone="no"?>
<!DOCTYPE svg PUBLIC "-//W3C//DTD SVG 20010904//EN"
 "http://www.w3.org/TR/2001/REC-SVG-20010904/DTD/svg10.dtd">
<svg version="1.0" xmlns="http://www.w3.org/2000/svg"
 width="263.000000pt" height="192.000000pt" viewBox="0 0 263.000000 192.000000"
 preserveAspectRatio="xMidYMid meet">

<g transform="translate(0.000000,192.000000) scale(0.100000,-0.100000)"
fill="#000000" stroke="none">
<path d="M1 1453 c0 -258 4 -459 8 -448 l8 20 5 -20 c4 -14 8 -7 13 23 8 45
25 67 25 33 0 -12 5 -21 10 -21 9 0 11 9 14 62 1 10 6 18 11 18 13 1 16 -32 4
-46 -7 -8 -2 -13 15 -16 24 -5 26 -2 32 53 5 45 13 64 36 88 16 17 38 33 49
36 10 4 19 10 19 15 0 5 -21 -3 -47 -18 -25 -14 -44 -21 -42 -16 3 5 11 21 18
36 8 15 18 25 23 22 4 -3 8 0 8 6 0 6 5 8 10 5 6 -4 17 -1 25 5 24 20 153 79
159 73 3 -4 6 1 6 9 0 14 -5 15 -43 3 -54 -16 -187 -85 -187 -97 0 -4 -4 -7
-9 -6 -5 2 -23 -9 -40 -24 -17 -16 -35 -28 -39 -28 -5 0 -15 -11 -22 -25 -7
-14 -18 -25 -23 -25 -14 0 -3 110 12 119 10 6 9 11 -2 22 -16 17 -11 39 9 39
9 0 13 4 10 8 -3 5 4 23 15 40 20 34 25 72 10 72 -5 0 -12 -6 -14 -12 -4 -8
-6 -9 -6 -2 -1 6 6 17 14 24 8 7 15 18 15 25 0 6 9 20 20 30 26 23 26 10 0
-22 -25 -32 -25 -43 -1 -43 15 0 18 5 13 22 -4 17 -2 20 11 15 9 -3 21 1 29
11 12 15 11 16 -5 3 -12 -10 -17 -10 -17 -2 0 16 25 41 40 41 6 0 8 5 4 12 -5
8 0 9 14 6 26 -7 27 -5 5 17 -15 15 -18 15 -40 -11 -13 -15 -25 -25 -28 -23
-2 3 14 26 36 51 73 86 306 219 489 279 36 11 67 23 69 25 2 2 -165 4 -372 4
l-377 0 1 -467z"/>
<path d="M802 1903 c18 -21 78 -146 78 -162 0 -6 4 -19 9 -29 5 -9 17 -36 27
-60 13 -33 22 -42 36 -39 12 4 18 -1 19 -11 0 -11 2 -12 6 -4 6 14 29 16 38 2
4 -6 -1 -7 -11 -3 -14 5 -15 1 -9 -38 6 -36 5 -42 -6 -33 -24 19 -319 -39
-319 -63 0 -16 17 -17 22 -2 3 9 9 9 25 0 26 -14 60 -14 65 -1 2 5 46 18 98
29 l95 20 23 -25 c27 -31 29 -54 3 -30 -11 10 -25 15 -30 11 -17 -10 -13 -24
7 -19 13 4 21 -7 35 -48 10 -29 18 -61 18 -70 0 -10 4 -20 10 -23 5 -4 9 -15
9 -26 0 -10 5 -19 11 -19 6 0 9 -7 5 -15 -12 -33 2 -42 52 -33 26 5 56 10 66
12 11 1 22 8 24 14 2 7 8 12 14 12 7 0 6 -5 -1 -14 -9 -11 -8 -15 6 -21 10 -5
22 -7 26 -6 5 1 6 -3 2 -9 -4 -7 -13 -7 -26 1 -28 14 -33 7 -12 -18 10 -11 29
-35 43 -53 l24 -32 93 5 c54 3 93 2 93 -4 0 -5 5 -9 10 -9 6 0 10 7 10 16 0
14 -12 16 -95 11 -56 -3 -95 -2 -95 4 0 5 27 9 60 9 53 0 60 2 60 20 0 16 7
20 40 22 22 0 46 1 53 2 6 1 12 -8 12 -19 0 -15 8 -21 29 -23 25 -3 28 -1 23
17 -3 12 -1 21 4 21 5 0 9 10 9 23 0 21 3 22 100 23 79 0 100 -3 96 -13 -3 -7
0 -13 7 -13 8 0 6 -4 -3 -10 -12 -8 -9 -10 13 -10 16 0 26 4 23 9 -3 5 1 12
10 15 8 3 12 2 9 -4 -3 -6 -1 -10 4 -10 6 0 11 6 12 13 0 6 4 3 9 -8 7 -16 9
-16 9 -4 2 35 71 32 71 -2 0 -11 5 -19 11 -19 5 0 7 4 4 10 -3 5 4 10 17 9 13
0 42 3 66 7 34 5 47 3 63 -12 17 -15 26 -16 59 -7 33 8 43 7 67 -9 20 -13 38
-17 60 -13 30 5 108 -13 155 -36 10 -5 24 -9 32 -9 7 0 25 -9 39 -20 14 -11
34 -20 45 -20 11 0 22 -7 26 -15 3 -8 12 -15 21 -15 13 0 15 52 15 445 l0 445
-922 0 c-876 0 -920 -1 -906 -17z m488 -769 c0 -8 -4 -12 -10 -9 -5 3 -10 10
-10 16 0 5 5 9 10 9 6 0 10 -7 10 -16z"/>
<path d="M770 1890 c0 -6 -6 -10 -12 -9 -28 3 -48 -2 -48 -12 0 -6 9 -9 20 -6
11 3 20 0 20 -6 0 -7 7 -4 14 6 7 9 19 17 26 17 7 0 10 -7 5 -17 -5 -14 -4
-15 6 -6 10 10 9 15 -1 28 -14 17 -30 20 -30 5z"/>
<path d="M650 1850 c0 -5 -13 -10 -30 -10 -16 0 -30 -4 -30 -10 0 -5 -6 -7
-12 -5 -16 6 -45 -11 -36 -20 6 -7 67 9 100 26 10 5 27 9 38 9 11 0 20 5 20
10 0 6 -11 10 -25 10 -14 0 -25 -4 -25 -10z"/>
<path d="M495 1790 c-4 -6 6 -10 22 -10 22 0 25 2 13 10 -19 12 -27 12 -35 0z"/>
<path d="M453 1773 c-22 -8 -14 -23 12 -23 14 0 25 4 25 9 0 11 -21 19 -37 14z"/>
<path d="M400 1740 c0 -5 10 -10 23 -10 18 0 19 2 7 10 -19 13 -30 13 -30 0z"/>
<path d="M795 1740 c-3 -5 -1 -10 4 -10 6 0 11 5 11 10 0 6 -2 10 -4 10 -3 0
-8 -4 -11 -10z"/>
<path d="M362 1723 c-6 -3 -10 -9 -6 -14 3 -5 -4 -9 -15 -9 -23 0 -28 -15 -9
-26 6 -4 17 1 25 12 8 10 21 18 29 16 17 -4 19 14 2 20 -7 3 -19 3 -26 1z"/>
<path d="M600 1680 c-13 -8 -12 -10 3 -10 9 0 17 5 17 10 0 12 -1 12 -20 0z"/>
<path d="M284 1665 c-4 -8 -10 -15 -15 -15 -6 0 -19 -9 -31 -20 -19 -17 -19
-20 -5 -20 9 0 17 5 17 10 0 6 9 10 21 10 11 0 17 5 14 10 -3 6 4 14 16 18 19
8 20 10 5 15 -10 4 -19 1 -22 -8z"/>
<path d="M490 1631 c0 -5 9 -19 20 -32 l19 -24 1 33 c0 25 -4 32 -20 32 -11 0
-20 -4 -20 -9z"/>
<path d="M926 1585 c4 -8 8 -15 10 -15 2 0 4 7 4 15 0 8 -4 15 -10 15 -5 0 -7
-7 -4 -15z"/>
<path d="M498 1563 c7 -3 16 -2 19 1 4 3 -2 6 -13 5 -11 0 -14 -3 -6 -6z"/>
<path d="M250 1496 c0 -8 5 -18 10 -21 6 -3 10 3 10 14 0 12 -4 21 -10 21 -5
0 -10 -6 -10 -14z"/>
<path d="M640 1495 c0 -8 7 -15 15 -15 8 0 15 7 15 15 0 8 -7 15 -15 15 -8 0
-15 -7 -15 -15z"/>
<path d="M217 1489 c7 -7 15 -10 18 -7 3 3 -2 9 -12 12 -14 6 -15 5 -6 -5z"/>
<path d="M186 1467 c3 -10 9 -15 12 -12 3 3 0 11 -7 18 -10 9 -11 8 -5 -6z"/>
<path d="M546 1440 c-54 -16 -100 -31 -103 -34 -10 -10 9 -27 20 -18 7 5 27
13 45 17 18 4 29 11 26 17 -4 6 1 8 15 3 13 -4 21 -2 21 5 0 8 9 10 25 6 15
-4 25 -2 25 4 0 6 3 9 8 7 4 -3 13 1 20 9 17 18 14 18 -102 -16z"/>
<path d="M166 1447 c3 -10 9 -15 12 -12 3 3 0 11 -7 18 -10 9 -11 8 -5 -6z"/>
<path d="M257 1453 c-4 -3 -7 -11 -7 -17 0 -6 5 -5 12 2 6 6 9 14 7 17 -3 3
-9 2 -12 -2z"/>
<path d="M808 1440 c-48 -10 -102 -23 -120 -29 -18 -6 -76 -22 -128 -35 -110
-29 -170 -52 -170 -66 0 -6 15 -3 33 6 50 26 258 83 295 80 12 0 28 -8 33 -16
9 -13 10 -13 6 2 -8 24 9 34 85 48 52 11 70 11 81 1 12 -9 16 -8 20 3 4 9 -3
16 -16 20 -27 7 -14 8 -119 -14z"/>
<path d="M146 1427 c3 -10 9 -15 12 -12 3 3 0 11 -7 18 -10 9 -11 8 -5 -6z"/>
<path d="M126 1407 c3 -10 9 -15 12 -12 3 3 0 11 -7 18 -10 9 -11 8 -5 -6z"/>
<path d="M345 1390 c-3 -5 1 -10 10 -10 9 0 13 5 10 10 -3 6 -8 10 -10 10 -2
0 -7 -4 -10 -10z"/>
<path d="M796 1371 c-17 -18 -26 -36 -23 -45 5 -11 0 -16 -13 -16 -11 0 -20
-5 -20 -12 0 -6 3 -9 6 -5 4 3 19 0 34 -8 30 -16 45 -66 28 -98 -8 -16 -6 -18
29 -12 65 11 63 7 63 109 0 84 -2 97 -19 106 -32 17 -56 12 -85 -19z m24 -81
c0 -5 -2 -10 -4 -10 -3 0 -8 5 -11 10 -3 6 -1 10 4 10 6 0 11 -4 11 -10z"/>
<path d="M122 1360 c0 -14 2 -19 5 -12 2 6 2 18 0 25 -3 6 -5 1 -5 -13z"/>
<path d="M645 1352 c-11 -2 -28 -11 -37 -19 -16 -15 -16 -17 5 -34 22 -16 23
-22 16 -86 -4 -37 -6 -69 -4 -71 1 -2 14 0 29 4 23 5 26 11 28 53 0 25 2 67 3
93 3 51 -8 67 -40 60z"/>
<path d="M313 1287 c-24 -11 -43 -25 -43 -29 0 -7 95 35 109 48 13 12 -30 0
-66 -19z"/>
<path d="M457 1299 c-23 -13 -22 -31 3 -46 16 -11 19 -22 16 -78 -2 -36 1 -62
5 -58 7 7 28 125 29 160 0 19 -33 33 -53 22z"/>
<path d="M570 1260 c0 -6 7 -10 15 -10 8 0 15 2 15 4 0 2 -7 6 -15 10 -8 3
-15 1 -15 -4z"/>
<path d="M311 1236 c-14 -17 -7 -36 14 -36 8 0 19 -8 25 -17 8 -14 10 -10 8
22 -3 43 -25 58 -47 31z"/>
<path d="M1123 1193 c-24 -8 -43 -19 -43 -24 0 -6 5 -7 11 -4 6 4 27 7 47 7
34 0 51 10 52 31 0 10 -19 8 -67 -10z"/>
<path d="M202 1187 c-8 -9 -4 -15 14 -24 22 -10 24 -9 24 13 0 26 -21 32 -38
11z"/>
<path d="M1607 1183 c-10 -10 -8 -55 2 -49 5 3 11 17 13 31 5 24 -2 32 -15 18z"/>
<path d="M1894 1154 c3 -9 6 -27 6 -40 0 -19 5 -24 26 -24 27 0 26 -2 14 78 0
1 -12 2 -26 2 -20 0 -25 -4 -20 -16z"/>
<path d="M730 1140 c0 -5 5 -10 10 -10 6 0 10 5 10 10 0 6 -4 10 -10 10 -5 0
-10 -4 -10 -10z"/>
<path d="M2185 1140 c-3 -5 -1 -11 5 -15 5 -3 10 -19 10 -36 0 -23 4 -29 21
-29 15 0 19 4 15 16 -3 9 -6 26 -6 39 0 23 -35 42 -45 25z"/>
<path d="M341 1124 c0 -11 3 -14 6 -6 3 7 2 16 -1 19 -3 4 -6 -2 -5 -13z"/>
<path d="M1070 1133 c-243 -24 -415 -48 -570 -80 -41 -8 -84 -17 -95 -18 -11
-2 -63 -18 -115 -35 -227 -74 -290 -103 -290 -135 0 -21 2 -21 37 11 42 39 53
42 53 14 0 -21 -32 -44 -45 -32 -4 4 -5 -21 -2 -56 4 -45 2 -60 -6 -56 -8 5
-7 2 0 -7 16 -16 17 -63 3 -90 -11 -19 -4 -24 16 -11 10 6 33 110 36 162 1 8
7 21 15 28 7 7 13 19 13 26 0 6 16 18 36 25 46 17 37 27 -11 11 -42 -14 -51
-10 -37 17 16 30 345 131 515 158 25 4 44 2 54 -7 13 -10 17 -10 20 0 6 17 23
15 23 -3 0 -8 7 -15 15 -15 8 0 15 9 15 19 0 21 15 25 145 37 39 3 84 8 100
11 17 3 73 7 125 10 l95 5 24 -44 c22 -38 22 -41 4 -25 -11 9 -26 17 -34 17
-10 -1 -9 -4 4 -11 10 -6 22 -22 27 -35 5 -13 16 -24 25 -24 25 0 20 81 -8
113 -20 25 -29 27 -87 25 -36 0 -81 -3 -100 -5z m-980 -297 c0 -2 -7 -7 -16
-10 -8 -3 -12 -2 -9 4 6 10 25 14 25 6z"/>
<path d="M1962 1100 c0 -19 2 -27 5 -17 2 9 2 25 0 35 -3 9 -5 1 -5 -18z"/>
<path d="M2241 1114 c0 -11 3 -14 6 -6 3 7 2 16 -1 19 -3 4 -6 -2 -5 -13z"/>
<path d="M1535 1111 c-3 -5 -1 -12 5 -16 27 -17 5 -26 -57 -25 -38 1 -70 1
-73 0 -18 -9 -90 -6 -90 4 0 6 -4 4 -9 -4 -16 -24 -4 -28 76 -25 48 2 84 -2
92 -9 12 -8 13 -8 7 2 -4 7 -2 12 6 13 7 1 29 3 48 4 42 4 72 -3 65 -16 -3 -5
1 -6 9 -3 9 3 16 11 16 18 0 6 7 3 14 -7 12 -15 14 -16 20 -2 3 10 18 15 42
15 73 0 25 11 -54 12 -45 1 -79 5 -76 10 3 4 -2 8 -10 8 -9 0 -16 5 -16 10 0
11 31 10 40 -1 3 -4 11 -1 18 7 11 12 6 14 -27 14 -22 0 -42 -4 -46 -9z"/>
<path d="M1683 1114 c9 -3 15 -10 12 -15 -4 -5 -1 -9 5 -9 19 0 5 25 -16 27
-16 2 -16 1 -1 -3z"/>
<path d="M1505 1090 c3 -5 8 -10 11 -10 2 0 4 5 4 10 0 6 -5 10 -11 10 -5 0
-7 -4 -4 -10z"/>
<path d="M956 1082 c-3 -5 1 -9 9 -9 8 0 15 4 15 9 0 4 -4 8 -9 8 -6 0 -12 -4
-15 -8z"/>
<path d="M2252 1070 c0 -14 2 -19 5 -12 2 6 2 18 0 25 -3 6 -5 1 -5 -13z"/>
<path d="M2416 1053 c17 -67 21 -77 32 -81 7 -2 11 6 10 22 -1 14 -5 26 -9 26
-3 0 -5 14 -3 30 3 24 0 30 -16 30 -17 0 -19 -4 -14 -27z"/>
<path d="M1021 1060 c-42 -5 -77 -14 -82 -21 -11 -18 -3 -24 13 -11 7 5 57 13
111 17 76 6 97 5 97 -5 0 -8 2 -11 5 -8 3 3 3 13 -1 22 -7 18 -22 18 -143 6z"/>
<path d="M785 1034 c-49 -7 -99 -15 -110 -17 -11 -2 -55 -10 -97 -17 -43 -7
-78 -17 -78 -22 0 -5 8 -7 18 -5 9 3 46 11 81 18 57 11 64 11 73 -5 7 -13 13
-14 22 -6 10 8 12 4 9 -17 -4 -22 -2 -25 6 -13 9 13 11 13 11 -2 0 -17 34 -34
59 -29 9 2 12 -3 7 -14 -3 -9 -6 -21 -6 -26 0 -6 -7 -6 -18 0 -30 16 -62 9
-62 -13 0 -20 0 -20 15 0 14 19 14 18 15 -3 0 -25 34 -33 44 -10 3 6 4 -19 1
-58 l-6 -70 51 3 50 4 0 36 c0 21 3 67 6 103 6 59 4 69 -15 88 -13 13 -34 21
-56 21 -21 0 -35 5 -36 13 0 6 -4 2 -9 -10 -9 -23 -30 -32 -30 -13 0 6 5 10
11 10 6 0 9 7 5 15 -3 8 -3 15 0 15 3 0 37 5 76 11 54 8 72 8 78 -1 5 -8 9 -7
13 5 4 9 3 13 -3 10 -6 -3 -10 -1 -10 4 0 13 2 13 -115 -5z"/>
<path d="M2568 1035 c-10 -10 7 -68 21 -73 10 -3 11 4 6 29 -8 36 -18 53 -27
44z"/>
<path d="M1019 995 c-34 -18 -53 -64 -44 -106 5 -23 10 -28 16 -18 5 9 9 -12
9 -56 0 -49 -3 -65 -10 -55 -8 13 -10 12 -10 -2 0 -14 8 -18 35 -18 35 0 35 0
35 45 0 62 27 59 37 -4 18 -101 17 -104 -10 -97 -14 3 -29 2 -32 -4 -4 -6 6
-10 24 -10 35 0 46 13 43 52 -2 19 2 28 13 28 12 0 15 18 15 103 0 94 -2 105
-22 125 -31 28 -68 35 -99 17z"/>
<path d="M2063 1003 c-16 -6 -17 -35 -1 -51 10 -10 10 -17 0 -32 -13 -21 -15
-20 48 -25 24 -2 26 2 27 39 3 58 -29 88 -74 69z"/>
<path d="M2617 1003 c-3 -5 -1 -17 4 -28 7 -17 8 -17 8 8 1 27 -4 34 -12 20z"/>
<path d="M1256 975 c4 -8 11 -15 16 -15 6 0 5 6 -2 15 -7 8 -14 15 -16 15 -2
0 -1 -7 2 -15z"/>
<path d="M1977 969 c4 -13 8 -18 11 -10 2 7 -1 18 -6 23 -8 8 -9 4 -5 -13z"/>
<path d="M396 964 c-26 -7 -51 -15 -54 -19 -16 -16 103 9 123 27 12 11 -9 9
-69 -8z"/>
<path d="M561 936 c-10 -12 -8 -17 8 -26 27 -14 30 -72 4 -68 -14 2 -19 -5
-21 -34 -2 -24 1 -38 8 -38 8 0 9 10 5 30 -4 20 -3 30 5 30 9 0 11 -19 8 -65
l-4 -64 26 6 c14 3 28 8 32 12 14 12 21 186 9 209 -14 26 -62 30 -80 8z"/>
<path d="M1290 932 c6 -12 8 -27 5 -32 -3 -5 3 -40 13 -77 11 -38 20 -84 21
-102 1 -19 3 -35 4 -36 1 -1 27 1 58 3 54 4 57 5 61 33 3 17 0 29 -6 29 -24 0
-56 -13 -56 -22 0 -5 5 -6 12 -2 7 4 8 3 4 -4 -11 -18 -36 -15 -30 3 4 10 0
15 -11 15 -14 0 -15 3 -6 14 7 9 9 29 5 55 -5 33 -3 42 11 48 12 4 24 -1 36
-15 14 -18 18 -19 23 -7 3 8 1 15 -5 15 -6 0 -9 7 -5 15 15 40 -39 79 -86 63
-24 -9 -32 -7 -44 8 -14 18 -14 18 -4 -4z m67 -224 c-3 -8 -6 -5 -6 6 -1 11 2
17 5 13 3 -3 4 -12 1 -19z"/>
<path d="M1531 924 c-12 -15 -21 -37 -21 -50 0 -13 -6 -24 -12 -24 -9 0 -9 -3
1 -9 9 -6 19 -4 28 5 18 18 63 18 87 -1 14 -10 17 -23 14 -54 -4 -41 -3 -41
31 -41 l34 0 -6 78 c-5 67 -9 80 -32 100 -38 32 -97 30 -124 -4z"/>
<path d="M260 928 c-43 -12 -68 -34 -28 -24 38 9 78 25 78 31 0 6 -7 6 -50 -7z"/>
<path d="M2521 908 c0 -13 4 -31 8 -41 6 -17 8 -16 20 7 11 21 12 28 1 41 -18
22 -30 19 -29 -7z"/>
<path d="M394 909 c-4 -7 3 -19 16 -29 20 -15 22 -22 15 -78 -5 -43 -11 -62
-21 -62 -18 0 -17 -10 1 -34 7 -10 18 -15 24 -12 19 12 34 166 21 202 -10 25
-43 33 -56 13z"/>
<path d="M265 882 c-6 -4 -17 -16 -25 -27 -14 -19 -14 -19 3 -6 15 12 20 11
37 -4 19 -17 20 -17 20 2 0 24 -21 45 -35 35z"/>
<path d="M1795 865 c4 -11 15 -40 24 -65 l16 -45 3 39 c3 32 -2 44 -24 65 -23
22 -26 23 -19 6z"/>
<path d="M1912 860 c-16 -26 -16 -150 0 -150 23 0 -7 -18 -35 -22 -27 -3 -27
-4 -12 -23 11 -13 18 -16 21 -8 3 6 16 9 30 7 13 -2 24 0 24 4 0 5 11 7 25 4
36 -6 31 6 -7 17 l-33 9 37 1 c20 1 40 6 44 13 12 19 4 109 -12 140 -18 34
-63 39 -82 8z m18 -110 c0 -5 -5 -10 -11 -10 -5 0 -7 5 -4 10 3 6 8 10 11 10
2 0 4 -4 4 -10z"/>
<path d="M520 850 c0 -5 5 -10 11 -10 5 0 7 5 4 10 -3 6 -8 10 -11 10 -2 0 -4
-4 -4 -10z"/>
<path d="M2072 847 c-8 -9 -8 -42 -1 -112 6 -55 11 -100 12 -101 1 -1 17 -5
34 -9 l33 -6 -1 53 c0 29 0 77 1 107 2 43 -2 58 -16 68 -23 17 -49 17 -62 0z"/>
<path d="M2223 853 c-7 -2 -13 -18 -13 -34 0 -22 6 -32 25 -39 14 -5 25 -15
25 -22 0 -9 -3 -9 -12 0 -24 24 -41 14 -35 -20 3 -18 9 -52 12 -75 6 -38 10
-43 32 -43 18 0 24 4 19 15 -3 9 -3 43 1 75 4 46 10 60 22 60 14 1 14 2 -1 14
-10 7 -15 16 -11 19 8 9 -25 57 -40 56 -6 0 -18 -3 -24 -6z"/>
<path d="M150 842 c0 -5 7 -16 16 -23 14 -12 16 -11 13 5 -4 20 -29 35 -29 18z"/>
<path d="M2345 830 c-7 -12 1 -105 10 -120 4 -6 13 -10 22 -10 11 0 14 6 9 25
-5 19 -2 25 10 25 13 0 15 7 9 37 -4 21 -9 41 -11 45 -7 12 -42 10 -49 -2z"/>
<path d="M0 788 c0 -47 14 -41 23 10 5 24 3 32 -8 32 -11 0 -15 -12 -15 -42z"/>
<path d="M741 810 c-2 -23 -3 -24 -11 -5 -8 19 -9 19 -9 -2 -1 -13 4 -23 9
-23 6 0 10 -4 10 -10 0 -5 -3 -9 -7 -9 -20 3 -23 -2 -8 -17 22 -23 27 -14 22
42 -2 27 -5 38 -6 24z"/>
<path d="M2454 816 c-3 -8 -1 -23 5 -34 8 -15 8 -21 0 -24 -7 -2 -8 -14 -3
-33 l8 -30 7 25 c6 21 7 22 9 5 1 -18 2 -17 11 4 7 18 6 27 -3 33 -10 6 -10 8
0 8 15 0 16 32 0 48 -16 16 -27 15 -34 -2z"/>
<path d="M521 804 c0 -11 3 -14 6 -6 3 7 2 16 -1 19 -3 4 -6 -2 -5 -13z"/>
<path d="M215 790 c27 -12 35 -12 35 0 0 6 -12 10 -27 9 -25 0 -26 -1 -8 -9z"/>
<path d="M1421 787 c-18 -18 -13 -26 14 -23 34 4 38 10 16 23 -14 9 -21 9 -30
0z"/>
<path d="M2546 748 c6 -41 27 -94 23 -58 -1 8 1 23 6 33 10 24 -2 67 -20 67
-12 0 -14 -9 -9 -42z"/>
<path d="M2614 775 c-3 -8 -2 -32 4 -52 l10 -38 1 53 c1 52 -5 65 -15 37z"/>
<path d="M1484 738 c-4 -7 -3 -8 4 -4 8 5 12 -2 12 -18 0 -14 5 -26 10 -26 11
0 13 20 4 44 -7 19 -20 21 -30 4z"/>
<path d="M3 705 c0 -22 2 -30 4 -17 2 12 2 30 0 40 -3 9 -5 -1 -4 -23z"/>
<path d="M234 727 c-2 -7 0 -24 5 -38 6 -16 10 -18 10 -7 1 9 4 18 9 21 4 2 1
2 -5 1 -7 -2 -13 1 -13 6 0 5 8 10 18 12 16 3 16 4 -1 11 -11 4 -20 2 -23 -6z"/>
<path d="M120 701 c0 -25 6 -27 13 -6 4 8 2 17 -3 20 -6 4 -10 -3 -10 -14z"/>
<path d="M1158 683 c7 -3 16 -2 19 1 4 3 -2 6 -13 5 -11 0 -14 -3 -6 -6z"/>
<path d="M2000 675 c0 -8 5 -15 10 -15 6 0 10 7 10 15 0 8 -4 15 -10 15 -5 0
-10 -7 -10 -15z"/>
<path d="M835 670 c-3 -5 -1 -10 4 -10 6 0 11 5 11 10 0 6 -2 10 -4 10 -3 0
-8 -4 -11 -10z"/>
<path d="M717 663 c-4 -3 -7 -16 -7 -27 -1 -20 -1 -20 -14 -3 -9 12 -16 14
-21 8 -3 -6 -21 -11 -38 -11 -29 -1 -30 -2 -14 -14 10 -8 15 -20 11 -30 -4
-12 0 -16 15 -16 12 0 21 -4 21 -9 0 -5 -40 -10 -88 -10 -49 0 -98 -4 -110 -8
-12 -5 25 -7 84 -6 l106 1 -6 -23 c-7 -26 1 -55 16 -55 5 0 7 4 3 9 -3 5 0 15
7 23 7 7 13 19 14 26 3 31 6 36 14 17 5 -11 9 -27 9 -36 1 -22 -35 -62 -48
-54 -6 3 -11 1 -11 -5 0 -6 14 -8 35 -6 25 3 35 1 35 -9 0 -9 -11 -13 -35 -10
l-35 3 0 -50 c0 -44 2 -48 15 -34 8 8 15 26 15 40 0 14 4 26 9 26 5 0 8 -8 6
-17 -2 -10 -4 -30 -4 -45 -1 -19 -6 -28 -18 -28 -14 0 -14 -2 -1 -17 8 -10 14
-35 13 -57 -1 -31 3 -40 23 -47 38 -15 52 -11 52 14 0 35 12 41 33 15 10 -13
16 -17 12 -10 -9 17 0 15 20 -4 15 -16 16 -12 13 54 -2 40 -6 72 -10 72 -5 0
-8 -10 -8 -23 0 -15 -6 -24 -15 -24 -13 0 -15 10 -13 46 2 30 7 45 16 44 6 -2
18 -4 25 -5 8 -2 13 13 14 46 2 42 -1 52 -27 76 -26 24 -34 27 -66 20 -29 -7
-34 -6 -30 6 3 9 1 12 -4 9 -6 -3 -10 -2 -10 3 0 15 138 26 154 13 7 -6 16 -8
20 -4 18 19 231 29 252 13 8 -7 21 -9 31 -5 34 15 48 17 151 22 92 5 105 3
117 -13 13 -16 16 -17 24 -4 6 8 16 15 23 16 32 2 38 4 38 12 0 4 -19 6 -42 4
-32 -3 -40 -1 -32 7 6 7 21 13 33 14 24 2 28 12 6 21 -26 10 -17 27 11 20 20
-5 25 -3 22 7 -4 11 -34 13 -159 11 -85 -1 -165 -4 -179 -7 -14 -2 -110 -7
-215 -10 -104 -3 -202 -8 -217 -11 -14 -3 -29 0 -33 5 -4 7 3 11 17 11 13 0
30 5 38 10 11 7 6 10 -21 10 -20 0 -39 -3 -42 -7z m523 -39 c0 -8 -5 -14 -12
-14 -6 0 -9 -2 -6 -5 10 -10 39 8 34 21 -3 8 1 14 9 14 8 0 15 -6 16 -12 0
-10 2 -10 6 0 3 7 25 12 58 12 45 0 55 -3 60 -20 3 -11 12 -20 18 -21 7 -1 1
-5 -13 -9 -36 -12 -90 -12 -90 0 0 6 5 10 10 10 6 0 10 8 10 18 -1 13 -6 11
-25 -11 -25 -28 -26 -28 -172 -32 -82 -2 -210 -7 -286 -10 l-138 -5 7 22 c3
13 7 24 8 25 1 1 35 6 76 9 61 6 72 5 65 -7 -7 -11 -6 -11 9 1 13 10 57 16
160 20 77 3 153 5 169 6 17 1 27 -4 27 -12z m234 1 c2 -7 -8 -11 -27 -11 -17
1 -32 7 -35 14 -5 16 56 13 62 -3z m-765 -57 c1 -5 -6 -8 -15 -8 -11 0 -14 5
-10 16 3 9 6 21 7 27 0 12 17 -20 18 -35z"/>
<path d="M1270 599 c0 -5 5 -7 10 -4 6 3 10 8 10 11 0 2 -4 4 -10 4 -5 0 -10
-5 -10 -11z"/>
<path d="M750 580 c0 -5 5 -10 10 -10 6 0 10 5 10 10 0 6 -4 10 -10 10 -5 0
-10 -4 -10 -10z"/>
<path d="M2460 655 c0 -8 5 -15 10 -15 6 0 10 7 10 15 0 8 -4 15 -10 15 -5 0
-10 -7 -10 -15z"/>
<path d="M1820 631 c0 -7 -6 -11 -15 -7 -8 3 -15 0 -15 -7 0 -14 37 -21 44 -8
3 4 1 13 -5 21 -7 12 -9 12 -9 1z"/>
<path d="M1850 623 c0 -5 7 -16 14 -26 10 -12 16 -15 21 -7 4 6 13 9 21 6 7
-3 16 0 20 5 3 6 15 9 25 6 10 -3 21 -2 24 3 7 12 -64 17 -76 5 -8 -7 -13 -6
-16 3 -5 13 -33 17 -33 5z"/>
<path d="M479 616 c-2 -2 -35 -7 -74 -10 -62 -5 -206 -23 -350 -44 l-50 -7 -2
-88 c-2 -71 0 -87 12 -87 8 0 15 6 15 13 1 20 20 151 23 154 4 3 126 20 202
28 33 3 71 8 85 10 14 3 48 7 75 10 60 6 121 23 89 24 -11 1 -23 -1 -25 -3z"/>
<path d="M578 613 c7 -3 16 -2 19 1 4 3 -2 6 -13 5 -11 0 -14 -3 -6 -6z"/>
<path d="M335 530 l-40 -7 40 -1 c22 0 51 4 65 8 l25 8 -25 0 c-14 -1 -43 -4
-65 -8z"/>
<path d="M1272 505 c-34 -28 -40 -53 -19 -74 8 -8 8 -11 1 -9 -14 4 -14 6 -14
-84 0 -83 8 -88 12 -7 2 42 6 56 18 56 8 0 18 -5 22 -11 11 -16 10 -58 -1 -52
-18 12 -34 -55 -24 -106 5 -28 5 -28 84 -28 l79 0 0 70 c0 43 -4 70 -11 70 -5
0 -7 5 -4 10 3 6 1 10 -4 10 -6 0 -11 7 -11 15 0 8 7 15 15 15 8 0 15 9 15 19
0 24 -16 36 -23 19 -4 -10 -6 -9 -6 1 -1 8 6 19 15 26 15 10 14 15 -12 44 -41
45 -90 52 -132 16z m148 -195 c0 -5 -4 -10 -10 -10 -5 0 -10 5 -10 10 0 6 5
10 10 10 6 0 10 -4 10 -10z m-95 -29 c3 -5 1 -12 -5 -16 -5 -3 -10 1 -10 9 0
18 6 21 15 7z m-7 -63 c15 -3 15 -4 1 -10 -25 -10 -39 5 -31 32 6 24 7 24 10
3 2 -12 11 -23 20 -25z"/>
<path d="M124 510 c-58 -8 -74 -16 -74 -33 0 -9 3 -8 8 1 5 7 52 18 108 26 58
8 80 14 54 14 -25 0 -68 -4 -96 -8z"/>
<path d="M990 502 c-13 -10 -23 -30 -24 -47 -1 -17 -5 -36 -9 -42 -5 -8 -4
-13 2 -13 7 0 9 -14 6 -35 -3 -23 0 -35 8 -35 8 0 9 -2 1 -8 -13 -8 -13 -82 0
-82 5 0 2 -8 -7 -18 -10 -10 -17 -22 -17 -25 0 -4 41 -7 90 -7 l90 0 1 103 c0
56 2 113 4 127 3 31 -19 76 -44 90 -30 16 -76 12 -101 -8z m67 -144 c-8 -5 -7
-8 4 -8 22 0 32 -27 13 -34 -8 -3 -14 1 -14 9 0 8 -4 15 -10 15 -5 0 -9 -3 -9
-7 4 -22 -3 -32 -16 -27 -25 10 -19 63 8 73 24 9 44 -8 24 -21z m26 -63 c-3
-9 -8 -14 -10 -11 -3 3 -2 9 2 15 9 16 15 13 8 -4z m24 -57 c-3 -8 -6 -5 -6 6
-1 11 2 17 5 13 3 -3 4 -12 1 -19z m3 -28 c0 -5 -5 -10 -11 -10 -5 0 -7 5 -4
10 3 6 8 10 11 10 2 0 4 -4 4 -10z"/>
<path d="M2031 504 c0 -11 3 -14 6 -6 3 7 2 16 -1 19 -3 4 -6 -2 -5 -13z"/>
<path d="M2113 513 c9 -2 23 -2 30 0 6 3 -1 5 -18 5 -16 0 -22 -2 -12 -5z"/>
<path d="M2168 513 c7 -3 16 -2 19 1 4 3 -2 6 -13 5 -11 0 -14 -3 -6 -6z"/>
<path d="M542 494 c-27 -19 -28 -34 -4 -34 17 0 18 -5 10 -57 -5 -32 -7 -70
-4 -85 3 -17 1 -28 -5 -28 -6 0 -9 -6 -6 -14 4 -9 -8 -17 -36 -26 -23 -7 -36
-15 -29 -17 6 -3 12 -13 12 -24 0 -18 -6 -20 -55 -23 -11 -1 -19 -6 -18 -12 1
-6 -5 -11 -13 -11 -8 0 -14 4 -14 8 0 4 -16 6 -35 3 -19 -2 -35 0 -35 6 0 9
18 15 65 22 31 5 56 187 33 250 -12 32 -32 42 -59 28 -23 -13 -26 -32 -3 -23
30 11 41 -20 30 -85 -9 -55 -12 -61 -40 -71 l-31 -10 35 6 c32 5 34 4 20 -12
-12 -14 -12 -19 -2 -22 12 -5 18 -53 6 -53 -18 0 -42 22 -38 34 4 11 0 13 -15
9 -19 -5 -21 -1 -21 41 0 25 -4 46 -10 46 -5 0 -10 -7 -10 -16 0 -8 -5 -24
-11 -35 -8 -15 -14 -18 -23 -10 -10 9 -12 6 -8 -14 2 -15 0 -25 -7 -25 -6 0
-11 6 -11 13 0 6 -5 4 -11 -5 -5 -10 -17 -18 -25 -18 -10 0 -12 5 -8 13 5 7 1
7 -10 -2 -10 -8 -15 -23 -12 -33 4 -16 0 -19 -22 -16 -18 2 -26 8 -23 18 2 8
5 40 7 70 l3 55 -10 -42 c-8 -32 -15 -43 -29 -43 -10 0 -22 -5 -25 -10 -4 -7
-13 -7 -26 0 -18 10 -19 6 -19 -115 l0 -125 315 0 c308 0 315 0 315 20 0 11 7
20 15 20 8 0 15 5 15 10 0 6 17 10 39 8 38 -2 39 -3 34 -30 l-5 -28 481 0
c421 0 481 2 481 15 0 19 7 19 25 2 17 -17 122 -22 141 -6 10 8 14 8 14 0 0
-6 11 -11 25 -11 19 0 25 5 26 23 l0 22 9 -23 9 -22 346 0 345 0 0 44 c0 41
-2 44 -31 50 -26 5 -29 9 -20 20 7 8 21 12 31 9 18 -5 20 0 20 51 0 48 -3 56
-19 56 -10 0 -23 6 -29 13 -14 17 -25 140 -12 132 5 -3 10 -1 10 4 0 6 -4 11
-10 11 -5 0 -10 8 -10 18 0 21 -27 62 -41 62 -13 0 -11 -81 5 -167 12 -69 11
-73 -6 -73 -10 0 -32 14 -49 31 -27 27 -28 31 -14 46 12 11 14 24 9 47 -4 17
-6 45 -5 63 2 35 -24 58 -49 43 -10 -6 -12 -26 -7 -87 4 -43 2 -94 -2 -113 -8
-31 -9 -32 -10 -8 -1 16 -11 35 -27 47 -22 17 -24 23 -14 36 9 10 9 15 1 15
-6 0 -11 9 -11 21 0 11 4 17 10 14 7 -4 8 3 4 22 -8 33 -32 72 -45 74 -5 1
-15 2 -21 3 -34 5 -40 -16 -33 -113 9 -132 9 -131 57 -131 42 0 46 -11 5 -16
-12 -2 -36 -5 -54 -7 -25 -4 -33 0 -45 21 -9 18 -10 26 -2 29 9 3 8 20 -2 64
-8 33 -13 63 -12 67 6 22 -17 73 -38 87 -24 15 -27 15 -44 0 -10 -9 -20 -32
-22 -51 -4 -32 -2 -34 25 -34 25 0 27 3 21 23 -3 12 -3 18 2 14 5 -5 14 -46
19 -92 l11 -84 -41 -4 -40 -4 43 -1 c23 -1 42 -7 42 -13 0 -5 -4 -8 -9 -5 -5
4 -7 -3 -4 -14 3 -11 13 -20 22 -20 9 0 34 -14 55 -31 28 -24 36 -37 32 -52
-3 -12 0 -27 6 -34 6 -8 8 -16 4 -20 -3 -3 -6 -1 -6 6 0 7 -4 9 -10 6 -6 -4
-10 8 -10 28 0 22 -6 37 -15 41 -13 4 -13 2 -5 -14 14 -25 13 -30 -6 -30 -10
0 -14 6 -10 15 3 8 1 15 -5 15 -5 0 -9 8 -7 17 2 14 -9 19 -57 27 -60 11 -60
11 -63 48 -2 27 -7 35 -18 31 -8 -3 -14 -13 -14 -22 0 -10 -7 -26 -16 -37 -13
-16 -15 -16 -10 -1 3 9 1 17 -4 17 -6 0 -10 -4 -10 -9 0 -14 -40 -7 -50 9 -5
8 -10 44 -11 80 -1 111 -13 171 -39 192 -29 23 -72 23 -101 -1 -22 -18 -24
-25 -21 -112 2 -51 6 -96 11 -99 4 -3 6 -21 4 -41 -5 -35 -5 -35 -51 -35 l-47
1 -1 105 c0 58 -4 118 -7 133 -9 32 -59 67 -98 67 -34 0 -69 -26 -51 -38 7 -5
14 -19 15 -32 1 -13 9 -25 19 -28 13 -3 18 -14 18 -43 0 -48 48 -149 67 -142
8 3 13 -2 13 -16 0 -19 6 -21 50 -21 28 0 50 -4 50 -8 0 -5 -18 -8 -40 -7 -26
1 -40 -3 -40 -11 0 -6 -7 -14 -14 -17 -10 -4 -13 -1 -9 9 7 19 -15 44 -39 44
-10 0 -21 -7 -24 -15 -7 -17 -54 -21 -54 -5 0 14 -16 12 -32 -3 -7 -8 -18 -12
-25 -10 -6 2 -14 -1 -18 -6 -3 -6 1 -11 9 -11 10 0 13 -6 9 -17 -4 -11 -8 -13
-11 -5 -2 7 -7 10 -11 8 -4 -3 -13 -1 -21 5 -10 5 -11 9 -3 9 7 0 10 7 7 15
-4 8 -10 13 -14 10 -4 -2 -37 -1 -74 3 -36 5 -66 5 -66 0 0 -4 -19 -8 -42 -7
-24 0 -37 3 -30 6 17 7 15 23 -3 23 -8 0 -15 -8 -15 -17 0 -15 -2 -14 -16 3
-15 19 -15 19 -11 -2 4 -18 0 -22 -19 -19 -14 1 -27 -2 -30 -6 -3 -5 -1 -9 5
-9 7 0 7 -8 2 -22 -5 -13 -13 -23 -19 -23 -6 0 -17 -6 -23 -12 -7 -7 -28 -13
-46 -13 -31 0 -33 2 -28 28 6 39 -4 47 -57 48 -45 1 -48 -1 -49 -25 -2 -24 -2
-24 -6 -3 -6 29 -30 29 -36 0 -4 -20 -4 -20 -6 4 0 14 5 29 12 31 7 3 6 6 -5
6 -9 1 -19 11 -21 24 l-4 22 -8 -22 c-5 -17 -15 -23 -36 -23 -16 0 -29 -5 -29
-11 0 -6 -7 -8 -15 -5 -9 3 -18 -1 -21 -9 -5 -11 -9 -12 -19 -2 -11 10 -10 13
4 19 16 7 -37 11 -131 11 -40 -1 -45 1 -33 13 18 18 23 49 30 172 6 106 0 133
-34 151 -13 7 -24 6 -39 -5z m1065 -80 c-3 -3 -12 -4 -19 -1 -8 3 -5 6 6 6 11
1 17 -2 13 -5z m759 -128 c18 -19 18 -47 0 -40 -8 3 -16 16 -19 30 -5 28 -1
30 19 10z m94 -20 c0 -3 -4 -8 -10 -11 -5 -3 -10 -1 -10 4 0 6 5 11 10 11 6 0
10 -2 10 -4z m-530 -48 c0 -5 -5 -6 -12 -2 -8 5 -9 2 -5 -9 5 -14 0 -16 -36
-11 -58 7 -79 40 -29 46 32 4 82 -10 82 -24z m505 22 c3 -5 1 -10 -4 -10 -6 0
-11 5 -11 10 0 6 2 10 4 10 3 0 8 -4 11 -10z m-1857 -30 c7 -12 8 -20 2 -20
-5 0 -10 5 -10 11 0 5 -4 7 -10 4 -5 -3 -10 1 -10 9 0 22 13 20 28 -4z m1725
-25 c5 -7 9 -6 15 2 8 13 102 15 102 2 0 -5 37 -10 83 -12 45 -1 10 -4 -79 -5
-129 -2 -164 1 -180 13 -18 14 -17 15 16 13 19 -1 38 -7 43 -13z m-373 -19 c0
-2 -7 -6 -15 -10 -8 -3 -15 -1 -15 4 0 6 7 10 15 10 8 0 15 -2 15 -4z m56 -7
c3 -6 0 -15 -7 -20 -24 -15 -37 -10 -32 11 6 22 28 27 39 9z m-1106 -8 c0 -5
-7 -11 -15 -15 -15 -5 -20 5 -8 17 9 10 23 9 23 -2z m-43 -7 c-3 -3 -12 -4
-19 -1 -8 3 -5 6 6 6 11 1 17 -2 13 -5z m727 -9 c3 -8 1 -15 -4 -15 -6 0 -10
7 -10 15 0 8 2 15 4 15 2 0 6 -7 10 -15z m-288 -32 c-3 -3 -28 -8 -56 -11 -43
-4 -50 -2 -50 13 0 15 7 17 50 13 41 -4 50 -2 51 11 1 12 2 12 6 -2 3 -10 2
-21 -1 -24z m121 5 c-3 -7 -5 -2 -5 12 0 14 2 19 5 13 2 -7 2 -19 0 -25z m30
0 c-3 -7 -5 -2 -5 12 0 14 2 19 5 13 2 -7 2 -19 0 -25z m-1010 16 c-3 -3 -12
-4 -19 -1 -8 3 -5 6 6 6 11 1 17 -2 13 -5z m1143 -18 c0 -9 -30 -14 -35 -6 -4
6 3 10 14 10 12 0 21 -2 21 -4z m205 -6 c14 -6 2 -8 -40 -8 -48 0 -54 2 -30 8
40 10 46 10 70 0z m436 -14 c5 3 9 0 9 -5 0 -6 -7 -11 -15 -11 -8 0 -15 8 -14
18 0 10 3 12 6 4 2 -6 9 -10 14 -6z m-542 -26 c21 -29 10 -38 -16 -13 -11 10
-19 43 -10 43 2 0 13 -14 26 -30z m648 -2 c-3 -8 -6 -5 -6 6 -1 11 2 17 5 13
3 -3 4 -12 1 -19z m-397 -28 c0 -11 -7 -20 -15 -20 -8 0 -15 2 -15 4 0 2 -3
11 -6 20 -4 12 0 16 15 16 14 0 21 -6 21 -20z"/>
<path d="M2605 490 c3 -5 8 -10 11 -10 2 0 4 5 4 10 0 6 -5 10 -11 10 -5 0 -7
-4 -4 -10z"/>
<path d="M203 468 c-6 -7 -14 -20 -18 -28 -8 -13 -7 -13 8 -1 15 12 19 12 32
-5 13 -18 14 -18 20 -1 7 17 -9 47 -25 47 -4 0 -12 -6 -17 -12z"/>
<path d="M2601 448 c-8 -22 11 -193 23 -206 3 -3 6 45 6 106 0 109 -11 147
-29 100z"/>
<path d="M90 452 c0 -4 9 -8 20 -9 11 -1 18 2 15 8 -7 11 -35 12 -35 1z"/>
<path d="M2040 440 c0 -5 5 -10 11 -10 5 0 7 5 4 10 -3 6 -8 10 -11 10 -2 0
-4 -4 -4 -10z"/>
<path d="M500 380 c0 -5 7 -10 16 -10 8 0 12 5 9 10 -3 6 -10 10 -16 10 -5 0
-9 -4 -9 -10z"/>
<path d="M107 373 c-4 -3 -7 -13 -7 -22 1 -13 3 -13 11 2 11 19 8 33 -4 20z"/>
<path d="M75 359 c-4 -6 -5 -12 -2 -15 2 -3 7 2 10 11 7 17 1 20 -8 4z"/>
<path d="M206 356 c3 -9 11 -16 16 -16 13 0 5 23 -10 28 -7 2 -10 -2 -6 -12z"/>
<path d="M313 355 c0 -8 4 -15 9 -15 4 0 8 7 8 15 0 8 -4 15 -8 15 -5 0 -9 -7
-9 -15z"/>
<path d="M340 345 c0 -14 5 -25 10 -25 6 0 10 11 10 25 0 14 -4 25 -10 25 -5
0 -10 -11 -10 -25z"/>
<path d="M1270 355 c0 -8 4 -15 10 -15 5 0 7 7 4 15 -4 8 -8 15 -10 15 -2 0
-4 -7 -4 -15z"/>
<path d="M236 325 c-3 -8 -1 -15 4 -15 6 0 10 7 10 15 0 8 -2 15 -4 15 -2 0
-6 -7 -10 -15z"/>
<path d="M2102 323 c5 -26 38 -29 38 -4 0 15 -6 21 -21 21 -14 0 -19 -5 -17
-17z"/>
<path d="M176 305 c-3 -8 -1 -15 4 -15 6 0 10 7 10 15 0 8 -2 15 -4 15 -2 0
-6 -7 -10 -15z"/>
<path d="M62 285 c0 -16 2 -22 5 -12 2 9 2 23 0 30 -3 6 -5 -1 -5 -18z"/>
<path d="M506 287 c3 -10 9 -15 12 -12 3 3 0 11 -7 18 -10 9 -11 8 -5 -6z"/>
<path d="M181 254 c0 -11 3 -14 6 -6 3 7 2 16 -1 19 -3 4 -6 -2 -5 -13z"/>
<path d="M780 201 c0 -6 4 -13 10 -16 6 -3 7 1 4 9 -7 18 -14 21 -14 7z"/>
<path d="M1050 139 c0 -5 15 -9 33 -9 18 0 38 -5 45 -12 6 -6 15 -9 19 -5 12
13 -12 27 -55 31 -23 2 -42 0 -42 -5z"/>
<path d="M670 44 c0 -3 6 -11 13 -19 11 -11 15 -10 24 4 9 14 6 17 -13 19 -13
1 -24 -1 -24 -4z"/>
</g>
</svg>
