<?xml version="1.0" standalone="no"?>
<!DOCTYPE svg PUBLIC "-//W3C//DTD SVG 20010904//EN"
 "http://www.w3.org/TR/2001/REC-SVG-20010904/DTD/svg10.dtd">
<svg version="1.0" xmlns="http://www.w3.org/2000/svg"
 width="300.000000pt" height="168.000000pt" viewBox="0 0 300.000000 168.000000"
 preserveAspectRatio="xMidYMid meet">

<g transform="translate(0.000000,168.000000) scale(0.100000,-0.100000)"
fill="#000000" stroke="none">
<path d="M1504 1506 c-56 -55 -114 -89 -114 -66 0 4 -29 10 -64 14 -56 6 -72
3 -122 -19 -33 -15 -65 -23 -77 -19 -13 4 -29 -3 -51 -25 -17 -16 -51 -37 -76
-46 -25 -9 -62 -27 -83 -41 -46 -30 -196 -89 -253 -98 -30 -5 -54 -2 -95 15
-43 18 -80 23 -184 27 -120 4 -136 2 -208 -22 -83 -28 -112 -32 -122 -16 -3 6
-17 10 -31 10 l-24 0 0 -438 c0 -337 3 -441 13 -451 9 -11 9 -13 0 -7 -9 5
-13 -3 -13 -28 0 -29 4 -36 19 -36 10 0 24 -7 31 -15 7 -9 19 -14 26 -11 7 3
15 -2 18 -10 4 -11 0 -13 -19 -8 -25 6 -30 -1 -26 -33 1 -7 -5 -13 -13 -13
-16 0 -36 -29 -36 -52 1 -9 5 -7 14 4 7 10 17 14 22 10 4 -4 2 1 -5 10 -15 20
-2 25 16 7 8 -8 13 -7 18 2 6 8 4 10 -5 4 -9 -5 -11 -4 -6 3 13 21 26 12 26
-18 0 -25 5 -31 33 -38 30 -8 65 -3 39 6 -31 10 -6 22 46 21 53 -2 54 -2 17
-8 l-40 -6 33 -12 c18 -7 33 -12 35 -11 1 1 12 -4 24 -10 19 -10 20 -9 16 8
-3 11 -9 23 -14 26 -14 8 -10 24 6 24 8 0 15 -5 15 -12 0 -6 6 -3 14 8 8 10
19 19 25 19 24 0 13 20 -15 27 -24 6 -23 7 9 3 38 -4 46 2 25 23 -9 9 -9 12 0
12 7 0 12 -3 12 -7 0 -5 11 -8 25 -8 14 0 25 4 25 8 0 5 4 6 9 3 15 -9 76 38
79 62 3 19 0 22 -20 18 -50 -9 -79 -28 -72 -49 4 -13 2 -17 -5 -13 -6 4 -11
20 -11 37 0 16 -5 29 -12 30 -7 0 -3 4 9 9 15 6 21 15 17 25 -4 9 -1 15 9 15
8 0 20 -12 25 -27 6 -17 11 -21 11 -11 2 30 21 30 49 0 24 -25 31 -28 45 -17
9 6 13 15 9 19 -4 5 0 6 8 5 20 -4 78 22 85 39 3 9 0 10 -15 2 -10 -5 -28 -10
-39 -10 -26 0 -18 23 12 38 15 7 17 11 7 11 -9 1 -23 16 -31 34 -13 30 -13 33
2 33 10 0 15 -6 12 -13 -4 -9 0 -11 11 -7 10 4 15 13 12 20 -4 9 2 14 16 14
18 0 19 -2 7 -17 -10 -11 -10 -14 -2 -9 9 5 13 0 13 -14 0 -12 4 -18 10 -15 9
6 14 -8 11 -28 -1 -4 4 -7 11 -5 7 1 25 -6 40 -16 22 -14 38 -17 75 -11 44 6
46 8 28 21 -16 12 -16 14 -3 14 9 0 28 -4 42 -10 31 -11 37 -4 39 49 1 27 5
37 14 34 7 -3 16 2 19 11 5 12 11 13 24 6 10 -6 35 -10 54 -10 29 0 36 4 36
20 0 11 -9 29 -20 40 -12 12 -18 25 -15 30 3 5 -4 19 -15 30 -12 12 -18 26
-13 33 4 7 8 19 8 27 0 8 5 14 11 13 7 -1 10 6 7 16 -3 13 -11 17 -24 14 -10
-3 -19 0 -19 6 0 21 49 12 61 -12 7 -12 19 -27 28 -34 14 -11 14 -12 -2 -13
-15 0 -15 -3 5 -35 13 -19 30 -35 38 -35 13 0 13 1 0 10 -8 5 -10 10 -5 10 6
0 2 5 -7 11 -10 5 -18 14 -18 18 0 15 45 6 60 -11 12 -14 22 -15 50 -9 23 6
28 9 13 10 -12 1 -24 5 -28 11 -3 5 -12 7 -20 3 -8 -3 -15 -1 -15 5 0 15 51
25 63 13 6 -6 39 -11 73 -11 35 0 66 -4 69 -10 3 -5 15 -10 25 -10 13 0 17 -5
14 -15 -5 -12 2 -15 31 -15 20 0 34 -4 31 -9 -4 -5 0 -12 6 -14 8 -4 7 -6 -4
-6 -23 -1 -28 -23 -10 -43 14 -17 12 -18 -27 -18 -30 0 -41 -4 -38 -12 2 -7
16 -12 31 -10 14 1 26 -2 26 -8 0 -6 24 -10 55 -10 43 0 53 -3 49 -15 -4 -11
6 -16 45 -21 29 -4 49 -11 48 -18 -1 -7 23 -11 75 -11 42 0 74 -3 72 -7 -3 -4
7 -15 21 -24 13 -9 22 -20 19 -25 -3 -5 -2 -8 3 -7 4 1 24 -2 43 -6 l35 -9
-45 -7 c-25 -4 -53 -3 -62 2 -11 5 -25 5 -38 -2 -15 -8 -20 -8 -20 1 0 6 -7 8
-16 5 -9 -4 -23 -1 -31 5 -7 7 -16 9 -20 5 -3 -3 -14 1 -24 10 -10 9 -36 17
-59 18 -23 1 -45 8 -49 15 -4 7 -20 11 -34 9 -30 -4 -49 -18 -25 -18 10 0 15
-7 13 -17 -2 -10 -4 -22 -4 -27 -1 -5 -4 -6 -8 -3 -3 4 -12 2 -20 -5 -11 -9
-12 -7 -7 7 5 13 4 16 -4 11 -7 -4 -12 -2 -12 6 0 10 -2 10 -9 -1 -11 -16 -34
-4 -27 14 6 18 -32 51 -54 47 -10 -2 -21 2 -25 8 -3 5 -2 10 4 10 15 0 2 28
-25 55 -22 22 -24 55 -3 55 5 0 9 7 9 16 0 11 -5 14 -17 9 -15 -5 -16 -4 -5 6
21 22 14 27 -34 21 -26 -3 -55 -13 -65 -23 -18 -18 -17 -19 16 -35 37 -17 47
-44 16 -41 -10 0 -17 6 -14 13 5 14 -60 54 -88 54 -17 0 -21 -6 -18 -26 0 -4
-5 -11 -13 -15 -10 -7 -10 -9 2 -9 10 0 8 -4 -6 -15 -29 -19 -26 -66 4 -81 28
-14 42 -27 20 -19 -17 7 -43 -26 -31 -39 3 -3 -8 -6 -25 -6 -18 0 -32 5 -33
13 -3 27 3 53 14 62 17 14 19 65 3 65 -18 0 -27 -35 -12 -51 8 -9 8 -10 -1 -5
-7 4 -13 2 -13 -3 0 -6 -5 -10 -11 -8 -6 1 -14 -4 -16 -10 -3 -7 0 -13 6 -13
6 0 11 -8 11 -17 0 -13 -3 -14 -12 -5 -16 16 -28 15 -28 -3 0 -8 -7 -15 -15
-15 -8 0 -17 -14 -21 -35 -5 -29 -9 -33 -20 -24 -22 18 -18 -29 6 -79 14 -30
25 -40 36 -35 11 4 14 13 10 32 l-6 26 14 -24 c23 -42 3 -81 -33 -61 -20 10
-40 -3 -22 -15 6 -3 9 -11 7 -18 -1 -7 -1 -9 1 -5 3 5 9 8 15 8 6 0 3 -11 -6
-25 -16 -24 -16 -26 0 -32 10 -4 22 1 30 12 15 20 41 14 47 -12 2 -10 2 0 0
22 -3 30 -2 36 6 25 9 -13 11 -13 11 2 0 9 -4 20 -10 23 -5 3 -10 12 -10 18 0
7 4 6 10 -3 5 -8 10 -10 11 -5 0 6 5 -1 10 -15 7 -20 7 -17 3 13 -3 22 -1 37
5 37 6 0 14 12 17 26 5 18 9 22 15 13 4 -7 6 7 4 32 -3 24 -2 36 1 26 3 -9 9
-17 14 -17 4 0 11 -11 14 -25 4 -15 11 -22 20 -19 8 3 17 0 22 -7 4 -8 3 -10
-4 -5 -7 4 -17 4 -23 0 -8 -4 -7 -9 2 -15 10 -6 8 -9 -8 -9 -27 0 -41 -19 -22
-30 7 -5 16 -7 20 -4 4 2 9 -6 12 -17 5 -20 5 -20 -14 -3 -15 13 -19 14 -19 3
0 -12 -2 -12 -9 0 -11 18 -20 3 -42 -66 -16 -51 -16 -53 2 -53 16 0 18 4 11
18 -5 9 -6 26 -1 37 4 11 8 16 9 10 1 -5 6 1 10 15 6 16 7 7 3 -27 l-6 -53
129 1 c71 0 123 3 117 6 -7 2 -13 9 -13 14 0 6 5 7 10 4 7 -4 9 10 6 39 -2 25
0 43 5 40 5 -3 5 5 0 18 -4 13 -5 35 0 50 4 16 3 30 -2 34 -5 3 -6 10 -3 16 4
5 -3 23 -15 39 -11 15 -21 32 -21 36 0 4 7 0 14 -10 12 -16 14 -15 12 12 -1
16 -5 33 -9 37 -4 4 -7 14 -7 21 0 19 25 11 25 -8 1 -32 17 -99 25 -104 5 -3
7 -13 4 -23 -5 -13 -4 -14 4 -3 5 7 15 10 21 7 16 -10 13 -36 -4 -36 -23 0
-16 -57 7 -63 10 -3 18 -14 18 -27 0 -17 -4 -20 -20 -15 -18 6 -20 3 -16 -31
3 -20 10 -40 16 -44 19 -12 142 -12 135 0 -3 5 -2 10 4 10 5 0 11 -5 13 -11 2
-7 12 -7 31 0 15 6 27 7 27 2 0 -5 40 -9 89 -10 96 -2 106 5 68 47 -18 20 -24
57 -7 47 6 -3 10 -15 10 -26 0 -15 7 -19 33 -19 27 1 30 3 17 13 -8 7 -17 26
-18 42 -2 17 -10 37 -18 46 -8 8 -14 19 -14 23 0 16 59 -62 65 -87 4 -15 11
-30 17 -33 5 -3 13 -17 18 -30 9 -22 13 -23 94 -22 47 1 83 5 80 9 -3 5 -6 29
-9 54 -4 46 6 58 23 29 14 -25 24 0 12 30 -5 14 -7 26 -5 26 3 0 -3 8 -12 18
-10 11 -22 17 -26 14 -15 -8 -58 8 -51 20 4 6 3 8 -3 5 -6 -4 -19 0 -29 7 -15
11 -22 12 -34 3 -13 -10 -13 -10 -3 4 10 12 8 18 -8 33 -12 9 -18 20 -15 24 4
3 12 0 18 -6 8 -8 46 -12 101 -12 85 0 90 -1 118 -29 33 -34 37 -55 12 -70
-14 -8 -15 -10 -3 -11 26 0 41 16 34 34 -6 16 -5 17 17 6 13 -7 36 -21 51 -31
14 -11 39 -19 55 -19 l28 0 -29 -15 c-15 -8 -34 -15 -41 -15 -6 0 -27 -8 -45
-17 -33 -16 -33 -17 -12 -26 23 -10 30 -27 11 -27 -6 0 -17 7 -25 15 -8 8 -21
12 -29 9 -8 -4 -15 -2 -15 4 0 6 -15 10 -32 9 -30 -2 -33 -5 -30 -31 3 -18 0
-26 -7 -22 -7 4 -8 1 -5 -8 5 -12 21 -16 61 -16 33 0 52 4 48 10 -3 6 1 10 10
10 9 0 13 -4 10 -10 -4 -6 15 -10 48 -10 50 0 58 3 95 40 26 27 45 38 56 34
25 -10 19 -20 -24 -39 -23 -10 -43 -22 -46 -27 -7 -11 176 -6 194 5 7 5 12 3
13 -5 0 -7 4 -2 10 10 5 13 6 28 3 33 -7 13 19 7 28 -6 5 -6 8 -5 8 3 0 7 4
11 9 7 6 -3 8 4 6 15 -2 11 0 20 5 20 15 0 22 38 11 59 -12 22 4 71 23 71 6 0
3 6 -6 13 -9 7 -20 26 -24 43 -9 37 -32 64 -56 64 -31 0 -47 21 -34 44 8 14 8
20 -1 23 -7 3 -13 9 -13 14 0 4 7 6 15 3 8 -4 15 -16 15 -29 0 -24 17 -35 47
-31 10 2 12 1 6 -1 -10 -3 -9 -8 2 -19 8 -9 19 -13 24 -10 5 3 8 -2 7 -11 0
-10 5 -18 12 -19 25 -3 27 -5 13 -13 -17 -11 -4 -34 16 -27 22 9 38 -15 37
-54 0 -19 5 -39 10 -43 7 -6 5 -7 -4 -4 -12 3 -15 -5 -15 -38 0 -24 3 -46 7
-50 4 -4 4 -13 1 -21 -3 -8 -1 -14 3 -15 23 -2 46 -8 52 -14 4 -3 -8 -4 -25
-1 -20 4 -35 1 -42 -8 -10 -12 2 -14 83 -14 80 0 96 2 99 16 4 15 5 15 6 0 1
-16 13 -18 96 -18 l95 0 0 564 c0 366 -4 567 -10 571 -5 3 -10 20 -10 36 0 26
-3 29 -20 24 -11 -3 -20 -2 -20 3 0 10 -49 26 -56 20 -11 -12 12 -48 37 -58
33 -14 36 -22 14 -40 -18 -15 -51 14 -57 49 -1 14 -10 26 -18 28 -12 4 -12 3
-2 -5 8 -5 12 -20 10 -33 -3 -23 -3 -23 -36 9 -19 18 -41 32 -50 30 -14 -3
-14 -5 1 -20 9 -9 17 -23 17 -30 -1 -8 -6 -6 -15 6 -8 10 -25 24 -37 30 -13 6
-23 18 -23 26 0 8 -8 18 -18 23 -11 4 -21 16 -24 27 -3 11 -14 20 -24 20 -11
0 -19 4 -19 9 0 5 -12 16 -26 26 -19 12 -29 14 -37 6 -14 -14 -71 -14 -116 -1
-20 6 -58 6 -95 1 -60 -9 -109 4 -127 31 -4 6 -6 -7 -5 -27 1 -47 -17 -56 -34
-15 -7 16 -19 30 -26 30 -8 0 -14 5 -14 10 0 18 -70 11 -92 -9 -11 -11 -26
-17 -33 -14 -16 5 -28 33 -16 33 5 0 7 8 4 18 -3 13 -22 21 -68 30 -36 7 -77
12 -92 12 -16 0 -37 7 -47 15 -25 19 -37 19 -30 0 9 -23 -23 -18 -36 5 -6 11
-15 18 -20 15 -6 -3 -7 0 -5 8 6 14 -68 96 -88 98 -7 1 -25 3 -40 5 -24 2 -40
-8 -93 -60z m351 -207 c11 -16 1 -19 -13 -3 -7 8 -8 14 -3 14 5 0 13 -5 16
-11z m89 -97 c3 -5 -1 -9 -9 -9 -8 0 -12 4 -9 9 3 4 7 8 9 8 2 0 6 -4 9 -8z
m-14 -52 c0 -16 -4 -30 -10 -30 -5 0 -10 14 -10 30 0 17 5 30 10 30 6 0 10
-13 10 -30z m908 -40 c7 -12 8 -20 2 -20 -5 0 -10 5 -10 10 0 6 -7 10 -16 10
-8 0 -12 5 -9 10 9 15 19 12 33 -10z m119 -112 c-3 -8 -6 -5 -6 6 -1 11 2 17
5 13 3 -3 4 -12 1 -19z m-2027 -49 c0 -5 -4 -9 -8 -9 -5 0 -9 7 -9 15 0 8 4
12 9 9 4 -3 8 -9 8 -15z m720 -44 c0 -40 -10 -75 -21 -75 -12 0 -11 37 1 45
13 8 13 25 -1 25 -5 0 -7 -6 -3 -12 4 -8 3 -10 -2 -5 -5 5 -9 18 -9 30 -1 12
-4 27 -8 34 -5 8 -1 8 18 0 18 -9 25 -20 25 -42z m34 20 c-4 -8 -11 -15 -16
-15 -6 0 -5 6 2 15 7 8 14 15 16 15 2 0 1 -7 -2 -15z m-764 -25 c-12 -22 -22
-20 -26 5 -1 8 2 13 6 10 5 -3 12 0 15 6 13 19 17 1 5 -21z m800 -20 c0 -5 -5
-10 -11 -10 -5 0 -7 5 -4 10 3 6 8 10 11 10 2 0 4 -4 4 -10z m-640 -11 c0 -6
6 -9 14 -6 16 6 53 -29 43 -40 -4 -3 -7 -1 -7 5 0 7 -7 12 -16 12 -8 0 -12 -4
-9 -10 3 -5 -1 -10 -10 -10 -8 0 -20 11 -27 25 -6 13 -15 22 -19 19 -5 -3 -9
0 -9 5 0 6 9 11 20 11 11 0 20 -5 20 -11z m975 -19 c3 -5 1 -10 -4 -10 -6 0
-11 5 -11 10 0 6 2 10 4 10 3 0 8 -4 11 -10z m-418 -82 c-3 -7 -5 -2 -5 12 0
14 2 19 5 13 2 -7 2 -19 0 -25z m-207 -8 c0 -5 -4 -10 -10 -10 -5 0 -10 5 -10
10 0 6 5 10 10 10 6 0 10 -4 10 -10z m227 -12 c-3 -8 -6 -5 -6 6 -1 11 2 17 5
13 3 -3 4 -12 1 -19z m360 -15 c-3 -10 -5 -4 -5 12 0 17 2 24 5 18 2 -7 2 -21
0 -30z m-247 -13 c0 -5 -7 -7 -15 -4 -8 4 -15 8 -15 10 0 2 7 4 15 4 8 0 15
-4 15 -10z m-660 -40 c0 -13 -11 -13 -30 0 -12 8 -11 10 8 10 12 0 22 -4 22
-10z m954 -130 c2 0 19 6 38 14 31 14 35 13 46 -5 7 -11 8 -19 2 -19 -5 0 -10
5 -10 10 0 6 -6 5 -14 -2 -12 -11 -12 -16 2 -32 10 -11 11 -16 4 -12 -7 4 -15
1 -18 -8 -5 -14 -9 -13 -30 1 -14 9 -23 22 -20 29 3 7 -2 18 -10 24 -8 7 -14
24 -13 39 1 24 1 24 10 -6 5 -18 11 -33 13 -33z m-44 -10 c0 -5 -12 -10 -27
-9 -25 0 -26 1 -8 9 27 12 35 12 35 0z m206 -38 c-12 -11 -18 7 -10 30 l8 23
4 -23 c2 -13 1 -26 -2 -30z m-309 22 c-3 -3 -12 -4 -19 -1 -8 3 -5 6 6 6 11 1
17 -2 13 -5z m-270 -60 c-3 -3 -12 -4 -19 -1 -8 3 -5 6 6 6 11 1 17 -2 13 -5z
m698 -14 c-3 -5 0 -10 7 -10 7 0 19 -9 26 -20 7 -11 19 -20 27 -20 8 0 15 -7
15 -15 0 -21 -27 -19 -39 3 -5 9 -12 16 -15 15 -15 -7 -26 -2 -20 8 3 6 1 15
-6 19 -11 7 -6 30 6 30 3 0 2 -4 -1 -10z m-1615 -21 c0 -5 -9 -9 -20 -9 -11 0
-20 6 -20 14 0 9 7 12 20 9 11 -3 20 -9 20 -14z m-270 1 c13 -8 13 -10 -2 -10
-9 0 -20 5 -23 10 -8 13 5 13 25 0z m807 -2 c15 -2 25 -26 17 -40 -5 -7 -12
-5 -20 6 -7 10 -21 16 -31 14 -14 -3 -17 -11 -15 -38 2 -24 0 -31 -6 -21 -11
15 -14 11 -32 -46 -11 -37 -11 -44 5 -59 16 -16 16 -18 0 -27 -9 -5 -18 -7
-19 -5 -9 11 -31 158 -23 158 4 0 6 9 2 19 -3 11 -1 22 5 26 6 3 8 10 5 15 -3
5 18 6 47 4 29 -3 58 -6 65 -6z m-882 -36 c-3 -3 -11 0 -18 7 -9 10 -8 11 6 5
10 -3 15 -9 12 -12z m2115 14 c0 -3 -4 -8 -10 -11 -5 -3 -10 -1 -10 4 0 6 5
11 10 11 6 0 10 -2 10 -4z m-2050 -26 c0 -15 -21 -23 -33 -11 -7 7 -15 7 -26
-2 -14 -10 -14 -10 -4 3 12 16 63 24 63 10z m336 1 c-3 -5 -15 -7 -26 -4 -28
7 -25 13 6 13 14 0 23 -4 20 -9z m1187 -8 c-7 -2 -19 -2 -25 0 -7 3 -2 5 12 5
14 0 19 -2 13 -5z m-1663 -7 c0 -2 -7 -6 -15 -10 -8 -3 -15 -1 -15 4 0 6 7 10
15 10 8 0 15 -2 15 -4z m2064 -11 c-6 -14 -18 -19 -36 -16 -5 0 -8 -6 -8 -14
0 -8 -9 -15 -19 -15 -22 0 -39 19 -19 21 7 1 0 5 -17 9 -26 7 -23 8 22 9 28 0
55 6 58 11 10 16 25 12 19 -5z m-1871 -2 c-7 -2 -21 -2 -30 0 -10 3 -4 5 12 5
17 0 24 -2 18 -5z m-186 -10 c-4 -3 -2 -12 3 -18 11 -14 -6 -25 -47 -32 -38
-6 -26 24 17 44 30 14 36 15 27 6z m49 -49 c0 -31 -1 -33 -33 -32 -18 1 -33 5
-33 10 0 4 5 8 11 8 5 0 8 4 4 9 -3 5 4 12 15 16 11 4 18 10 16 14 -3 4 0 8 7
8 7 0 12 -15 13 -33z m1144 26 c0 -5 -7 -10 -15 -10 -8 0 -15 5 -15 10 0 6 7
10 15 10 8 0 15 -4 15 -10z m884 1 c4 -5 -3 -7 -14 -4 -23 6 -26 13 -6 13 8 0
17 -4 20 -9z m-2281 -14 c3 -8 -3 -14 -15 -14 -16 -2 -17 1 -8 13 15 17 17 17
23 1z m86 -4 c-21 -28 -23 -29 -16 -11 3 9 1 19 -6 22 -7 2 -1 5 12 5 21 1 22
-1 10 -16z m1838 11 c-3 -3 -12 -4 -19 -1 -8 3 -5 6 6 6 11 1 17 -2 13 -5z
m-383 -89 c4 -12 -5 -5 -22 15 -19 22 -26 37 -19 42 10 6 24 -14 41 -57z
m-1428 29 c-10 -22 -12 -23 -24 -6 -7 9 -15 16 -17 15 -3 -2 -13 -2 -22 -2
-18 1 26 13 58 16 14 1 15 -2 5 -23z m721 20 c-3 -3 -12 -4 -19 -1 -8 3 -5 6
6 6 11 1 17 -2 13 -5z m484 -16 c11 -21 11 -22 -4 -9 -10 7 -17 17 -17 22 0
15 9 10 21 -13z m49 -9 c0 -6 -4 -7 -10 -4 -5 3 -10 11 -10 16 0 6 5 7 10 4 6
-3 10 -11 10 -16z m-1307 -19 c4 -17 0 -20 -24 -20 -35 0 -40 26 -6 33 12 2
23 5 23 6 1 0 4 -8 7 -19z m97 16 c0 -3 -4 -8 -10 -11 -5 -3 -10 -1 -10 4 0 6
5 11 10 11 6 0 10 -2 10 -4z m710 -37 c0 -5 -4 -9 -10 -9 -5 0 -10 7 -10 16 0
8 5 12 10 9 6 -3 10 -10 10 -16z m1235 11 c3 -6 -1 -7 -9 -4 -18 7 -21 14 -7
14 6 0 13 -4 16 -10z m-2000 -29 c-6 -5 -25 10 -25 20 0 5 6 4 14 -3 8 -7 12
-15 11 -17z m80 19 c3 -5 -1 -10 -10 -10 -9 0 -13 5 -10 10 3 6 8 10 10 10 2
0 7 -4 10 -10z m1586 -62 c5 -10 6 -18 2 -18 -16 1 -61 48 -68 71 -7 23 -6 23
25 -6 17 -16 36 -38 41 -47z m-734 25 c-3 -10 -5 -4 -5 12 0 17 2 24 5 18 2
-7 2 -21 0 -30z m322 7 c6 0 11 -4 11 -10 0 -5 11 -10 25 -10 14 0 25 -4 25
-9 0 -12 -48 -23 -62 -15 -7 5 -9 2 -5 -8 6 -17 -16 -19 -30 -3 -4 4 -2 5 5 1
15 -9 17 36 1 67 -9 20 -9 20 4 5 8 -10 19 -18 26 -18z m-1324 0 c3 -5 1 -10
-4 -10 -6 0 -11 5 -11 10 0 6 2 10 4 10 3 0 8 -4 11 -10z m1533 -21 c-3 -8 -7
-3 -11 10 -4 17 -3 21 5 13 5 -5 8 -16 6 -23z m-1458 5 c0 -8 -4 -12 -10 -9
-5 3 -10 10 -10 16 0 5 5 9 10 9 6 0 10 -7 10 -16z m1720 -15 c9 -16 7 -19
-10 -19 -15 0 -20 7 -20 26 0 27 14 25 30 -7z m470 -30 c11 -20 11 -20 -14 -4
-30 20 -32 25 -11 25 8 0 19 -9 25 -21z m377 -11 c-3 -7 -5 -2 -5 12 0 14 2
19 5 13 2 -7 2 -19 0 -25z m-2663 13 c4 -5 -3 -7 -14 -4 -23 6 -26 13 -6 13 8
0 17 -4 20 -9z m1408 -23 c-6 -6 -15 -8 -19 -4 -4 4 -1 11 7 16 19 12 27 3 12
-12z m-58 -14 c3 -8 2 -12 -4 -9 -6 3 -10 10 -10 16 0 14 7 11 14 -7z m788
-34 c-13 -14 -22 -18 -27 -11 -3 6 -11 8 -17 5 -7 -4 -8 -2 -4 4 4 7 14 12 22
12 8 0 17 7 21 16 4 10 9 12 15 6 7 -7 3 -18 -10 -32z m138 32 c0 -5 -7 -9
-15 -9 -8 0 -12 4 -9 9 7 10 24 10 24 0z m50 -12 c0 -5 -5 -10 -11 -10 -5 0
-7 5 -4 10 3 6 8 10 11 10 2 0 4 -4 4 -10z m-557 -7 c-7 -2 -19 -2 -25 0 -7 3
-2 5 12 5 14 0 19 -2 13 -5z m37 -44 c0 -6 -4 -7 -10 -4 -5 3 -10 11 -10 16 0
6 5 7 10 4 6 -3 10 -11 10 -16z m119 -8 c-15 -5 -22 6 -14 19 6 9 10 9 16 -1
5 -8 4 -15 -2 -18z m171 9 c0 -5 -4 -10 -10 -10 -5 0 -10 5 -10 10 0 6 5 10
10 10 6 0 10 -4 10 -10z m-537 -7 c-7 -2 -21 -2 -30 0 -10 3 -4 5 12 5 17 0
24 -2 18 -5z"/>
<path d="M1625 920 c3 -5 8 -10 11 -10 2 0 4 5 4 10 0 6 -5 10 -11 10 -5 0 -7
-4 -4 -10z"/>
<path d="M2090 550 c-8 -5 -10 -10 -5 -10 6 0 17 5 25 10 8 5 11 10 5 10 -5 0
-17 -5 -25 -10z"/>
<path d="M1030 591 c0 -5 5 -13 10 -16 6 -3 10 -2 10 4 0 5 -4 13 -10 16 -5 3
-10 2 -10 -4z"/>
<path d="M955 450 c3 -5 8 -10 11 -10 2 0 4 5 4 10 0 6 -5 10 -11 10 -5 0 -7
-4 -4 -10z"/>
<path d="M1400 399 c0 -5 5 -7 10 -4 6 3 10 8 10 11 0 2 -4 4 -10 4 -5 0 -10
-5 -10 -11z"/>
<path d="M846 348 c5 -8 2 -9 -10 -5 -9 4 -15 3 -11 -2 8 -14 45 -9 45 6 0 7
-7 13 -16 13 -9 0 -12 -5 -8 -12z"/>
<path d="M696 331 c-18 -7 -18 -8 -2 -14 29 -11 46 -8 46 8 0 16 -14 18 -44 6z"/>
<path d="M755 320 c3 -5 8 -10 11 -10 2 0 4 5 4 10 0 6 -5 10 -11 10 -5 0 -7
-4 -4 -10z"/>
<path d="M845 280 c-4 -6 -10 -8 -15 -5 -5 3 -11 1 -15 -5 -3 -5 1 -10 9 -10
8 0 20 -8 25 -17 9 -15 10 -12 9 15 -2 35 -4 37 -13 22z"/>
<path d="M784 252 c-4 -13 -12 -21 -19 -18 -8 3 -11 -2 -8 -14 3 -12 -2 -20
-16 -25 -25 -8 -28 -28 -3 -23 9 2 25 -5 35 -16 17 -19 17 -19 17 2 0 11 -5
22 -12 24 -17 6 0 28 22 28 10 0 21 -6 24 -12 3 -7 3 -2 0 12 -4 14 -10 27
-14 30 -4 3 -10 12 -13 20 -4 11 -7 9 -13 -8z"/>
<path d="M661 210 c0 -8 4 -24 9 -35 5 -13 9 -14 9 -5 0 8 -4 24 -9 35 -5 13
-9 14 -9 5z"/>
<path d="M2595 211 c-19 -8 -19 -8 2 -19 14 -8 24 -9 28 -2 3 5 1 10 -5 10 -6
0 -8 5 -5 10 7 11 7 11 -20 1z"/>
<path d="M500 171 c0 -11 55 -22 75 -15 30 12 14 24 -30 24 -25 0 -45 -4 -45
-9z"/>
<path d="M716 144 c-3 -8 -2 -12 3 -9 5 3 12 -3 14 -12 3 -10 4 -6 4 10 -1 30
-12 36 -21 11z"/>
<path d="M460 140 c-9 -6 -10 -10 -3 -10 6 0 15 5 18 10 8 12 4 12 -15 0z"/>
<path d="M2038 143 c7 -3 16 -2 19 1 4 3 -2 6 -13 5 -11 0 -14 -3 -6 -6z"/>
<path d="M2600 134 c0 -8 5 -12 10 -9 6 4 8 11 5 16 -9 14 -15 11 -15 -7z"/>
<path d="M409 93 c-19 -21 -20 -25 -6 -20 10 4 22 7 26 7 4 0 7 9 7 20 0 11
-1 20 -1 20 -1 0 -12 -12 -26 -27z"/>
<path d="M531 93 c-1 -17 4 -35 9 -38 12 -7 12 22 0 50 -7 17 -9 15 -9 -12z"/>
<path d="M2126 111 c-11 -4 -15 -10 -10 -13 5 -4 18 0 29 8 20 15 12 17 -19 5z"/>
<path d="M662 90 c-8 -13 -9 -20 -1 -20 5 0 7 -4 4 -10 -3 -6 -17 -10 -30 -10
-27 0 -75 -19 -75 -30 0 -9 52 -20 95 -20 20 0 35 6 39 15 7 19 36 19 36 0 0
-12 17 -15 95 -15 87 0 95 2 95 19 0 13 -9 21 -30 26 -29 6 -39 19 -22 28 4 2
2 2 -5 1 -6 -2 -16 3 -23 10 -6 8 -27 14 -48 14 -20 1 -55 3 -77 6 -33 4 -43
2 -53 -14z"/>
<path d="M2040 101 c0 -5 5 -13 10 -16 6 -3 10 -2 10 4 0 5 -4 13 -10 16 -5 3
-10 2 -10 -4z"/>
<path d="M0 51 l0 -48 157 -1 c86 0 165 4 177 8 14 6 -11 9 -74 9 -52 0 -104
2 -115 5 -11 2 -24 5 -29 5 -4 1 -1 13 9 27 22 35 14 40 -15 9 -13 -14 -30
-25 -37 -25 -8 0 -11 -4 -8 -10 3 -6 -1 -7 -9 -4 -29 11 4 50 37 45 14 -2 7 8
-14 20 -15 8 -19 8 -15 0 4 -6 2 -11 -3 -11 -6 0 -11 5 -11 10 0 6 -11 10 -25
10 -23 0 -25 -3 -25 -49z"/>
<path d="M370 49 c0 -5 5 -7 10 -4 6 3 10 8 10 11 0 2 -4 4 -10 4 -5 0 -10 -5
-10 -11z"/>
<path d="M2521 23 c-17 -19 -8 -27 23 -19 18 4 23 11 19 22 -4 11 -8 12 -13 4
-5 -8 -9 -8 -11 -2 -2 6 -10 4 -18 -5z"/>
<path d="M410 21 c0 -6 4 -13 10 -16 6 -3 7 1 4 9 -7 18 -14 21 -14 7z"/>
<path d="M961 14 c0 -11 3 -14 6 -6 3 7 2 16 -1 19 -3 4 -6 -2 -5 -13z"/>
</g>
</svg>
