<?xml version="1.0" standalone="no"?>
<!DOCTYPE svg PUBLIC "-//W3C//DTD SVG 20010904//EN"
 "http://www.w3.org/TR/2001/REC-SVG-20010904/DTD/svg10.dtd">
<svg version="1.0" xmlns="http://www.w3.org/2000/svg"
 width="259.000000pt" height="194.000000pt" viewBox="0 0 259.000000 194.000000"
 preserveAspectRatio="xMidYMid meet">

<g transform="translate(0.000000,194.000000) scale(0.100000,-0.100000)"
fill="#000000" stroke="none">
<path d="M0 1820 c0 -73 4 -120 10 -120 6 0 10 -7 10 -15 0 -8 6 -15 14 -15 7
0 19 7 26 15 10 12 10 15 -4 15 -23 0 -20 31 4 37 10 3 22 14 26 26 6 20 7 20
17 1 6 -10 14 -37 19 -59 6 -35 7 -34 3 12 -2 29 0 55 6 58 5 4 9 -2 9 -12 0
-10 4 -14 8 -8 16 22 152 23 168 1 9 -13 12 -13 25 2 8 9 14 22 14 27 0 6 23
13 50 16 56 7 125 25 140 36 14 11 75 89 75 97 0 3 -139 6 -310 6 l-310 0 0
-120z"/>
<path d="M1260 1845 c-2 -27 -2 -61 -1 -73 1 -13 -4 -31 -11 -39 -11 -14 -11
-15 2 -11 19 6 26 50 19 118 l-6 55 -3 -50z"/>
<path d="M160 1730 c0 -5 7 -10 16 -10 8 0 12 5 9 10 -3 6 -10 10 -16 10 -5 0
-9 -4 -9 -10z"/>
<path d="M101 1714 c0 -11 3 -14 6 -6 3 7 2 16 -1 19 -3 4 -6 -2 -5 -13z"/>
<path d="M1218 1683 c7 -3 16 -2 19 1 4 3 -2 6 -13 5 -11 0 -14 -3 -6 -6z"/>
<path d="M1170 1670 c-8 -5 -10 -10 -5 -10 6 0 17 5 25 10 8 5 11 10 5 10 -5
0 -17 -5 -25 -10z"/>
<path d="M87 1653 c-4 -3 -7 -15 -7 -25 0 -10 -7 -18 -15 -18 -20 0 -19 -12 4
-32 27 -23 81 -28 81 -7 0 5 -4 8 -9 4 -5 -3 -12 -1 -15 4 -12 18 15 23 39 7
15 -10 26 -12 30 -6 8 13 -37 30 -77 30 -27 0 -30 2 -24 25 6 25 5 30 -7 18z
m23 -67 c0 -3 -4 -8 -10 -11 -5 -3 -10 -1 -10 4 0 6 5 11 10 11 6 0 10 -2 10
-4z"/>
<path d="M2374 1627 l-20 -33 22 -17 c17 -12 24 -14 27 -4 4 9 8 8 16 -3 7
-10 11 -11 11 -2 0 6 7 12 15 12 8 0 12 6 9 14 -4 11 0 13 18 9 17 -4 20 -3
13 6 -6 6 -31 12 -55 13 -25 1 -39 3 -32 6 13 4 17 32 5 32 -5 -1 -17 -15 -29
-33z"/>
<path d="M15 1610 c-3 -5 -1 -10 4 -10 6 0 11 5 11 10 0 6 -2 10 -4 10 -3 0
-8 -4 -11 -10z"/>
<path d="M2373 1525 c-18 -20 -16 -27 12 -53 23 -23 45 -23 45 0 0 6 -5 7 -13
2 -7 -5 -5 -2 5 7 9 9 14 20 10 24 -4 4 5 5 21 3 29 -6 38 8 10 16 -52 14 -79
15 -90 1z"/>
<path d="M57 1514 c-3 -4 0 -15 7 -26 10 -14 12 -47 8 -135 -3 -79 -2 -114 6
-110 5 4 9 24 8 44 -1 21 3 42 8 46 8 6 7 10 -1 14 -9 3 -10 10 -4 21 5 9 8
35 9 57 0 56 10 75 41 76 26 1 26 1 -4 9 -39 10 -70 12 -78 4z"/>
<path d="M2400 1430 c0 -5 5 -10 11 -10 5 0 7 5 4 10 -3 6 -8 10 -11 10 -2 0
-4 -4 -4 -10z"/>
<path d="M1171 1401 c-7 -5 -22 -6 -32 -4 -11 3 -19 0 -19 -7 0 -9 15 -11 58
-7 31 4 65 6 75 7 9 0 17 5 17 10 0 12 -80 13 -99 1z"/>
<path d="M2390 1396 c0 -8 4 -17 9 -20 10 -7 23 19 14 28 -11 11 -23 6 -23 -8z"/>
<path d="M1100 1389 c0 -5 -8 -9 -17 -8 -35 3 -43 -1 -43 -22 0 -19 1 -19 16
-5 8 9 24 16 35 16 10 0 19 7 19 15 0 8 -2 15 -5 15 -3 0 -5 -5 -5 -11z"/>
<path d="M2380 1350 c0 -13 11 -13 30 0 12 8 11 10 -7 10 -13 0 -23 -4 -23
-10z"/>
<path d="M1120 1319 c-72 -14 -93 -20 -87 -25 3 -3 24 0 48 6 24 7 82 15 129
20 83 7 83 7 20 8 -36 0 -85 -4 -110 -9z"/>
<path d="M841 1259 c-18 -7 -21 -13 -13 -21 8 -8 19 -8 40 1 16 7 58 13 93 13
44 1 56 4 39 9 -36 10 -131 9 -159 -2z"/>
<path d="M1532 1243 c4 -35 29 -67 39 -51 4 7 3 20 -2 30 -11 21 -5 24 56 31
22 2 50 0 63 -4 12 -5 22 -5 22 0 0 14 -39 21 -113 21 l-68 0 3 -27z"/>
<path d="M1601 1226 c-7 -9 -5 -17 9 -28 20 -18 30 -14 30 13 0 22 -25 32 -39
15z"/>
<path d="M2365 1226 c-17 -12 -17 -15 -3 -29 8 -9 24 -14 34 -12 10 2 26 4 34
4 13 1 13 2 0 11 -12 8 -10 10 10 11 14 1 34 1 45 0 43 -4 -3 17 -50 23 -36 4
-57 2 -70 -8z"/>
<path d="M50 1217 c0 -7 6 -22 14 -32 13 -18 14 -18 27 3 8 12 23 23 34 23 13
1 10 4 -10 9 -47 12 -65 11 -65 -3z"/>
<path d="M857 1224 c-3 -3 -3 -12 0 -20 4 -11 9 -12 19 -3 8 6 11 15 8 20 -6
10 -18 12 -27 3z"/>
<path d="M910 1198 c1 -30 2 -31 14 -15 7 9 18 17 24 17 6 0 9 7 6 15 -4 8
-15 15 -25 15 -15 0 -19 -7 -19 -32z"/>
<path d="M980 1203 c0 -26 1 -26 14 -8 14 20 12 35 -5 35 -5 0 -9 -12 -9 -27z"/>
<path d="M1665 1220 c-4 -6 -2 -17 4 -23 15 -15 25 -2 13 19 -7 12 -11 13 -17
4z"/>
<path d="M720 1201 c0 -5 6 -12 13 -14 6 -3 1 -6 -13 -7 l-25 -2 25 -8 c38
-12 50 -11 50 3 0 8 -11 19 -25 25 -14 6 -25 8 -25 3z"/>
<path d="M1822 1185 c0 -16 2 -22 5 -12 2 9 2 23 0 30 -3 6 -5 -1 -5 -18z"/>
<path d="M1780 1185 c-10 -12 -10 -15 3 -15 8 0 17 7 21 15 3 8 2 15 -3 15 -5
0 -14 -7 -21 -15z"/>
<path d="M1931 1181 c-11 -7 -9 -10 9 -16 13 -4 27 -2 34 5 8 10 8 11 -1 6 -7
-4 -13 -2 -13 3 0 13 -10 14 -29 2z"/>
<path d="M540 1176 c0 -2 7 -6 15 -10 8 -3 15 -1 15 4 0 6 -7 10 -15 10 -8 0
-15 -2 -15 -4z"/>
<path d="M585 1170 c-3 -6 1 -7 9 -4 18 7 21 14 7 14 -6 0 -13 -4 -16 -10z"/>
<path d="M1732 1150 c0 -14 2 -19 5 -12 2 6 2 18 0 25 -3 6 -5 1 -5 -13z"/>
<path d="M62 1093 l0 -68 12 60 c12 60 12 75 -3 75 -4 0 -8 -30 -9 -67z"/>
<path d="M540 1114 c0 -17 22 -14 28 4 2 7 -3 12 -12 12 -9 0 -16 -7 -16 -16z"/>
<path d="M1932 1118 c6 -18 25 -20 31 -3 5 10 0 15 -14 15 -12 0 -19 -5 -17
-12z"/>
<path d="M1250 1088 c0 -5 -5 -6 -12 -2 -8 5 -9 2 -5 -9 4 -10 2 -17 -5 -17
-7 0 -6 -5 2 -15 9 -11 22 -14 46 -9 22 4 34 2 34 -5 0 -6 13 -11 29 -11 43 0
54 -52 13 -63 -10 -3 -5 -5 11 -6 25 -1 33 8 27 34 -1 5 -2 19 -3 30 -2 23
-24 49 -52 60 -42 16 -85 23 -85 13z m33 -35 c-7 -2 -19 -2 -25 0 -7 3 -2 5
12 5 14 0 19 -2 13 -5z"/>
<path d="M888 1059 c-22 -20 -22 -20 -1 -10 27 13 34 14 31 2 -3 -9 2 -11 22
-11 13 0 1 27 -15 34 -8 3 -24 -4 -37 -15z"/>
<path d="M1196 1064 c-23 -23 -20 -30 4 -9 11 10 20 20 20 22 0 7 -9 2 -24
-13z"/>
<path d="M1613 1067 c-25 -11 -32 -30 -8 -21 16 6 45 -17 45 -36 0 -7 7 -9 16
-6 12 4 15 2 11 -9 -4 -8 -2 -17 3 -20 12 -7 13 55 2 71 -15 22 -46 32 -69 21z"/>
<path d="M2395 1060 c-3 -5 1 -10 10 -10 9 0 13 5 10 10 -3 6 -8 10 -10 10 -2
0 -7 -4 -10 -10z"/>
<path d="M731 1033 c0 -16 3 -22 6 -15 8 20 25 13 18 -8 -4 -11 -2 -20 4 -20
15 0 14 43 -1 58 -19 19 -28 14 -27 -15z"/>
<path d="M61 1004 c0 -11 3 -14 6 -6 3 7 2 16 -1 19 -3 4 -6 -2 -5 -13z"/>
<path d="M955 1011 c-3 -5 -1 -12 5 -16 5 -3 10 1 10 9 0 18 -6 21 -15 7z"/>
<path d="M1265 980 c-4 -6 -11 -8 -16 -5 -8 6 -11 -8 -11 -55 0 -33 4 -36 12
-10 8 24 8 24 9 3 1 -32 19 -29 24 5 l4 27 2 -27 c0 -16 7 -28 14 -28 9 0 12
11 9 36 -3 24 0 40 9 46 11 8 11 9 -1 5 -8 -2 -23 0 -32 4 -10 6 -19 5 -23 -1z"/>
<path d="M2368 962 c-10 -2 -18 -6 -18 -8 0 -11 29 -34 42 -34 10 0 9 3 -2 10
-20 13 -4 13 21 0 15 -9 19 -7 19 5 0 9 3 14 8 11 4 -2 23 -1 42 4 l35 8 -40
2 c-22 1 -51 3 -65 4 -14 1 -33 0 -42 -2z"/>
<path d="M40 952 c0 -13 22 -32 38 -32 7 0 10 5 7 10 -3 6 1 10 9 10 34 0 22
16 -15 18 -21 2 -39 -1 -39 -6z"/>
<path d="M907 953 c-4 -3 -7 -15 -7 -25 0 -14 8 -18 35 -18 24 0 35 5 35 15 0
18 -16 20 -23 3 -4 -8 -8 -4 -12 10 -7 22 -16 27 -28 15z"/>
<path d="M1400 944 c0 -10 -6 -14 -15 -10 -9 3 -15 0 -15 -10 0 -10 6 -14 15
-10 8 3 15 1 15 -4 0 -5 -8 -11 -17 -13 -14 -4 -12 -5 5 -6 19 -1 22 4 22 34
0 19 -2 35 -5 35 -3 0 -5 -7 -5 -16z"/>
<path d="M1610 935 c0 -21 5 -25 28 -25 21 0 24 2 12 10 -12 8 -10 10 8 10 13
0 20 -4 17 -10 -3 -5 0 -10 8 -10 10 0 13 8 9 28 -3 15 -7 21 -9 15 -5 -15
-43 -18 -43 -3 0 6 -7 10 -15 10 -9 0 -15 -9 -15 -25z"/>
<path d="M530 940 c0 -5 6 -10 14 -10 8 0 18 5 21 10 3 6 -3 10 -14 10 -12 0
-21 -4 -21 -10z"/>
<path d="M756 941 c-4 -7 -5 -15 -2 -18 9 -9 19 4 14 18 -4 11 -6 11 -12 0z"/>
<path d="M1926 940 c7 -7 19 -7 35 -1 23 9 22 10 -10 10 -24 1 -32 -2 -25 -9z"/>
<path d="M716 915 c-3 -8 -1 -15 3 -15 5 0 11 7 15 15 3 8 1 15 -3 15 -5 0
-11 -7 -15 -15z"/>
<path d="M1357 864 c-4 -4 -7 -14 -7 -23 0 -11 3 -12 11 -4 6 6 10 16 7 23 -2
6 -7 8 -11 4z"/>
<path d="M728 833 c7 -3 16 -2 19 1 4 3 -2 6 -13 5 -11 0 -14 -3 -6 -6z"/>
<path d="M394 822 c-7 -4 -15 -60 -19 -140 l-7 -134 -29 4 c-16 3 -29 2 -29
-2 0 -9 -62 0 -77 12 -7 5 -12 5 -15 -2 -4 -13 -28 -15 -128 -11 -55 2 -68 5
-50 11 14 4 21 9 15 10 -5 1 -20 3 -33 6 -21 4 -22 1 -22 -66 l0 -71 105 7
c90 6 105 5 105 -8 0 -17 -46 -28 -120 -28 -89 -1 -87 1 -89 -110 l-2 -97 46
-6 c57 -6 93 1 73 15 -8 6 -1 7 21 3 26 -6 32 -4 29 6 -3 8 -15 13 -29 11 -19
-2 -21 -1 -9 7 19 14 63 14 55 1 -8 -13 48 -13 60 -1 6 5 21 11 35 14 14 2 6
3 -18 2 -48 -3 -65 10 -26 19 22 6 216 26 234 24 3 0 22 0 43 1 46 1 49 18 5
23 l-33 4 30 13 c52 23 138 26 168 6 14 -9 28 -16 31 -16 17 3 26 0 26 -8 0
-12 -93 -21 -105 -10 -5 5 -25 9 -45 8 -19 0 -29 -3 -22 -6 6 -2 10 -9 6 -14
-6 -10 57 -12 133 -3 35 5 50 11 47 19 -3 7 4 15 15 18 12 3 19 1 15 -4 -3 -5
-1 -9 5 -9 5 0 13 4 16 10 8 13 35 13 35 -1 0 -6 -9 -13 -20 -16 -11 -3 -20
-14 -20 -24 0 -20 30 -16 31 5 0 6 4 1 9 -12 12 -29 46 -29 54 1 9 34 7 40
-11 33 -15 -5 -14 -3 2 10 19 15 19 15 -7 9 -17 -5 -28 -3 -28 3 0 6 8 13 18
15 9 3 3 5 -14 6 -16 0 -38 7 -47 14 -15 10 -10 12 30 10 l48 -2 -47 8 c-26 4
-50 9 -53 12 -3 3 35 13 85 21 50 8 93 11 96 6 7 -11 62 -10 69 2 3 6 15 10
26 10 10 0 19 5 19 10 0 14 -26 12 -42 -3 -7 -7 -23 -13 -36 -14 -19 -2 -21 1
-12 13 10 11 8 14 -11 14 -18 0 -21 2 -10 9 8 5 34 8 57 5 24 -2 58 3 78 11
19 8 50 15 68 14 l33 0 -44 -18 c-56 -23 -41 -32 49 -29 76 2 85 -3 96 -52 3
-14 13 -41 21 -60 11 -24 13 -35 4 -38 -6 -2 -11 -8 -11 -13 0 -6 5 -7 11 -4
6 4 13 -3 16 -15 9 -35 23 -2 23 57 0 50 -13 77 -23 51 -3 -7 -6 1 -6 17 -1
23 -4 27 -11 15 -8 -12 -10 -9 -10 13 l0 27 74 0 c72 0 74 0 86 -30 13 -32 25
-38 33 -17 4 8 6 7 6 -4 1 -15 42 -50 73 -62 13 -4 15 -2 11 10 -4 11 -3 14 6
9 8 -5 14 -1 18 12 3 14 11 18 25 14 18 -4 20 -11 16 -52 -4 -42 -3 -47 14
-42 12 3 18 -1 18 -12 0 -9 8 -16 20 -16 11 0 20 -4 20 -10 0 -5 7 -10 16 -10
9 0 23 -8 30 -17 18 -25 32 -7 35 45 2 23 8 42 13 42 26 -1 35 -20 38 -80 3
-58 5 -65 25 -68 23 -3 28 6 36 73 2 17 5 -5 6 -48 1 -75 2 -78 24 -75 19 3
23 10 27 63 5 57 6 60 30 57 36 -4 43 -15 48 -76 3 -42 9 -55 23 -59 23 -6 29
0 29 34 0 41 9 58 28 52 66 -20 252 -106 252 -115 0 -5 -8 -7 -17 -4 -10 3
-24 2 -31 -3 -20 -12 20 -20 80 -16 34 2 65 -3 95 -16 25 -10 49 -19 54 -19 5
0 9 33 9 73 l0 72 -57 14 c-92 20 -232 62 -259 76 -20 10 -22 14 -9 19 25 9
35 7 33 -6 -4 -15 31 -23 44 -10 6 6 0 8 -19 5 -21 -3 -19 0 11 11 22 8 42 13
46 11 3 -2 12 1 20 6 11 8 2 9 -30 4 -48 -7 -147 -9 -220 -5 l-45 2 34 12 c22
8 30 15 23 20 -7 4 -12 5 -12 3 0 -2 -18 -1 -40 3 -38 7 -54 -2 -27 -14 6 -4
1 -4 -13 -1 -14 3 -54 10 -90 17 -65 12 -65 12 -25 18 30 4 35 7 22 13 -10 4
-28 8 -40 8 -17 1 -15 3 8 9 27 7 26 8 -15 9 -28 0 -40 -2 -32 -8 11 -7 11 -9
-2 -14 -14 -5 -38 0 -166 35 -19 5 -52 13 -74 18 -21 4 -41 12 -45 17 -3 6
-27 13 -53 17 -27 4 -48 11 -48 17 0 5 -12 9 -27 9 -35 0 -118 29 -86 30 12 0
33 -4 47 -10 19 -7 26 -6 26 3 0 9 2 9 8 0 4 -6 24 -14 44 -18 21 -4 36 -11
33 -15 -2 -4 12 -6 33 -5 48 2 142 -14 142 -25 0 -5 -8 -11 -17 -13 -10 -3 0
-5 22 -5 31 0 35 1 20 8 -20 8 -20 9 1 9 11 1 47 -4 80 -11 54 -11 57 -13 29
-19 -18 -5 2 -7 53 -6 45 1 83 -1 85 -5 1 -3 45 -13 97 -22 52 -9 127 -23 165
-31 113 -24 286 -55 306 -55 15 0 19 7 17 39 l-1 38 -134 -5 c-107 -4 -133 -2
-133 9 0 10 -3 10 -12 1 -14 -14 -48 -16 -48 -3 0 5 -20 8 -45 6 -24 -1 -59 1
-77 5 -18 4 -27 8 -19 9 58 4 -107 34 -179 32 -26 -1 -31 2 -20 9 8 5 25 10
37 10 12 0 25 4 28 10 11 17 27 11 21 -7 -6 -17 -5 -17 8 -1 18 24 29 23 21
-2 -4 -12 -2 -20 5 -20 6 0 9 4 5 9 -10 17 18 24 30 8 14 -19 43 -22 65 -6 12
9 11 10 -5 4 -15 -5 -17 -3 -9 5 8 8 21 9 35 4 13 -4 32 -7 42 -5 11 1 17 -4
17 -18 0 -19 6 -21 54 -21 35 0 58 5 66 15 7 8 20 15 29 14 10 0 12 -2 3 -6
-24 -10 0 -23 41 -22 40 1 40 2 12 9 -47 12 -8 11 64 -1 36 -7 68 -15 71 -20
9 -13 33 8 27 24 -4 10 -29 16 -86 21 -47 4 -81 12 -81 18 0 8 27 9 85 4 l85
-6 0 55 c0 53 -1 55 -27 55 -16 1 -119 0 -230 0 l-203 -1 0 75 c0 87 -5 106
-30 106 -26 0 -28 -6 -36 -98 -7 -79 -7 -80 -35 -84 l-29 -5 0 67 c0 100 -8
127 -37 133 l-25 5 7 -93 c4 -51 3 -99 -1 -107 -6 -8 -11 21 -14 77 -5 88 -6
90 -30 90 -24 0 -25 -3 -30 -79 -4 -63 -8 -80 -21 -82 -14 -1 -18 11 -24 62
-3 35 -11 66 -15 69 -5 3 -25 -1 -44 -9 -19 -8 -37 -11 -41 -8 -13 13 -55 -51
-55 -85 0 -26 -4 -33 -20 -33 -15 0 -20 7 -20 26 0 19 -4 25 -15 20 -9 -3 -15
0 -15 9 0 31 -79 12 -81 -19 -1 -17 -2 -17 -6 -3 -6 24 -22 21 -35 -7 -10 -24
-15 -25 -122 -28 -61 -2 -148 -2 -193 0 -80 3 -83 4 -83 28 0 19 -5 24 -26 24
-15 0 -23 4 -18 11 8 14 -38 8 -48 -6 -5 -6 -8 -5 -8 3 0 6 -7 12 -16 12 -10
0 -13 -6 -9 -19 8 -26 -4 -51 -25 -51 -20 0 -30 19 -30 59 0 37 -21 64 -43 55
-13 -4 -17 -18 -17 -53 0 -53 -9 -91 -21 -91 -4 0 -8 8 -8 18 -1 59 -15 122
-27 122 -9 0 -14 -12 -14 -36 0 -35 -14 -74 -28 -74 -4 0 -5 23 -4 50 5 61 -4
103 -21 97 -6 -2 -14 -14 -18 -28 -5 -18 -7 -11 -8 24 -1 43 -3 47 -25 47 -30
0 -36 -16 -36 -101 0 -38 -4 -69 -9 -69 -5 0 -9 43 -10 97 0 53 -4 100 -8 104
-4 4 -25 11 -47 15 -35 6 -37 5 -29 -12 10 -19 -7 -227 -19 -239 -3 -3 -13 -3
-22 1 -13 5 -14 9 -5 20 9 11 8 14 -6 14 -14 0 -16 9 -15 53 2 28 2 87 1 130
l-1 77 -27 0 c-16 0 -33 -4 -39 -8z m426 -368 c-10 -11 -9 -14 9 -14 14 0 20
4 15 11 -4 7 -2 10 5 8 22 -8 17 -24 -8 -27 -34 -5 -43 9 -28 47 10 29 12 30
15 12 2 -12 -2 -29 -8 -37z m-60 31 c0 -9 -9 -15 -22 -14 -17 1 -19 2 -5 6 9
2 17 9 17 14 0 5 2 9 5 9 3 0 5 -7 5 -15z m-634 -7 c3 -4 -12 -7 -35 -6 -22 0
-39 4 -36 8 6 9 61 7 71 -2z m576 -20 c-9 -9 -12 -7 -12 12 0 19 3 21 12 12 9
-9 9 -15 0 -24z m1163 22 c3 -5 -3 -10 -14 -10 -12 0 -21 5 -21 10 0 6 6 10
14 10 8 0 18 -4 21 -10z m85 1 c0 -6 -4 -13 -10 -16 -5 -3 -10 1 -10 9 0 9 5
16 10 16 6 0 10 -4 10 -9z m-1325 -31 c-3 -10 -1 -21 5 -25 5 -3 10 -11 10
-18 0 -6 -7 -2 -15 9 -17 22 -20 69 -5 59 6 -4 8 -15 5 -25z m1425 20 c11 -7
7 -10 -17 -10 -18 0 -33 5 -33 10 0 13 30 13 50 0z m-1684 -11 c10 -17 -16
-29 -63 -29 -56 0 -61 27 -5 33 20 2 42 4 49 5 6 1 15 -3 19 -9z m140 -4 c-8
-8 -19 -15 -25 -15 -6 0 -11 7 -11 15 0 9 10 15 26 15 23 0 24 -2 10 -15z
m434 5 c-8 -5 -26 -10 -40 -10 -20 0 -22 2 -10 10 8 5 26 10 40 10 20 0 22 -2
10 -10z m1258 0 c12 0 22 -3 22 -8 0 -4 -20 -6 -45 -4 -25 2 -45 9 -45 14 0 6
10 8 23 4 12 -3 32 -6 45 -6z m155 -5 c31 -4 57 -11 57 -17 0 -7 -20 -9 -61
-4 -34 3 -73 6 -85 6 -15 0 -24 6 -24 15 0 10 8 13 28 10 15 -2 53 -7 85 -10z
m-1593 1 c0 -11 -19 -15 -25 -6 -3 5 1 10 9 10 9 0 16 -2 16 -4z m1097 -2 c-3
-3 -12 -4 -19 -1 -8 3 -5 6 6 6 11 1 17 -2 13 -5z m-1340 -26 c-3 -8 -6 -5 -6
6 -1 11 2 17 5 13 3 -3 4 -12 1 -19z m193 2 c0 -5 -7 -7 -15 -4 -8 4 -15 8
-15 10 0 2 7 4 15 4 8 0 15 -4 15 -10z m77 4 c-3 -3 -12 -4 -19 -1 -8 3 -5 6
6 6 11 1 17 -2 13 -5z m1531 -14 c21 0 24 -2 12 -10 -19 -12 -90 -13 -90 -1 0
12 21 21 38 15 8 -2 26 -4 40 -4z m-1632 -17 c-2 -10 -10 -19 -19 -21 -13 -3
-16 9 -8 36 1 1 7 2 15 2 8 0 13 -8 12 -17z m-199 1 c-3 -3 -12 -4 -19 -1 -8
3 -5 6 6 6 11 1 17 -2 13 -5z m83 -4 c-8 -5 -22 -9 -30 -9 -10 0 -8 3 5 9 27
12 43 12 25 0z m37 -20 c-52 -16 -167 -21 -167 -8 0 6 3 9 6 6 3 -3 17 -3 31
1 14 3 55 7 92 8 50 1 59 -1 38 -7z m-283 -11 c-3 -6 0 -16 7 -21 12 -8 11 -9
-1 -5 -18 4 -27 37 -10 37 6 0 8 -5 4 -11z m46 7 c0 -11 -19 -15 -25 -6 -3 5
1 10 9 10 9 0 16 -2 16 -4z m34 -4 c-6 -4 -14 -14 -17 -22 -4 -10 -6 -8 -6 8
-1 15 5 22 17 22 10 0 13 -3 6 -8z m351 -12 c-3 -5 -17 -10 -31 -10 -13 0 -24
5 -24 10 0 6 14 10 31 10 17 0 28 -4 24 -10z m-702 -17 c-7 -2 -21 -2 -30 0
-10 3 -5 5 12 5 17 0 24 -2 18 -5z m188 -6 c-4 -4 -18 -3 -32 2 -23 9 -22 9 8
8 18 -1 28 -6 24 -10z m78 -13 c2 -2 -7 -4 -22 -4 -14 0 -29 5 -32 10 -6 10
42 4 54 -6z m2234 9 c-13 -2 -35 -2 -50 0 -16 2 -5 4 22 4 28 0 40 -2 28 -4z
m-2170 -10 c-7 -2 -19 -2 -25 0 -7 3 -2 5 12 5 14 0 19 -2 13 -5z m1750 -20
c-7 -2 -19 -2 -25 0 -7 3 -2 5 12 5 14 0 19 -2 13 -5z m427 -3 c0 -5 -5 -10
-11 -10 -5 0 -7 5 -4 10 3 6 8 10 11 10 2 0 4 -4 4 -10z m-2352 -7 c-10 -2
-28 -2 -40 0 -13 2 -5 4 17 4 22 1 32 -1 23 -4z m59 1 c-3 -3 -12 -4 -19 -1
-8 3 -5 6 6 6 11 1 17 -2 13 -5z m-194 -41 c-7 -2 -19 -2 -25 0 -7 3 -2 5 12
5 14 0 19 -2 13 -5z"/>
<path d="M2390 821 c0 -6 4 -12 8 -15 5 -3 9 1 9 9 0 8 -4 15 -9 15 -4 0 -8
-4 -8 -9z"/>
<path d="M956 797 c3 -10 9 -15 12 -12 3 3 0 11 -7 18 -10 9 -11 8 -5 -6z"/>
<path d="M1260 790 c0 -5 5 -10 10 -10 6 0 10 5 10 10 0 6 -4 10 -10 10 -5 0
-10 -4 -10 -10z"/>
<path d="M1241 753 c-1 -36 -4 -41 -18 -37 -15 5 -15 4 1 -6 14 -10 20 -9 28
1 7 11 11 11 15 2 6 -16 89 -17 99 -2 5 8 -3 10 -25 7 -29 -4 -31 -3 -31 28 0
47 -20 54 -21 7 -1 -21 -3 -29 -6 -18 -7 30 -23 42 -24 20 -1 -13 -4 -9 -9 10
-7 28 -8 28 -9 -12z"/>
<path d="M1933 783 c9 -2 25 -2 35 0 9 3 1 5 -18 5 -19 0 -27 -2 -17 -5z"/>
<path d="M915 727 c-4 -10 -5 -21 -1 -24 10 -10 18 4 13 24 -4 17 -4 17 -12 0z"/>
<path d="M1610 718 c0 -10 7 -18 15 -18 8 0 15 8 15 18 0 10 -7 19 -15 19 -8
0 -15 -9 -15 -19z"/>
<path d="M1380 714 c0 -15 26 -19 34 -5 3 5 -3 11 -14 14 -13 3 -20 0 -20 -9z"/>
<path d="M1670 710 c20 -13 33 -13 25 0 -3 6 -14 10 -23 10 -15 0 -15 -2 -2
-10z"/>
<path d="M30 670 c0 -5 5 -10 10 -10 6 0 10 5 10 10 0 6 -4 10 -10 10 -5 0
-10 -4 -10 -10z"/>
<path d="M1018 673 c6 -2 9 -10 6 -15 -4 -7 -2 -8 4 -4 18 11 14 26 -5 25 -11
0 -13 -3 -5 -6z"/>
<path d="M1488 673 c6 -2 18 -2 25 0 6 3 1 5 -13 5 -14 0 -19 -2 -12 -5z"/>
<path d="M2325 671 c11 -5 38 -5 60 -1 38 7 36 8 -20 8 -40 1 -53 -2 -40 -7z"/>
<path d="M1018 633 c7 -3 16 -2 19 1 4 3 -2 6 -13 5 -11 0 -14 -3 -6 -6z"/>
<path d="M1095 460 c3 -5 8 -10 11 -10 2 0 4 5 4 10 0 6 -5 10 -11 10 -5 0 -7
-4 -4 -10z"/>
<path d="M1054 414 c-12 -8 -31 -16 -43 -17 -12 -1 -21 -5 -21 -10 0 -4 -5 -5
-10 -2 -6 4 -8 10 -5 14 6 10 -60 6 -77 -5 -9 -6 -5 -10 12 -14 14 -4 24 -11
23 -16 -1 -5 9 -14 23 -21 18 -8 24 -8 24 1 0 6 9 12 21 12 18 0 18 -2 4 -12
-13 -10 -12 -12 10 -17 17 -3 25 0 22 7 -7 18 11 56 28 56 8 0 15 9 15 20 0
23 1 23 -26 4z"/>
<path d="M2448 373 c6 -2 18 -2 25 0 6 3 1 5 -13 5 -14 0 -19 -2 -12 -5z"/>
<path d="M1384 308 c-4 -18 -7 -57 -6 -86 0 -41 -3 -52 -13 -48 -16 6 -28 -21
-13 -30 5 -4 14 0 19 7 7 12 9 11 10 -1 1 -8 0 -22 -1 -30 -1 -12 1 -12 16 2
12 12 17 33 17 75 0 134 -13 182 -29 111z"/>
<path d="M1118 323 c7 -3 16 -2 19 1 4 3 -2 6 -13 5 -11 0 -14 -3 -6 -6z"/>
<path d="M1158 323 c6 -2 18 -2 25 0 6 3 1 5 -13 5 -14 0 -19 -2 -12 -5z"/>
<path d="M1458 323 c12 -2 30 -2 40 0 9 3 -1 5 -23 4 -22 0 -30 -2 -17 -4z"/>
<path d="M910 295 c0 -8 5 -15 10 -15 6 0 10 7 10 15 0 8 -4 15 -10 15 -5 0
-10 -7 -10 -15z"/>
<path d="M950 300 c-13 -8 -12 -10 3 -10 9 0 17 5 17 10 0 12 -1 12 -20 0z"/>
<path d="M1224 295 c-16 -13 -16 -14 -1 -9 14 5 17 0 17 -34 0 -36 2 -40 23
-38 13 2 29 6 35 10 17 10 16 85 0 82 -24 -3 -38 -17 -38 -38 0 -29 -9 -17
-12 15 -1 15 -3 27 -3 27 -1 0 -10 -7 -21 -15z"/>
<path d="M1607 290 c6 -24 26 -21 31 3 2 11 -3 17 -16 17 -15 0 -19 -5 -15
-20z"/>
<path d="M2248 293 c7 -3 16 -2 19 1 4 3 -2 6 -13 5 -11 0 -14 -3 -6 -6z"/>
<path d="M760 280 c0 -5 -3 -9 -7 -8 -16 3 -229 -99 -252 -120 -7 -7 -20 -11
-27 -8 -7 3 -16 1 -19 -4 -7 -11 -94 -52 -135 -65 -14 -4 -30 -11 -35 -16 -6
-4 -32 -17 -59 -29 l-48 -20 4 24 c4 18 0 26 -13 29 -16 4 -17 2 -8 -15 6 -10
8 -24 5 -31 -3 -9 -5 -9 -5 1 -1 6 -6 12 -12 12 -8 0 -8 -4 0 -14 8 -10 40
-14 111 -15 99 -2 100 -1 110 24 12 31 17 32 16 3 -1 -20 5 -23 42 -26 42 -3
42 -3 42 32 0 19 5 38 10 41 6 4 8 11 5 16 -3 5 0 6 8 3 9 -3 24 6 36 22 11
15 21 23 21 18 0 -5 5 -1 11 9 5 9 17 17 24 17 25 0 17 -17 -14 -30 -16 -6
-31 -19 -33 -28 -6 -24 10 -82 23 -82 6 0 8 4 5 9 -3 5 5 12 19 15 25 6 29 22
28 121 -1 19 0 19 13 0 8 -10 14 -24 14 -31 0 -14 28 -27 41 -18 5 3 9 21 9
41 0 27 3 34 15 29 8 -3 23 -9 33 -12 14 -5 15 -4 2 5 -12 9 -11 11 10 12 21
0 22 2 7 8 -17 6 -17 8 3 26 12 11 25 19 29 17 3 -2 8 4 9 14 3 10 0 14 -7 10
-7 -5 -9 -1 -5 8 4 11 0 16 -10 16 -9 0 -16 -4 -16 -10z m-330 -225 c0 -8 -4
-15 -10 -15 -5 0 -7 7 -4 15 4 8 8 15 10 15 2 0 4 -7 4 -15z"/>
<path d="M563 270 c-36 -15 -27 -18 24 -9 25 5 49 7 51 4 3 -3 0 -5 -6 -5 -7
0 -12 -4 -12 -9 0 -13 48 0 54 15 4 11 -5 14 -42 13 -26 0 -57 -4 -69 -9z"/>
<path d="M2468 263 c7 -3 16 -2 19 1 4 3 -2 6 -13 5 -11 0 -14 -3 -6 -6z"/>
<path d="M960 235 c0 -8 -7 -15 -15 -15 -8 0 -15 -4 -15 -10 0 -5 9 -10 20
-10 15 0 20 7 20 25 0 14 -2 25 -5 25 -3 0 -5 -7 -5 -15z"/>
<path d="M2391 246 c3 -4 179 -36 194 -36 3 0 5 9 5 20 0 19 -7 20 -102 20
-56 0 -99 -2 -97 -4z"/>
<path d="M1671 208 c-8 -18 -16 -27 -19 -20 -2 7 -8 12 -13 12 -6 0 -8 -4 -4
-9 3 -6 -3 -14 -12 -20 -16 -9 -16 -10 3 -11 32 0 67 32 62 58 -3 21 -4 20
-17 -10z"/>
<path d="M1328 223 c7 -3 16 -2 19 1 4 3 -2 6 -13 5 -11 0 -14 -3 -6 -6z"/>
<path d="M1466 193 c-4 -21 -8 -51 -10 -68 -2 -16 -6 -40 -10 -53 -12 -38 1
-72 28 -72 38 0 51 24 37 68 -9 27 -10 44 -2 65 6 16 7 26 2 23 -11 -7 -21 17
-21 50 0 38 -17 28 -24 -13z"/>
<path d="M260 209 c0 -5 5 -7 10 -4 6 3 10 8 10 11 0 2 -4 4 -10 4 -5 0 -10
-5 -10 -11z"/>
<path d="M315 210 c-14 -7 -3 -9 38 -7 31 1 57 5 57 9 0 11 -70 9 -95 -2z"/>
<path d="M866 207 c3 -10 9 -15 12 -12 3 3 0 11 -7 18 -10 9 -11 8 -5 -6z"/>
<path d="M1320 189 c0 -14 -5 -30 -12 -37 -9 -9 -8 -12 4 -12 18 0 31 50 17
65 -5 5 -9 -1 -9 -16z"/>
<path d="M453 193 c15 -2 39 -2 55 0 15 2 2 4 -28 4 -30 0 -43 -2 -27 -4z"/>
<path d="M15 180 c3 -5 16 -10 28 -9 21 0 21 1 2 9 -28 12 -37 12 -30 0z"/>
<path d="M233 173 c9 -2 25 -2 35 0 9 3 1 5 -18 5 -19 0 -27 -2 -17 -5z"/>
<path d="M390 170 c-12 -7 -10 -9 7 -7 12 0 19 5 17 9 -6 10 -6 10 -24 -2z"/>
<path d="M440 170 c8 -5 20 -10 25 -10 6 0 3 5 -5 10 -8 5 -19 10 -25 10 -5 0
-3 -5 5 -10z"/>
<path d="M905 170 c-3 -5 1 -10 9 -10 8 0 18 5 21 10 3 6 -1 10 -9 10 -8 0
-18 -4 -21 -10z"/>
<path d="M1211 163 c-1 -20 4 -23 32 -22 29 2 29 2 5 6 -15 2 -29 12 -31 21
-3 12 -5 10 -6 -5z"/>
<path d="M0 145 c0 -17 26 -20 36 -4 3 6 17 8 31 4 16 -4 22 -2 18 5 -10 17
-85 13 -85 -5z"/>
<path d="M300 140 c11 -7 5 -10 -25 -11 -22 -1 -48 -2 -57 -1 -10 1 -18 -3
-18 -8 0 -6 21 -8 57 -4 41 5 54 4 49 -4 -4 -7 -17 -12 -29 -12 -12 0 -31 -7
-41 -15 -23 -17 -4 -20 25 -5 13 8 19 7 19 0 0 -7 8 -6 23 2 12 7 25 11 29 10
3 -1 11 12 17 28 10 30 10 30 -27 30 -28 0 -33 -3 -22 -10z"/>
<path d="M120 124 l-35 -14 34 5 c34 5 48 12 40 19 -2 2 -20 -3 -39 -10z"/>
<path d="M1228 111 c8 -5 12 -23 10 -47 -3 -38 -4 -39 -38 -36 -19 2 -41 8
-47 14 -10 8 -13 4 -13 -16 0 -24 3 -26 44 -26 27 0 46 5 49 13 7 20 93 21
100 3 6 -16 45 -18 64 -4 19 15 8 42 -20 49 -26 7 -37 -4 -17 -16 25 -16 7
-22 -20 -7 -24 13 -30 24 -30 50 0 32 -1 32 -47 32 -30 0 -43 -3 -35 -9z m62
-43 c0 -17 -3 -19 -9 -9 -7 11 -11 10 -20 -5 -10 -18 -10 -18 -11 3 0 12 7 23
18 26 9 3 18 5 20 6 1 0 2 -9 2 -21z"/>
<path d="M710 94 c-10 -12 -8 -14 14 -12 28 3 34 13 12 21 -8 3 -20 -1 -26 -9z"/>
<path d="M900 91 c0 -17 12 -41 20 -41 4 0 10 11 12 25 4 19 1 25 -13 25 -11
0 -19 -4 -19 -9z"/>
<path d="M950 90 c0 -5 4 -10 9 -10 6 0 13 5 16 10 3 6 -1 10 -9 10 -9 0 -16
-4 -16 -10z"/>
<path d="M1610 80 c0 -11 7 -20 15 -20 8 0 15 5 15 11 0 5 4 8 9 5 5 -4 11 0
14 6 2 7 7 -2 11 -19 8 -33 1 -57 -13 -49 -4 3 -13 1 -21 -5 -11 -6 -6 -9 18
-9 32 0 32 0 32 50 l0 50 -40 0 c-33 0 -40 -3 -40 -20z"/>
<path d="M1925 90 c-4 -6 6 -10 22 -10 22 0 25 2 13 10 -19 12 -27 12 -35 0z"/>
<path d="M67 74 c-4 -4 -20 -7 -37 -6 -28 1 -30 -2 -30 -34 0 -31 3 -34 28
-33 24 0 25 1 7 10 -14 6 -4 8 37 6 31 -1 54 1 52 5 -2 4 4 11 13 17 15 9 14
10 -11 11 -16 0 -34 7 -40 16 -6 8 -15 12 -19 8z"/>
<path d="M673 35 c0 -22 2 -30 4 -17 2 12 2 30 0 40 -3 9 -5 -1 -4 -23z"/>
<path d="M702 38 c3 -30 6 -33 41 -36 28 -2 37 1 38 12 1 9 2 22 3 29 2 18
-15 27 -52 27 -32 0 -33 -2 -30 -32z"/>
<path d="M955 43 c5 -22 4 -25 -8 -14 -10 8 -16 8 -19 1 -2 -7 -14 -7 -36 -1
-28 9 -32 7 -32 -10 0 -17 7 -19 60 -19 l59 0 -1 35 c-1 23 -6 35 -16 35 -10
0 -12 -7 -7 -27z"/>
<path d="M2380 16 c0 -9 5 -16 10 -16 6 0 10 4 10 9 0 6 -4 13 -10 16 -5 3
-10 -1 -10 -9z"/>
<path d="M1060 10 c0 -5 7 -10 15 -10 8 0 15 5 15 10 0 6 -7 10 -15 10 -8 0
-15 -4 -15 -10z"/>
</g>
</svg>
